<svg width="501" height="345" viewBox="0 0 501 345" fill="none" xmlns="http://www.w3.org/2000/svg">
<path d="M250.514 117.353H389.074V321.907H250.514V117.353Z" fill="#203072"/>
<path d="M253.634 140.955H361.178C367.051 140.955 371.823 136.198 371.823 130.343V104.728C371.823 98.873 367.051 94.116 361.178 94.116H253.634C247.761 94.116 242.99 98.873 242.99 104.728V130.343C243.173 136.198 247.945 140.955 253.634 140.955Z" fill="#3041A5"/>
<path d="M252.717 142.601H360.261C367.051 142.601 372.557 137.113 372.557 130.343V104.728C372.557 97.9582 367.051 92.4692 360.261 92.4692H252.717C245.926 92.4692 240.421 97.9582 240.421 104.728V130.343C240.421 137.113 245.926 142.601 252.717 142.601ZM360.261 95.7626C365.216 95.7626 369.07 99.7878 369.07 104.545V130.16C369.07 135.1 365.033 138.942 360.261 138.942H252.717C247.762 138.942 243.908 134.917 243.908 130.16V104.545C243.908 99.6049 247.945 95.7626 252.717 95.7626H360.261Z" fill="#203072"/>
<path d="M260.24 106.009C258.517 106.009 257.121 104.617 257.121 102.899C257.121 101.181 258.517 99.7886 260.24 99.7886C261.964 99.7886 263.36 101.181 263.36 102.899C263.36 104.617 261.964 106.009 260.24 106.009Z" fill="#111E47"/>
<path d="M250.698 106.009C248.975 106.009 247.578 104.616 247.578 102.898C247.578 101.18 248.975 99.7878 250.698 99.7878C252.421 99.7878 253.818 101.18 253.818 102.898C253.818 104.616 252.421 106.009 250.698 106.009Z" fill="#111E47"/>
<path d="M260.241 116.072C258.518 116.072 257.121 114.679 257.121 112.961C257.121 111.244 258.518 109.851 260.241 109.851C261.964 109.851 263.361 111.244 263.361 112.961C263.361 114.679 261.964 116.072 260.241 116.072Z" fill="#111E47"/>
<path d="M250.698 116.072C248.975 116.072 247.578 114.679 247.578 112.961C247.578 111.244 248.975 109.851 250.698 109.851C252.421 109.851 253.818 111.244 253.818 112.961C253.818 114.679 252.421 116.072 250.698 116.072Z" fill="#111E47"/>
<path d="M249.964 130.16H261.342C262.443 130.16 263.361 129.245 263.361 128.147C263.361 127.05 262.443 126.135 261.342 126.135H249.964C248.863 126.135 247.945 127.05 247.945 128.147C247.945 129.245 248.863 130.16 249.964 130.16Z" fill="#111E47"/>
<path d="M249.964 123.939H261.342C262.443 123.939 263.361 123.024 263.361 121.926C263.361 120.829 262.443 119.914 261.342 119.914H249.964C248.863 119.914 247.945 120.829 247.945 121.926C247.945 123.024 248.863 123.939 249.964 123.939Z" fill="#111E47"/>
<path d="M261.709 135.283C260.898 135.283 260.241 134.628 260.241 133.819C260.241 133.011 260.898 132.355 261.709 132.355C262.52 132.355 263.177 133.011 263.177 133.819C263.177 134.628 262.52 135.283 261.709 135.283Z" fill="#28D799"/>
<path d="M256.754 135.283C255.943 135.283 255.286 134.628 255.286 133.819C255.286 133.011 255.943 132.356 256.754 132.356C257.565 132.356 258.222 133.011 258.222 133.819C258.222 134.628 257.565 135.283 256.754 135.283Z" fill="#E52866"/>
<path d="M247.762 115.706H249.964V110.217H247.762C247.211 110.217 246.66 110.766 246.66 111.315V114.608C246.844 115.34 247.211 115.706 247.762 115.706Z" fill="#111E47"/>
<path d="M279.144 140.955H386.688C392.561 140.955 397.333 136.198 397.333 130.343V104.728C397.333 98.873 392.561 94.116 386.688 94.116H279.144C273.271 94.116 268.499 98.873 268.499 104.728V130.343C268.499 136.198 273.271 140.955 279.144 140.955Z" fill="#5A66CC"/>
<path d="M279.144 142.602H386.688C393.479 142.602 398.984 137.113 398.984 130.343V104.728C398.984 97.9584 393.479 92.4695 386.688 92.4695H279.144C272.354 92.4695 266.848 97.9584 266.848 104.728V130.343C266.848 137.113 272.354 142.602 279.144 142.602ZM386.688 95.7628C391.643 95.7628 395.497 99.7881 395.497 104.545V130.16C395.497 135.1 391.46 138.942 386.688 138.942H279.144C274.189 138.942 270.335 134.917 270.335 130.16V104.545C270.335 99.6051 274.372 95.7628 279.144 95.7628H386.688Z" fill="#203072"/>
<path d="M312.729 107.29H381.917C383.936 107.29 385.587 105.643 385.587 103.63C385.587 101.618 383.936 99.9709 381.917 99.9709H312.729C310.71 99.9709 309.058 101.618 309.058 103.63C309.058 105.643 310.71 107.29 312.729 107.29Z" fill="#28D799"/>
<path d="M283.916 107.29H296.946C298.965 107.29 300.616 105.643 300.616 103.63C300.616 101.618 298.965 99.9709 296.946 99.9709H283.916C281.897 99.9709 280.245 101.618 280.245 103.63C280.245 105.643 281.897 107.29 283.916 107.29Z" fill="#111E47"/>
<path d="M283.916 118.084H296.946C298.965 118.084 300.616 116.438 300.616 114.425C300.616 112.412 298.965 110.766 296.946 110.766H283.916C281.897 110.766 280.245 112.412 280.245 114.425C280.245 116.438 281.897 118.084 283.916 118.084Z" fill="#111E47"/>
<path d="M312.729 118.084H381.917C383.936 118.084 385.587 116.438 385.587 114.425C385.587 112.412 383.936 110.766 381.917 110.766H312.729C310.71 110.766 309.058 112.412 309.058 114.425C309.058 116.438 310.71 118.084 312.729 118.084Z" fill="#28D799"/>
<path d="M312.729 128.879H381.917C383.936 128.879 385.587 127.232 385.587 125.22C385.587 123.207 383.936 121.561 381.917 121.561H312.729C310.71 121.561 309.058 123.207 309.058 125.22C309.058 127.232 310.71 128.879 312.729 128.879Z" fill="#28D799"/>
<path d="M312.729 128.879H334.384C336.403 128.879 338.055 127.232 338.055 125.22C338.055 123.207 336.403 121.561 334.384 121.561H312.729C310.71 121.561 309.058 123.207 309.058 125.22C309.058 127.232 310.71 128.879 312.729 128.879Z" fill="#FF8F00"/>
<path d="M303.736 139.857H362.096C362.096 136.563 359.527 134.002 356.223 134.002H309.609C306.305 134.002 303.736 136.563 303.736 139.857Z" fill="#203072"/>
<path d="M283.915 129.062C281.888 129.062 280.245 127.424 280.245 125.403C280.245 123.382 281.888 121.744 283.915 121.744C285.943 121.744 287.586 123.382 287.586 125.403C287.586 127.424 285.943 129.062 283.915 129.062Z" fill="#28D799"/>
<path d="M296.946 129.062C294.919 129.062 293.275 127.424 293.275 125.403C293.275 123.382 294.919 121.744 296.946 121.744C298.973 121.744 300.616 123.382 300.616 125.403C300.616 127.424 298.973 129.062 296.946 129.062Z" fill="#111E47"/>
<path d="M253.634 201.516H361.178C367.051 201.516 371.823 196.759 371.823 190.904V165.289C371.823 159.434 367.051 154.677 361.178 154.677H253.634C247.761 154.677 242.99 159.434 242.99 165.289V190.904C243.173 196.942 247.945 201.516 253.634 201.516Z" fill="#3041A5"/>
<path d="M252.717 203.346H360.261C367.051 203.346 372.557 197.857 372.557 191.087V165.472C372.557 158.702 367.051 153.213 360.261 153.213H252.717C245.926 153.213 240.421 158.702 240.421 165.472V191.087C240.421 197.857 245.926 203.346 252.717 203.346ZM360.261 156.507C365.216 156.507 369.07 160.532 369.07 165.289V190.904C369.07 195.844 365.033 199.686 360.261 199.686H252.717C247.762 199.686 243.908 195.661 243.908 190.904V165.289C243.908 160.349 247.945 156.507 252.717 156.507H360.261Z" fill="#203072"/>
<path d="M260.241 166.753C258.518 166.753 257.121 165.36 257.121 163.642C257.121 161.925 258.518 160.532 260.241 160.532C261.964 160.532 263.361 161.925 263.361 163.642C263.361 165.36 261.964 166.753 260.241 166.753Z" fill="#111E47"/>
<path d="M250.698 166.753C248.975 166.753 247.578 165.36 247.578 163.642C247.578 161.925 248.975 160.532 250.698 160.532C252.421 160.532 253.818 161.925 253.818 163.642C253.818 165.36 252.421 166.753 250.698 166.753Z" fill="#111E47"/>
<path d="M260.241 176.816C258.518 176.816 257.121 175.423 257.121 173.705C257.121 171.988 258.518 170.595 260.241 170.595C261.964 170.595 263.361 171.988 263.361 173.705C263.361 175.423 261.964 176.816 260.241 176.816Z" fill="#111E47"/>
<path d="M250.698 176.816C248.975 176.816 247.578 175.423 247.578 173.705C247.578 171.988 248.975 170.595 250.698 170.595C252.421 170.595 253.818 171.988 253.818 173.705C253.818 175.423 252.421 176.816 250.698 176.816Z" fill="#111E47"/>
<path d="M249.964 190.904H261.342C262.443 190.904 263.361 189.989 263.361 188.891C263.361 187.793 262.443 186.879 261.342 186.879H249.964C248.863 186.879 247.945 187.793 247.945 188.891C247.945 189.989 248.863 190.904 249.964 190.904Z" fill="#111E47"/>
<path d="M249.964 184.683H261.342C262.443 184.683 263.361 183.768 263.361 182.671C263.361 181.573 262.443 180.658 261.342 180.658H249.964C248.863 180.658 247.945 181.573 247.945 182.671C247.945 183.768 248.863 184.683 249.964 184.683Z" fill="#111E47"/>
<path d="M261.709 196.027C260.898 196.027 260.241 195.372 260.241 194.564C260.241 193.755 260.898 193.1 261.709 193.1C262.52 193.1 263.177 193.755 263.177 194.564C263.177 195.372 262.52 196.027 261.709 196.027Z" fill="#111E47"/>
<path d="M256.754 196.027C255.943 196.027 255.286 195.372 255.286 194.564C255.286 193.755 255.943 193.1 256.754 193.1C257.565 193.1 258.222 193.755 258.222 194.564C258.222 195.372 257.565 196.027 256.754 196.027Z" fill="#111E47"/>
<path d="M257.488 176.45H259.69V170.961H257.488C256.938 170.961 256.387 171.51 256.387 172.059V175.352C256.387 175.901 256.938 176.45 257.488 176.45Z" fill="#111E47"/>
<path d="M247.945 166.204H250.147V160.715H247.945C247.394 160.715 246.844 161.264 246.844 161.813V165.106C246.844 165.838 247.211 166.204 247.945 166.204Z" fill="#111E47"/>
<path d="M279.144 201.516H386.688C392.561 201.516 397.333 196.759 397.333 190.904V165.289C397.333 159.434 392.561 154.677 386.688 154.677H279.144C273.271 154.677 268.499 159.434 268.499 165.289V190.904C268.499 196.942 273.271 201.516 279.144 201.516Z" fill="#5A66CC"/>
<path d="M279.144 203.346H386.688C393.479 203.346 398.984 197.857 398.984 191.087V165.472C398.984 158.702 393.479 153.213 386.688 153.213H279.144C272.354 153.213 266.848 158.702 266.848 165.472V191.087C266.848 197.857 272.354 203.346 279.144 203.346ZM386.688 156.507C391.643 156.507 395.497 160.532 395.497 165.289V190.904C395.497 195.844 391.46 199.686 386.688 199.686H279.144C274.189 199.686 270.335 195.661 270.335 190.904V165.289C270.335 160.349 274.372 156.507 279.144 156.507H386.688Z" fill="#203072"/>
<path d="M312.729 167.851H381.917C383.936 167.851 385.587 166.204 385.587 164.191C385.587 162.179 383.936 160.532 381.917 160.532H312.729C310.71 160.532 309.058 162.179 309.058 164.191C309.058 166.387 310.71 167.851 312.729 167.851Z" fill="#28D799"/>
<path d="M283.915 167.851H296.945C298.964 167.851 300.616 166.204 300.616 164.191C300.616 162.179 298.964 160.532 296.945 160.532H283.915C281.896 160.532 280.245 162.179 280.245 164.191C280.245 166.387 281.896 167.851 283.915 167.851Z" fill="#28D799"/>
<path d="M283.915 178.828H296.945C298.964 178.828 300.616 177.182 300.616 175.169C300.616 173.156 298.964 171.51 296.945 171.51H283.915C281.896 171.51 280.245 173.156 280.245 175.169C280.245 177.182 281.896 178.828 283.915 178.828Z" fill="#111E47"/>
<path d="M312.729 178.828H381.917C383.936 178.828 385.587 177.182 385.587 175.169C385.587 173.156 383.936 171.51 381.917 171.51H312.729C310.71 171.51 309.058 173.156 309.058 175.169C309.058 177.182 310.71 178.828 312.729 178.828Z" fill="#28D799"/>
<path d="M312.729 189.623H381.917C383.936 189.623 385.587 187.977 385.587 185.964C385.587 183.951 383.936 182.305 381.917 182.305H312.729C310.71 182.305 309.058 183.951 309.058 185.964C309.058 187.977 310.71 189.623 312.729 189.623Z" fill="#28D799"/>
<path d="M303.736 200.418H362.096C362.096 197.125 359.527 194.563 356.223 194.563H309.609C306.305 194.563 303.736 197.308 303.736 200.418Z" fill="#203072"/>
<path d="M283.915 189.623C281.888 189.623 280.245 187.985 280.245 185.964C280.245 183.943 281.888 182.305 283.915 182.305C285.943 182.305 287.586 183.943 287.586 185.964C287.586 187.985 285.943 189.623 283.915 189.623Z" fill="#28D799"/>
<path d="M296.945 189.623C294.918 189.623 293.275 187.985 293.275 185.964C293.275 183.943 294.918 182.305 296.945 182.305C298.972 182.305 300.616 183.943 300.616 185.964C300.616 187.985 298.972 189.623 296.945 189.623Z" fill="#FF8F00"/>
<path d="M253.634 262.26H361.178C367.051 262.26 371.823 257.503 371.823 251.648V226.033C371.823 220.178 367.051 215.421 361.178 215.421H253.634C247.761 215.421 242.99 220.178 242.99 226.033V251.648C243.173 257.503 247.945 262.26 253.634 262.26Z" fill="#3041A5"/>
<path d="M252.717 263.907H360.261C367.051 263.907 372.557 258.418 372.557 251.648V226.033C372.557 219.264 367.051 213.775 360.261 213.775H252.717C245.926 213.775 240.421 219.264 240.421 226.033V251.648C240.421 258.418 245.926 263.907 252.717 263.907ZM360.261 217.251C365.216 217.251 369.07 221.276 369.07 226.033V251.648C369.07 256.588 365.033 260.431 360.261 260.431H252.717C247.762 260.431 243.908 256.405 243.908 251.648V226.033C243.908 221.093 247.945 217.251 252.717 217.251H360.261Z" fill="#203072"/>
<path d="M260.241 227.497C258.518 227.497 257.121 226.104 257.121 224.386C257.121 222.668 258.518 221.276 260.241 221.276C261.964 221.276 263.361 222.668 263.361 224.386C263.361 226.104 261.964 227.497 260.241 227.497Z" fill="#111E47"/>
<path d="M250.698 227.497C248.975 227.497 247.578 226.104 247.578 224.386C247.578 222.668 248.975 221.276 250.698 221.276C252.421 221.276 253.818 222.668 253.818 224.386C253.818 226.104 252.421 227.497 250.698 227.497Z" fill="#111E47"/>
<path d="M260.241 237.56C258.518 237.56 257.121 236.167 257.121 234.449C257.121 232.731 258.518 231.339 260.241 231.339C261.964 231.339 263.361 232.731 263.361 234.449C263.361 236.167 261.964 237.56 260.241 237.56Z" fill="#111E47"/>
<path d="M250.698 237.56C248.975 237.56 247.578 236.167 247.578 234.449C247.578 232.731 248.975 231.339 250.698 231.339C252.421 231.339 253.818 232.731 253.818 234.449C253.818 236.167 252.421 237.56 250.698 237.56Z" fill="#111E47"/>
<path d="M249.964 251.648H261.342C262.443 251.648 263.361 250.733 263.361 249.636C263.361 248.538 262.443 247.623 261.342 247.623H249.964C248.863 247.623 247.945 248.538 247.945 249.636C247.945 250.733 248.863 251.648 249.964 251.648Z" fill="#111E47"/>
<path d="M249.964 245.427H261.342C262.443 245.427 263.361 244.512 263.361 243.415C263.361 242.317 262.443 241.402 261.342 241.402H249.964C248.863 241.402 247.945 242.317 247.945 243.415C247.945 244.512 248.863 245.427 249.964 245.427Z" fill="#111E47"/>
<path d="M261.709 256.771C260.898 256.771 260.241 256.116 260.241 255.307C260.241 254.499 260.898 253.844 261.709 253.844C262.52 253.844 263.177 254.499 263.177 255.307C263.177 256.116 262.52 256.771 261.709 256.771Z" fill="#28D799"/>
<path d="M256.754 256.771C255.943 256.771 255.286 256.116 255.286 255.307C255.286 254.499 255.943 253.844 256.754 253.844C257.565 253.844 258.222 254.499 258.222 255.307C258.222 256.116 257.565 256.771 256.754 256.771Z" fill="#E52866"/>
<path d="M248.312 226.948H250.514V221.459H248.312C247.761 221.459 247.211 222.008 247.211 222.557V225.85C247.211 226.582 247.761 226.948 248.312 226.948Z" fill="#111E47"/>
<path d="M248.312 237.194H250.514V231.705H248.312C247.761 231.705 247.211 232.254 247.211 232.803V236.096C247.211 236.828 247.761 237.194 248.312 237.194Z" fill="#111E47"/>
<path d="M279.144 262.26H386.688C392.561 262.26 397.333 257.503 397.333 251.648V226.033C397.333 220.178 392.561 215.421 386.688 215.421H279.144C273.271 215.421 268.499 220.178 268.499 226.033V251.648C268.499 257.503 273.271 262.26 279.144 262.26Z" fill="#5A66CC"/>
<path d="M279.144 263.907H386.688C393.479 263.907 398.984 258.418 398.984 251.648V226.033C398.984 219.264 393.479 213.775 386.688 213.775H279.144C272.354 213.775 266.848 219.264 266.848 226.033V251.648C266.848 258.418 272.354 263.907 279.144 263.907ZM386.688 217.251C391.643 217.251 395.497 221.276 395.497 226.033V251.648C395.497 256.588 391.46 260.431 386.688 260.431H279.144C274.189 260.431 270.335 256.405 270.335 251.648V226.033C270.335 221.093 274.372 217.251 279.144 217.251H386.688Z" fill="#203072"/>
<path d="M312.729 228.594H381.917C383.936 228.594 385.587 226.948 385.587 224.935C385.587 222.923 383.936 221.276 381.917 221.276H312.729C310.71 221.276 309.058 222.923 309.058 224.935C309.058 226.948 310.71 228.594 312.729 228.594Z" fill="#28D799"/>
<path d="M283.915 228.594H296.945C298.964 228.594 300.616 226.948 300.616 224.935C300.616 222.923 298.964 221.276 296.945 221.276H283.915C281.896 221.276 280.245 222.923 280.245 224.935C280.245 226.948 281.896 228.594 283.915 228.594Z" fill="#111E47"/>
<path d="M283.915 239.572H296.945C298.964 239.572 300.616 237.926 300.616 235.913C300.616 233.901 298.964 232.254 296.945 232.254H283.915C281.896 232.254 280.245 233.901 280.245 235.913C280.245 237.926 281.896 239.572 283.915 239.572Z" fill="#111E47"/>
<path d="M312.729 239.572H381.917C383.936 239.572 385.587 237.926 385.587 235.913C385.587 233.901 383.936 232.254 381.917 232.254H312.729C310.71 232.254 309.058 233.901 309.058 235.913C309.058 237.926 310.71 239.572 312.729 239.572Z" fill="#28D799"/>
<path d="M312.729 250.367H381.917C383.936 250.367 385.587 248.721 385.587 246.708C385.587 244.696 383.936 243.049 381.917 243.049H312.729C310.71 243.049 309.058 244.696 309.058 246.708C309.058 248.721 310.71 250.367 312.729 250.367Z" fill="#28D799"/>
<path d="M303.736 261.162H362.096C362.096 257.869 359.527 255.308 356.223 255.308H309.609C306.305 255.308 303.736 258.052 303.736 261.162Z" fill="#203072"/>
<path d="M283.915 250.367C281.888 250.367 280.245 248.729 280.245 246.708C280.245 244.687 281.888 243.049 283.915 243.049C285.943 243.049 287.586 244.687 287.586 246.708C287.586 248.729 285.943 250.367 283.915 250.367Z" fill="#111E47"/>
<path d="M296.945 250.367C294.918 250.367 293.275 248.729 293.275 246.708C293.275 244.687 294.918 243.049 296.945 243.049C298.972 243.049 300.616 244.687 300.616 246.708C300.616 248.729 298.972 250.367 296.945 250.367Z" fill="#28D799"/>
<path d="M253.634 323.004H361.178C367.051 323.004 371.823 318.247 371.823 312.392V286.777C371.823 280.923 367.051 276.166 361.178 276.166H253.634C247.761 276.166 242.99 280.923 242.99 286.777V312.392C243.173 318.247 247.945 323.004 253.634 323.004Z" fill="#3041A5"/>
<path d="M252.717 324.651H360.261C367.051 324.651 372.557 319.162 372.557 312.392V286.777C372.557 280.008 367.051 274.519 360.261 274.519H252.717C245.926 274.519 240.421 280.008 240.421 286.777V312.392C240.421 319.162 245.926 324.651 252.717 324.651ZM360.261 277.995C365.216 277.995 369.07 282.02 369.07 286.777V312.392C369.07 317.332 365.033 321.175 360.261 321.175H252.717C247.762 321.175 243.908 317.15 243.908 312.392V286.777C243.908 281.837 247.945 277.995 252.717 277.995H360.261Z" fill="#203072"/>
<path d="M260.241 288.241C258.518 288.241 257.121 286.849 257.121 285.131C257.121 283.413 258.518 282.021 260.241 282.021C261.964 282.021 263.361 283.413 263.361 285.131C263.361 286.849 261.964 288.241 260.241 288.241Z" fill="#111E47"/>
<path d="M250.698 288.242C248.975 288.242 247.578 286.849 247.578 285.131C247.578 283.413 248.975 282.021 250.698 282.021C252.421 282.021 253.818 283.413 253.818 285.131C253.818 286.849 252.421 288.242 250.698 288.242Z" fill="#111E47"/>
<path d="M260.241 298.305C258.518 298.305 257.121 296.912 257.121 295.194C257.121 293.476 258.518 292.084 260.241 292.084C261.964 292.084 263.361 293.476 263.361 295.194C263.361 296.912 261.964 298.305 260.241 298.305Z" fill="#111E47"/>
<path d="M250.698 298.305C248.975 298.305 247.578 296.912 247.578 295.194C247.578 293.476 248.975 292.084 250.698 292.084C252.421 292.084 253.818 293.476 253.818 295.194C253.818 296.912 252.421 298.305 250.698 298.305Z" fill="#111E47"/>
<path d="M249.964 312.21H261.342C262.443 312.21 263.361 311.295 263.361 310.197C263.361 309.099 262.443 308.184 261.342 308.184H249.964C248.863 308.184 247.945 309.099 247.945 310.197C247.945 311.478 248.863 312.21 249.964 312.21Z" fill="#111E47"/>
<path d="M249.964 306.172H261.342C262.443 306.172 263.361 305.257 263.361 304.159C263.361 303.061 262.443 302.146 261.342 302.146H249.964C248.863 302.146 247.945 303.061 247.945 304.159C247.945 305.257 248.863 306.172 249.964 306.172Z" fill="#111E47"/>
<path d="M261.709 317.332C260.898 317.332 260.241 316.677 260.241 315.869C260.241 315.06 260.898 314.405 261.709 314.405C262.52 314.405 263.177 315.06 263.177 315.869C263.177 316.677 262.52 317.332 261.709 317.332Z" fill="#28D799"/>
<path d="M256.754 317.332C255.943 317.332 255.286 316.677 255.286 315.869C255.286 315.06 255.943 314.405 256.754 314.405C257.565 314.405 258.222 315.06 258.222 315.869C258.222 316.677 257.565 317.332 256.754 317.332Z" fill="#FF8F00"/>
<path d="M257.855 287.693H260.058V282.204H257.855C257.305 282.204 256.754 282.753 256.754 283.301V286.595C256.754 287.327 257.121 287.693 257.855 287.693Z" fill="#111E47"/>
<path d="M279.144 323.004H386.688C392.561 323.004 397.333 318.247 397.333 312.392V286.777C397.333 280.923 392.561 276.166 386.688 276.166H279.144C273.271 276.166 268.499 280.923 268.499 286.777V312.392C268.499 318.247 273.271 323.004 279.144 323.004Z" fill="#5A66CC"/>
<path d="M279.144 324.651H386.688C393.479 324.651 398.984 319.162 398.984 312.392V286.777C398.984 280.008 393.479 274.519 386.688 274.519H279.144C272.354 274.519 266.848 280.008 266.848 286.777V312.392C266.848 319.162 272.354 324.651 279.144 324.651ZM386.688 277.995C391.643 277.995 395.497 282.02 395.497 286.777V312.392C395.497 317.332 391.46 321.175 386.688 321.175H279.144C274.189 321.175 270.335 317.15 270.335 312.392V286.777C270.335 281.837 274.372 277.995 279.144 277.995H386.688Z" fill="#203072"/>
<path d="M312.729 289.339H381.917C383.936 289.339 385.587 287.692 385.587 285.68C385.587 283.667 383.936 282.021 381.917 282.021H312.729C310.71 282.021 309.058 283.667 309.058 285.68C309.058 287.692 310.71 289.339 312.729 289.339Z" fill="#28D799"/>
<path d="M283.915 289.339H296.945C298.964 289.339 300.616 287.692 300.616 285.68C300.616 283.667 298.964 282.021 296.945 282.021H283.915C281.896 282.021 280.245 283.667 280.245 285.68C280.245 287.692 281.896 289.339 283.915 289.339Z" fill="#111E47"/>
<path d="M283.915 300.134H296.945C298.964 300.134 300.616 298.487 300.616 296.474C300.616 294.462 298.964 292.815 296.945 292.815H283.915C281.896 292.815 280.245 294.462 280.245 296.474C280.245 298.67 281.896 300.134 283.915 300.134Z" fill="#28D799"/>
<path d="M312.729 300.134H381.917C383.936 300.134 385.587 298.487 385.587 296.474C385.587 294.462 383.936 292.815 381.917 292.815H312.729C310.71 292.815 309.058 294.462 309.058 296.474C309.058 298.67 310.71 300.134 312.729 300.134Z" fill="#28D799"/>
<path d="M312.729 311.112H381.917C383.936 311.112 385.587 309.465 385.587 307.453C385.587 305.44 383.936 303.793 381.917 303.793H312.729C310.71 303.793 309.058 305.44 309.058 307.453C309.058 309.465 310.71 311.112 312.729 311.112Z" fill="#28D799"/>
<path d="M303.736 321.907H362.096C362.096 318.614 359.527 316.052 356.223 316.052H309.609C306.305 316.052 303.736 318.614 303.736 321.907Z" fill="#203072"/>
<path d="M283.915 311.112C281.888 311.112 280.245 309.473 280.245 307.453C280.245 305.432 281.888 303.793 283.915 303.793C285.943 303.793 287.586 305.432 287.586 307.453C287.586 309.473 285.943 311.112 283.915 311.112Z" fill="#FF8F00"/>
<path d="M296.945 311.112C294.918 311.112 293.275 309.473 293.275 307.453C293.275 305.432 294.918 303.793 296.945 303.793C298.972 303.793 300.616 305.432 300.616 307.453C300.616 309.473 298.972 311.112 296.945 311.112Z" fill="#111E47"/>
<path d="M250.698 165.289V161.813C249.964 161.813 249.23 161.813 248.495 161.813C240.971 161.447 222.435 158.702 215.278 142.967C212.525 136.93 211.24 127.598 214.544 120.463C221.151 106.558 243.173 113.51 247.394 114.974L248.495 111.863C234.548 106.923 217.48 106.375 211.424 119.182C208.12 126.318 208.304 136.381 212.158 144.614C217.847 156.873 230.877 164.374 248.312 165.472C249.046 165.289 249.78 165.289 250.698 165.289Z" fill="#28D799"/>
<path d="M249.597 226.399L250.331 223.106C246.11 222.191 242.256 220.361 238.769 217.983C232.713 213.775 227.941 207.737 225.372 200.967C222.986 194.563 222.252 185.781 227.574 180.109C230.143 177.182 233.814 175.901 236.567 175.352C242.623 174.071 249.964 174.071 257.855 175.352L258.406 172.059C249.964 170.595 242.439 170.595 235.832 172.059C231.428 172.974 227.757 174.986 225.188 177.731C218.948 184.5 219.499 194.746 222.252 202.065C225.005 209.566 230.327 216.153 236.934 220.727C240.788 223.289 245.009 225.301 249.597 226.399Z" fill="#3041A5"/>
<path d="M260.241 286.778L260.424 283.301C252.716 282.752 244.641 281.472 239.503 275.434C236.75 272.323 234.915 268.115 233.997 262.992C232.896 257.137 231.978 248.538 235.465 242.866C238.218 238.475 243.357 235.913 249.229 236.096L249.413 232.62C242.256 232.254 235.832 235.365 232.529 241.036C228.491 247.806 229.592 257.137 230.694 263.541C231.611 269.396 233.813 274.153 236.933 277.629C242.99 284.765 252.166 286.229 260.241 286.778Z" fill="#3041A5"/>
<path d="M247.762 115.889H249.964V110.4H247.762C247.211 110.4 246.66 110.949 246.66 111.498V114.791C246.66 115.34 247.211 115.889 247.762 115.889Z" fill="#111E47"/>
<path d="M247.762 166.387H249.964V160.898H247.762C247.211 160.898 246.66 161.447 246.66 161.995V165.289C246.844 165.838 247.211 166.387 247.762 166.387Z" fill="#111E47"/>
<path d="M249.046 161.63H251.799V165.472H249.046V161.63Z" fill="#111E47"/>
<path d="M257.488 176.45H259.69V170.961H257.488C256.938 170.961 256.387 171.51 256.387 172.059V175.352C256.387 176.084 256.938 176.45 257.488 176.45Z" fill="#111E47"/>
<path d="M258.589 171.876H261.342V175.718H258.589V171.876Z" fill="#111E47"/>
<path d="M248.312 226.948H250.514V221.459H248.312C247.761 221.459 247.211 222.008 247.211 222.557V225.85C247.211 226.399 247.761 226.948 248.312 226.948Z" fill="#111E47"/>
<path d="M249.413 222.374H252.166V226.216H249.413V222.374Z" fill="#111E47"/>
<path d="M248.312 237.194H250.514V231.705H248.312C247.761 231.705 247.211 232.254 247.211 232.803V236.096C247.211 236.828 247.761 237.194 248.312 237.194Z" fill="#111E47"/>
<path d="M257.672 287.692H259.874V282.203H257.672C257.121 282.203 256.571 282.752 256.571 283.301V286.595C256.754 287.143 257.121 287.692 257.672 287.692Z" fill="#111E47"/>
<path d="M249.413 232.62H252.166V236.462H249.413V232.62Z" fill="#111E47"/>
<path d="M258.956 283.118H260.975V287.143H258.956V283.118Z" fill="#111E47"/>
<g clip-path="url(#clip0)">
<path d="M36.0489 213.221C34.8684 213.221 33.5972 212.676 32.6892 211.768C11.6228 188.622 0 158.668 0 127.261C0 115.189 1.72526 103.298 5.08498 91.8608C5.81141 89.5007 8.3539 88.1392 10.7148 88.7746C13.0757 89.5007 14.4377 92.0423 13.8021 94.4023C10.624 105.022 9.08032 116.096 9.08032 127.261C9.08032 156.308 19.8859 184.174 39.4086 205.596C41.1339 207.411 40.9523 210.316 39.1362 211.95C38.2282 212.858 37.1385 213.221 36.0489 213.221Z" fill="#DCE0FF"/>
<path d="M125.308 252.615C105.513 252.615 86.5355 248.076 68.9197 239.272C66.6496 238.183 65.8324 235.459 66.922 233.19C68.0116 230.921 70.7357 230.104 73.0058 231.193C89.2596 239.453 106.875 243.538 125.308 243.538C189.416 243.538 241.627 191.345 241.627 127.261C241.627 115.824 239.993 104.478 236.724 93.6761C235.998 91.3161 237.36 88.7745 239.721 88.0484C242.081 87.3222 244.624 88.6838 245.35 91.0438C248.892 102.753 250.708 114.916 250.708 127.261C250.708 196.428 194.41 252.615 125.308 252.615Z" fill="#DCE0FF"/>
<path d="M30.6917 56.8233C29.6928 56.8233 28.694 56.4603 27.8768 55.8249C25.8791 54.2818 25.6067 51.3771 27.1503 49.4709C51.1224 19.3352 86.8989 1.99805 125.309 1.99805C160.903 1.99805 194.955 17.2475 218.745 43.7524C220.38 45.6586 220.289 48.4725 218.382 50.1063C216.475 51.7402 213.66 51.6494 212.026 49.7432C189.961 25.1445 158.361 11.0751 125.309 11.0751C89.7138 11.0751 56.4798 27.0507 34.233 55.0079C33.325 56.1879 32.0537 56.8233 30.6917 56.8233Z" fill="#DCE0FF"/>
<path d="M125.308 232.464C67.2851 232.464 20.0674 185.263 20.0674 127.261C20.0674 69.2587 67.2851 22.1489 125.308 22.1489C129.485 22.1489 133.753 22.4212 137.839 22.8751C140.291 23.1474 142.107 25.4167 141.834 27.8675C141.562 30.3183 139.292 32.1337 136.84 31.8614C133.117 31.4075 129.213 31.226 125.399 31.226C72.2792 31.1352 29.2385 74.2511 29.2385 127.261C29.2385 180.271 72.37 223.387 125.399 223.387C127.851 223.387 129.939 225.384 129.939 227.925C129.848 230.467 127.851 232.464 125.308 232.464Z" fill="#DCE0FF"/>
<path d="M167.259 223.387C165.534 223.387 163.9 222.388 163.173 220.754C162.174 218.485 163.082 215.762 165.353 214.764C199.404 199.151 221.469 164.84 221.469 127.352C221.469 93.1313 203.036 61.2709 173.343 44.0246C171.164 42.7538 170.438 40.0307 171.709 37.8522C172.98 35.6737 175.704 34.9475 177.883 36.2183C210.391 55.0078 230.549 89.8636 230.549 127.352C230.549 168.38 206.486 205.868 169.166 223.024C168.531 223.205 167.895 223.387 167.259 223.387Z" fill="#DCE0FF"/>
<path d="M67.4666 187.805C66.2861 187.805 65.1057 187.351 64.1976 186.443C48.7611 170.468 40.3164 149.5 40.3164 127.352C40.3164 124.901 42.3141 122.813 44.8566 122.813C47.3083 122.813 49.3967 124.81 49.3967 127.352C49.3967 147.14 56.9334 165.929 70.7355 180.18C72.4607 181.996 72.4607 184.81 70.6447 186.534C69.7366 187.351 68.5562 187.805 67.4666 187.805Z" fill="#DCE0FF"/>
<path d="M125.308 212.313C113.413 212.313 101.972 209.953 91.2571 205.233C88.987 204.234 87.8974 201.602 88.8962 199.242C89.895 196.973 92.5283 195.884 94.8892 196.882C104.514 201.057 114.775 203.236 125.308 203.236C147.918 203.236 169.166 193.251 183.695 175.914C185.329 174.008 188.144 173.736 190.051 175.369C191.958 177.003 192.23 179.817 190.596 181.723C174.433 201.239 150.642 212.313 125.308 212.313Z" fill="#DCE0FF"/>
<path d="M202.31 155.672C201.856 155.672 201.402 155.582 200.948 155.491C198.587 154.765 197.225 152.223 197.951 149.863C200.221 142.601 201.311 134.977 201.311 127.352C201.311 85.4161 167.169 51.3772 125.309 51.3772C98.6125 51.3772 74.2772 64.9927 60.3843 87.8669C59.1131 89.9546 56.2982 90.6807 54.2097 89.41C52.1212 88.1392 51.3948 85.3253 52.666 83.2376C68.2842 57.7311 95.4344 42.4817 125.309 42.4817C172.254 42.4817 210.391 80.6052 210.391 127.533C210.391 136.157 209.12 144.598 206.577 152.768C206.033 154.492 204.217 155.672 202.31 155.672Z" fill="#DCE0FF"/>
<path d="M125.308 66.8989C91.9837 66.8989 64.9243 93.9485 64.9243 127.261C64.9243 160.574 91.9837 187.623 125.308 187.623C158.633 187.623 185.693 160.574 185.693 127.261C185.783 93.9485 158.724 66.8989 125.308 66.8989ZM136.114 135.158V151.043C136.114 156.943 131.301 161.845 125.308 161.845C119.315 161.845 114.503 157.034 114.503 151.043V135.158C107.42 131.346 102.698 123.903 102.698 115.28C102.698 102.753 112.778 92.6777 125.308 92.6777C137.839 92.6777 147.918 102.753 147.918 115.28C148.009 123.903 143.197 131.346 136.114 135.158Z" fill="#DCE0FF"/>
</g>
<path d="M240.927 117.353H102.367V321.907H240.927V117.353Z" fill="#203072"/>
<path d="M237.807 140.955H130.263C124.39 140.955 119.619 136.198 119.619 130.343V104.728C119.619 98.873 124.39 94.116 130.263 94.116H237.807C243.68 94.116 248.452 98.873 248.452 104.728V130.343C248.268 136.198 243.497 140.955 237.807 140.955Z" fill="#3041A5"/>
<path d="M238.725 142.601H131.18C124.39 142.601 118.884 137.113 118.884 130.343V104.728C118.884 97.9582 124.39 92.4692 131.18 92.4692H238.725C245.515 92.4692 251.021 97.9582 251.021 104.728V130.343C251.021 137.113 245.515 142.601 238.725 142.601ZM131.18 95.7626C126.225 95.7626 122.371 99.7878 122.371 104.545V130.16C122.371 135.1 126.409 138.942 131.18 138.942H238.725C243.68 138.942 247.534 134.917 247.534 130.16V104.545C247.534 99.6049 243.496 95.7626 238.725 95.7626H131.18Z" fill="#203072"/>
<path d="M231.201 106.009C232.924 106.009 234.321 104.617 234.321 102.899C234.321 101.181 232.924 99.7886 231.201 99.7886C229.478 99.7886 228.081 101.181 228.081 102.899C228.081 104.617 229.478 106.009 231.201 106.009Z" fill="#111E47"/>
<path d="M240.743 106.009C242.467 106.009 243.863 104.616 243.863 102.898C243.863 101.18 242.467 99.7878 240.743 99.7878C239.02 99.7878 237.624 101.18 237.624 102.898C237.624 104.616 239.02 106.009 240.743 106.009Z" fill="#111E47"/>
<path d="M231.2 116.072C232.924 116.072 234.32 114.679 234.32 112.961C234.32 111.244 232.924 109.851 231.2 109.851C229.477 109.851 228.081 111.244 228.081 112.961C228.081 114.679 229.477 116.072 231.2 116.072Z" fill="#111E47"/>
<path d="M240.743 116.072C242.467 116.072 243.863 114.679 243.863 112.961C243.863 111.244 242.467 109.851 240.743 109.851C239.02 109.851 237.624 111.244 237.624 112.961C237.624 114.679 239.02 116.072 240.743 116.072Z" fill="#111E47"/>
<path d="M241.478 130.16H230.099C228.998 130.16 228.081 129.245 228.081 128.147C228.081 127.05 228.998 126.135 230.099 126.135H241.478C242.579 126.135 243.496 127.05 243.496 128.147C243.496 129.245 242.579 130.16 241.478 130.16Z" fill="#111E47"/>
<path d="M241.478 123.939H230.099C228.998 123.939 228.081 123.024 228.081 121.926C228.081 120.829 228.998 119.914 230.099 119.914H241.478C242.579 119.914 243.496 120.829 243.496 121.926C243.496 123.024 242.579 123.939 241.478 123.939Z" fill="#111E47"/>
<path d="M229.732 135.283C230.543 135.283 231.201 134.628 231.201 133.819C231.201 133.011 230.543 132.355 229.732 132.355C228.921 132.355 228.264 133.011 228.264 133.819C228.264 134.628 228.921 135.283 229.732 135.283Z" fill="#28D799"/>
<path d="M234.687 135.283C235.498 135.283 236.156 134.628 236.156 133.819C236.156 133.011 235.498 132.356 234.687 132.356C233.877 132.356 233.219 133.011 233.219 133.819C233.219 134.628 233.877 135.283 234.687 135.283Z" fill="#E52866"/>
<path d="M243.68 115.706H241.478V110.217H243.68C244.23 110.217 244.781 110.766 244.781 111.315V114.608C244.597 115.34 244.23 115.706 243.68 115.706Z" fill="#111E47"/>
<path d="M212.298 140.955H104.753C98.8805 140.955 94.1089 136.198 94.1089 130.343V104.728C94.1089 98.873 98.8805 94.116 104.753 94.116H212.298C218.17 94.116 222.942 98.873 222.942 104.728V130.343C222.942 136.198 218.17 140.955 212.298 140.955Z" fill="#5A66CC"/>
<path d="M212.298 142.602H104.753C97.9627 142.602 92.457 137.113 92.457 130.343V104.728C92.457 97.9584 97.9627 92.4695 104.753 92.4695H212.298C219.088 92.4695 224.594 97.9584 224.594 104.728V130.343C224.594 137.113 219.088 142.602 212.298 142.602ZM104.753 95.7628C99.7979 95.7628 95.944 99.7881 95.944 104.545V130.16C95.944 135.1 99.9815 138.942 104.753 138.942H212.298C217.253 138.942 221.107 134.917 221.107 130.16V104.545C221.107 99.6051 217.069 95.7628 212.298 95.7628H104.753Z" fill="#203072"/>
<path d="M178.713 107.29H109.524C107.506 107.29 105.854 105.643 105.854 103.63C105.854 101.618 107.506 99.9709 109.524 99.9709H178.713C180.731 99.9709 182.383 101.618 182.383 103.63C182.383 105.643 180.731 107.29 178.713 107.29Z" fill="#28D799"/>
<path d="M207.526 107.29H194.496C192.477 107.29 190.825 105.643 190.825 103.63C190.825 101.618 192.477 99.9709 194.496 99.9709H207.526C209.545 99.9709 211.196 101.618 211.196 103.63C211.196 105.643 209.545 107.29 207.526 107.29Z" fill="#111E47"/>
<path d="M207.526 118.084H194.496C192.477 118.084 190.825 116.438 190.825 114.425C190.825 112.412 192.477 110.766 194.496 110.766H207.526C209.545 110.766 211.196 112.412 211.196 114.425C211.196 116.438 209.545 118.084 207.526 118.084Z" fill="#111E47"/>
<path d="M178.713 118.084H109.524C107.506 118.084 105.854 116.438 105.854 114.425C105.854 112.412 107.506 110.766 109.524 110.766H178.713C180.731 110.766 182.383 112.412 182.383 114.425C182.383 116.438 180.731 118.084 178.713 118.084Z" fill="#28D799"/>
<path d="M178.713 128.879H109.524C107.506 128.879 105.854 127.232 105.854 125.22C105.854 123.207 107.506 121.561 109.524 121.561H178.713C180.731 121.561 182.383 123.207 182.383 125.22C182.383 127.232 180.731 128.879 178.713 128.879Z" fill="#28D799"/>
<path d="M178.713 128.879H157.057C155.038 128.879 153.387 127.232 153.387 125.22C153.387 123.207 155.038 121.561 157.057 121.561H178.713C180.732 121.561 182.383 123.207 182.383 125.22C182.383 127.232 180.732 128.879 178.713 128.879Z" fill="#FF8F00"/>
<path d="M187.706 139.857H129.345C129.345 136.563 131.915 134.002 135.218 134.002H181.833C185.136 134.002 187.706 136.563 187.706 139.857Z" fill="#203072"/>
<path d="M207.526 129.062C209.553 129.062 211.196 127.424 211.196 125.403C211.196 123.382 209.553 121.744 207.526 121.744C205.499 121.744 203.855 123.382 203.855 125.403C203.855 127.424 205.499 129.062 207.526 129.062Z" fill="#28D799"/>
<path d="M194.496 129.062C196.523 129.062 198.166 127.424 198.166 125.403C198.166 123.382 196.523 121.744 194.496 121.744C192.469 121.744 190.825 123.382 190.825 125.403C190.825 127.424 192.469 129.062 194.496 129.062Z" fill="#111E47"/>
<path d="M237.807 201.516H130.263C124.39 201.516 119.619 196.759 119.619 190.904V165.289C119.619 159.434 124.39 154.677 130.263 154.677H237.807C243.68 154.677 248.452 159.434 248.452 165.289V190.904C248.268 196.942 243.497 201.516 237.807 201.516Z" fill="#3041A5"/>
<path d="M238.725 203.346H131.18C124.39 203.346 118.884 197.857 118.884 191.087V165.472C118.884 158.702 124.39 153.213 131.18 153.213H238.725C245.515 153.213 251.021 158.702 251.021 165.472V191.087C251.021 197.857 245.515 203.346 238.725 203.346ZM131.18 156.507C126.225 156.507 122.371 160.532 122.371 165.289V190.904C122.371 195.844 126.409 199.686 131.18 199.686H238.725C243.68 199.686 247.534 195.661 247.534 190.904V165.289C247.534 160.349 243.496 156.507 238.725 156.507H131.18Z" fill="#203072"/>
<path d="M231.2 166.753C232.924 166.753 234.32 165.36 234.32 163.642C234.32 161.925 232.924 160.532 231.2 160.532C229.477 160.532 228.081 161.925 228.081 163.642C228.081 165.36 229.477 166.753 231.2 166.753Z" fill="#111E47"/>
<path d="M240.743 166.753C242.467 166.753 243.863 165.36 243.863 163.642C243.863 161.925 242.467 160.532 240.743 160.532C239.02 160.532 237.624 161.925 237.624 163.642C237.624 165.36 239.02 166.753 240.743 166.753Z" fill="#111E47"/>
<path d="M231.2 176.816C232.924 176.816 234.32 175.423 234.32 173.705C234.32 171.988 232.924 170.595 231.2 170.595C229.477 170.595 228.081 171.988 228.081 173.705C228.081 175.423 229.477 176.816 231.2 176.816Z" fill="#111E47"/>
<path d="M240.743 176.816C242.467 176.816 243.863 175.423 243.863 173.705C243.863 171.988 242.467 170.595 240.743 170.595C239.02 170.595 237.624 171.988 237.624 173.705C237.624 175.423 239.02 176.816 240.743 176.816Z" fill="#111E47"/>
<path d="M241.478 190.904H230.099C228.998 190.904 228.081 189.989 228.081 188.891C228.081 187.793 228.998 186.879 230.099 186.879H241.478C242.579 186.879 243.496 187.793 243.496 188.891C243.496 189.989 242.579 190.904 241.478 190.904Z" fill="#111E47"/>
<path d="M241.478 184.683H230.099C228.998 184.683 228.081 183.768 228.081 182.671C228.081 181.573 228.998 180.658 230.099 180.658H241.478C242.579 180.658 243.496 181.573 243.496 182.671C243.496 183.768 242.579 184.683 241.478 184.683Z" fill="#111E47"/>
<path d="M229.732 196.027C230.543 196.027 231.201 195.372 231.201 194.564C231.201 193.755 230.543 193.1 229.732 193.1C228.921 193.1 228.264 193.755 228.264 194.564C228.264 195.372 228.921 196.027 229.732 196.027Z" fill="#111E47"/>
<path d="M234.687 196.027C235.498 196.027 236.156 195.372 236.156 194.564C236.156 193.755 235.498 193.1 234.687 193.1C233.877 193.1 233.219 193.755 233.219 194.564C233.219 195.372 233.877 196.027 234.687 196.027Z" fill="#111E47"/>
<path d="M233.953 176.45H231.751V170.961H233.953C234.504 170.961 235.054 171.51 235.054 172.059V175.352C235.054 175.901 234.504 176.45 233.953 176.45Z" fill="#111E47"/>
<path d="M243.497 166.204H241.294V160.715H243.497C244.047 160.715 244.598 161.264 244.598 161.813V165.106C244.598 165.838 244.231 166.204 243.497 166.204Z" fill="#111E47"/>
<path d="M212.298 201.516H104.753C98.8805 201.516 94.1089 196.759 94.1089 190.904V165.289C94.1089 159.434 98.8805 154.677 104.753 154.677H212.298C218.17 154.677 222.942 159.434 222.942 165.289V190.904C222.942 196.942 218.17 201.516 212.298 201.516Z" fill="#5A66CC"/>
<path d="M212.298 203.346H104.753C97.9627 203.346 92.457 197.857 92.457 191.087V165.472C92.457 158.702 97.9627 153.213 104.753 153.213H212.298C219.088 153.213 224.594 158.702 224.594 165.472V191.087C224.594 197.857 219.088 203.346 212.298 203.346ZM104.753 156.507C99.7979 156.507 95.944 160.532 95.944 165.289V190.904C95.944 195.844 99.9815 199.686 104.753 199.686H212.298C217.253 199.686 221.107 195.661 221.107 190.904V165.289C221.107 160.349 217.069 156.507 212.298 156.507H104.753Z" fill="#203072"/>
<path d="M178.713 167.851H109.525C107.506 167.851 105.854 166.204 105.854 164.191C105.854 162.179 107.506 160.532 109.525 160.532H178.713C180.732 160.532 182.384 162.179 182.384 164.191C182.384 166.387 180.732 167.851 178.713 167.851Z" fill="#28D799"/>
<path d="M207.526 167.851H194.496C192.477 167.851 190.826 166.204 190.826 164.191C190.826 162.179 192.477 160.532 194.496 160.532H207.526C209.545 160.532 211.197 162.179 211.197 164.191C211.197 166.387 209.545 167.851 207.526 167.851Z" fill="#28D799"/>
<path d="M207.526 178.828H194.496C192.477 178.828 190.826 177.182 190.826 175.169C190.826 173.156 192.477 171.51 194.496 171.51H207.526C209.545 171.51 211.197 173.156 211.197 175.169C211.197 177.182 209.545 178.828 207.526 178.828Z" fill="#111E47"/>
<path d="M178.713 178.828H109.525C107.506 178.828 105.854 177.182 105.854 175.169C105.854 173.156 107.506 171.51 109.525 171.51H178.713C180.732 171.51 182.384 173.156 182.384 175.169C182.384 177.182 180.732 178.828 178.713 178.828Z" fill="#28D799"/>
<path d="M178.713 189.623H109.525C107.506 189.623 105.854 187.977 105.854 185.964C105.854 183.951 107.506 182.305 109.525 182.305H178.713C180.732 182.305 182.384 183.951 182.384 185.964C182.384 187.977 180.732 189.623 178.713 189.623Z" fill="#28D799"/>
<path d="M187.706 200.418H129.345C129.345 197.125 131.915 194.563 135.218 194.563H181.833C185.136 194.563 187.706 197.308 187.706 200.418Z" fill="#203072"/>
<path d="M207.526 189.623C209.553 189.623 211.196 187.985 211.196 185.964C211.196 183.943 209.553 182.305 207.526 182.305C205.499 182.305 203.855 183.943 203.855 185.964C203.855 187.985 205.499 189.623 207.526 189.623Z" fill="#28D799"/>
<path d="M194.496 189.623C196.523 189.623 198.167 187.985 198.167 185.964C198.167 183.943 196.523 182.305 194.496 182.305C192.469 182.305 190.826 183.943 190.826 185.964C190.826 187.985 192.469 189.623 194.496 189.623Z" fill="#FF8F00"/>
<path d="M237.807 262.26H130.263C124.39 262.26 119.619 257.503 119.619 251.648V226.033C119.619 220.178 124.39 215.421 130.263 215.421H237.807C243.68 215.421 248.452 220.178 248.452 226.033V251.648C248.268 257.503 243.497 262.26 237.807 262.26Z" fill="#3041A5"/>
<path d="M238.725 263.907H131.18C124.39 263.907 118.884 258.418 118.884 251.648V226.033C118.884 219.264 124.39 213.775 131.18 213.775H238.725C245.515 213.775 251.021 219.264 251.021 226.033V251.648C251.021 258.418 245.515 263.907 238.725 263.907ZM131.18 217.251C126.225 217.251 122.371 221.276 122.371 226.033V251.648C122.371 256.588 126.409 260.431 131.18 260.431H238.725C243.68 260.431 247.534 256.405 247.534 251.648V226.033C247.534 221.093 243.496 217.251 238.725 217.251H131.18Z" fill="#203072"/>
<path d="M231.2 227.497C232.924 227.497 234.32 226.104 234.32 224.386C234.32 222.668 232.924 221.276 231.2 221.276C229.477 221.276 228.081 222.668 228.081 224.386C228.081 226.104 229.477 227.497 231.2 227.497Z" fill="#111E47"/>
<path d="M240.743 227.497C242.467 227.497 243.863 226.104 243.863 224.386C243.863 222.668 242.467 221.276 240.743 221.276C239.02 221.276 237.624 222.668 237.624 224.386C237.624 226.104 239.02 227.497 240.743 227.497Z" fill="#111E47"/>
<path d="M231.2 237.56C232.924 237.56 234.32 236.167 234.32 234.449C234.32 232.731 232.924 231.339 231.2 231.339C229.477 231.339 228.081 232.731 228.081 234.449C228.081 236.167 229.477 237.56 231.2 237.56Z" fill="#111E47"/>
<path d="M240.743 237.56C242.467 237.56 243.863 236.167 243.863 234.449C243.863 232.731 242.467 231.339 240.743 231.339C239.02 231.339 237.624 232.731 237.624 234.449C237.624 236.167 239.02 237.56 240.743 237.56Z" fill="#111E47"/>
<path d="M241.478 251.648H230.099C228.998 251.648 228.081 250.733 228.081 249.636C228.081 248.538 228.998 247.623 230.099 247.623H241.478C242.579 247.623 243.496 248.538 243.496 249.636C243.496 250.733 242.579 251.648 241.478 251.648Z" fill="#111E47"/>
<path d="M241.478 245.427H230.099C228.998 245.427 228.081 244.512 228.081 243.415C228.081 242.317 228.998 241.402 230.099 241.402H241.478C242.579 241.402 243.496 242.317 243.496 243.415C243.496 244.512 242.579 245.427 241.478 245.427Z" fill="#111E47"/>
<path d="M229.732 256.771C230.543 256.771 231.201 256.116 231.201 255.307C231.201 254.499 230.543 253.844 229.732 253.844C228.921 253.844 228.264 254.499 228.264 255.307C228.264 256.116 228.921 256.771 229.732 256.771Z" fill="#28D799"/>
<path d="M234.687 256.771C235.498 256.771 236.156 256.116 236.156 255.307C236.156 254.499 235.498 253.844 234.687 253.844C233.877 253.844 233.219 254.499 233.219 255.307C233.219 256.116 233.877 256.771 234.687 256.771Z" fill="#E52866"/>
<path d="M243.13 226.948H240.927V221.459H243.13C243.68 221.459 244.231 222.008 244.231 222.557V225.85C244.231 226.582 243.68 226.948 243.13 226.948Z" fill="#111E47"/>
<path d="M243.13 237.194H240.927V231.705H243.13C243.68 231.705 244.231 232.254 244.231 232.803V236.096C244.231 236.828 243.68 237.194 243.13 237.194Z" fill="#111E47"/>
<path d="M212.298 262.26H104.753C98.8805 262.26 94.1089 257.503 94.1089 251.648V226.033C94.1089 220.178 98.8805 215.421 104.753 215.421H212.298C218.17 215.421 222.942 220.178 222.942 226.033V251.648C222.942 257.503 218.17 262.26 212.298 262.26Z" fill="#5A66CC"/>
<path d="M212.298 263.907H104.753C97.9627 263.907 92.457 258.418 92.457 251.648V226.033C92.457 219.264 97.9627 213.775 104.753 213.775H212.298C219.088 213.775 224.594 219.264 224.594 226.033V251.648C224.594 258.418 219.088 263.907 212.298 263.907ZM104.753 217.251C99.7979 217.251 95.944 221.276 95.944 226.033V251.648C95.944 256.588 99.9815 260.431 104.753 260.431H212.298C217.253 260.431 221.107 256.405 221.107 251.648V226.033C221.107 221.093 217.069 217.251 212.298 217.251H104.753Z" fill="#203072"/>
<path d="M178.713 228.594H109.525C107.506 228.594 105.854 226.948 105.854 224.935C105.854 222.923 107.506 221.276 109.525 221.276H178.713C180.732 221.276 182.384 222.923 182.384 224.935C182.384 226.948 180.732 228.594 178.713 228.594Z" fill="#28D799"/>
<path d="M207.526 228.594H194.496C192.477 228.594 190.826 226.948 190.826 224.935C190.826 222.923 192.477 221.276 194.496 221.276H207.526C209.545 221.276 211.197 222.923 211.197 224.935C211.197 226.948 209.545 228.594 207.526 228.594Z" fill="#111E47"/>
<path d="M207.526 239.572H194.496C192.477 239.572 190.826 237.926 190.826 235.913C190.826 233.901 192.477 232.254 194.496 232.254H207.526C209.545 232.254 211.197 233.901 211.197 235.913C211.197 237.926 209.545 239.572 207.526 239.572Z" fill="#111E47"/>
<path d="M178.713 239.572H109.525C107.506 239.572 105.854 237.926 105.854 235.913C105.854 233.901 107.506 232.254 109.525 232.254H178.713C180.732 232.254 182.384 233.901 182.384 235.913C182.384 237.926 180.732 239.572 178.713 239.572Z" fill="#28D799"/>
<path d="M178.713 250.367H109.525C107.506 250.367 105.854 248.721 105.854 246.708C105.854 244.696 107.506 243.049 109.525 243.049H178.713C180.732 243.049 182.384 244.696 182.384 246.708C182.384 248.721 180.732 250.367 178.713 250.367Z" fill="#28D799"/>
<path d="M187.706 261.162H129.345C129.345 257.869 131.915 255.308 135.218 255.308H181.833C185.136 255.308 187.706 258.052 187.706 261.162Z" fill="#203072"/>
<path d="M207.526 250.367C209.553 250.367 211.196 248.729 211.196 246.708C211.196 244.687 209.553 243.049 207.526 243.049C205.499 243.049 203.855 244.687 203.855 246.708C203.855 248.729 205.499 250.367 207.526 250.367Z" fill="#111E47"/>
<path d="M194.496 250.367C196.523 250.367 198.167 248.729 198.167 246.708C198.167 244.687 196.523 243.049 194.496 243.049C192.469 243.049 190.826 244.687 190.826 246.708C190.826 248.729 192.469 250.367 194.496 250.367Z" fill="#28D799"/>
<path d="M237.807 323.004H130.263C124.39 323.004 119.619 318.247 119.619 312.392V286.777C119.619 280.923 124.39 276.166 130.263 276.166H237.807C243.68 276.166 248.452 280.923 248.452 286.777V312.392C248.268 318.247 243.497 323.004 237.807 323.004Z" fill="#3041A5"/>
<path d="M238.725 324.651H131.18C124.39 324.651 118.884 319.162 118.884 312.392V286.777C118.884 280.008 124.39 274.519 131.18 274.519H238.725C245.515 274.519 251.021 280.008 251.021 286.777V312.392C251.021 319.162 245.515 324.651 238.725 324.651ZM131.18 277.995C126.225 277.995 122.371 282.02 122.371 286.777V312.392C122.371 317.332 126.409 321.175 131.18 321.175H238.725C243.68 321.175 247.534 317.15 247.534 312.392V286.777C247.534 281.837 243.496 277.995 238.725 277.995H131.18Z" fill="#203072"/>
<path d="M231.2 288.241C232.924 288.241 234.32 286.849 234.32 285.131C234.32 283.413 232.924 282.021 231.2 282.021C229.477 282.021 228.081 283.413 228.081 285.131C228.081 286.849 229.477 288.241 231.2 288.241Z" fill="#111E47"/>
<path d="M240.743 288.242C242.467 288.242 243.863 286.849 243.863 285.131C243.863 283.413 242.467 282.021 240.743 282.021C239.02 282.021 237.624 283.413 237.624 285.131C237.624 286.849 239.02 288.242 240.743 288.242Z" fill="#111E47"/>
<path d="M231.2 298.305C232.924 298.305 234.32 296.912 234.32 295.194C234.32 293.476 232.924 292.084 231.2 292.084C229.477 292.084 228.081 293.476 228.081 295.194C228.081 296.912 229.477 298.305 231.2 298.305Z" fill="#111E47"/>
<path d="M240.743 298.305C242.467 298.305 243.863 296.912 243.863 295.194C243.863 293.476 242.467 292.084 240.743 292.084C239.02 292.084 237.624 293.476 237.624 295.194C237.624 296.912 239.02 298.305 240.743 298.305Z" fill="#111E47"/>
<path d="M241.478 312.21H230.099C228.998 312.21 228.081 311.295 228.081 310.197C228.081 309.099 228.998 308.184 230.099 308.184H241.478C242.579 308.184 243.496 309.099 243.496 310.197C243.496 311.478 242.579 312.21 241.478 312.21Z" fill="#111E47"/>
<path d="M241.478 306.172H230.099C228.998 306.172 228.081 305.257 228.081 304.159C228.081 303.061 228.998 302.146 230.099 302.146H241.478C242.579 302.146 243.496 303.061 243.496 304.159C243.496 305.257 242.579 306.172 241.478 306.172Z" fill="#111E47"/>
<path d="M229.732 317.332C230.543 317.332 231.201 316.677 231.201 315.869C231.201 315.06 230.543 314.405 229.732 314.405C228.921 314.405 228.264 315.06 228.264 315.869C228.264 316.677 228.921 317.332 229.732 317.332Z" fill="#28D799"/>
<path d="M234.687 317.332C235.498 317.332 236.156 316.677 236.156 315.869C236.156 315.06 235.498 314.405 234.687 314.405C233.877 314.405 233.219 315.06 233.219 315.869C233.219 316.677 233.877 317.332 234.687 317.332Z" fill="#FF8F00"/>
<path d="M233.586 287.693H231.384V282.204H233.586C234.137 282.204 234.687 282.753 234.687 283.301V286.595C234.687 287.327 234.32 287.693 233.586 287.693Z" fill="#111E47"/>
<path d="M212.298 323.004H104.753C98.8805 323.004 94.1089 318.247 94.1089 312.392V286.777C94.1089 280.923 98.8805 276.166 104.753 276.166H212.298C218.17 276.166 222.942 280.923 222.942 286.777V312.392C222.942 318.247 218.17 323.004 212.298 323.004Z" fill="#5A66CC"/>
<path d="M212.298 324.651H104.753C97.9627 324.651 92.457 319.162 92.457 312.392V286.777C92.457 280.008 97.9627 274.519 104.753 274.519H212.298C219.088 274.519 224.594 280.008 224.594 286.777V312.392C224.594 319.162 219.088 324.651 212.298 324.651ZM104.753 277.995C99.7979 277.995 95.944 282.02 95.944 286.777V312.392C95.944 317.332 99.9815 321.175 104.753 321.175H212.298C217.253 321.175 221.107 317.15 221.107 312.392V286.777C221.107 281.837 217.069 277.995 212.298 277.995H104.753Z" fill="#203072"/>
<path d="M178.713 289.339H109.525C107.506 289.339 105.854 287.692 105.854 285.68C105.854 283.667 107.506 282.021 109.525 282.021H178.713C180.732 282.021 182.384 283.667 182.384 285.68C182.384 287.692 180.732 289.339 178.713 289.339Z" fill="#28D799"/>
<path d="M207.526 289.339H194.496C192.477 289.339 190.826 287.692 190.826 285.68C190.826 283.667 192.477 282.021 194.496 282.021H207.526C209.545 282.021 211.197 283.667 211.197 285.68C211.197 287.692 209.545 289.339 207.526 289.339Z" fill="#111E47"/>
<path d="M207.526 300.134H194.496C192.477 300.134 190.826 298.487 190.826 296.474C190.826 294.462 192.477 292.815 194.496 292.815H207.526C209.545 292.815 211.197 294.462 211.197 296.474C211.197 298.67 209.545 300.134 207.526 300.134Z" fill="#28D799"/>
<path d="M178.713 300.134H109.525C107.506 300.134 105.854 298.487 105.854 296.474C105.854 294.462 107.506 292.815 109.525 292.815H178.713C180.732 292.815 182.384 294.462 182.384 296.474C182.384 298.67 180.732 300.134 178.713 300.134Z" fill="#28D799"/>
<path d="M178.713 311.112H109.525C107.506 311.112 105.854 309.465 105.854 307.453C105.854 305.44 107.506 303.793 109.525 303.793H178.713C180.732 303.793 182.384 305.44 182.384 307.453C182.384 309.465 180.732 311.112 178.713 311.112Z" fill="#28D799"/>
<path d="M187.706 321.907H129.345C129.345 318.614 131.915 316.052 135.218 316.052H181.833C185.136 316.052 187.706 318.614 187.706 321.907Z" fill="#203072"/>
<path d="M207.526 311.112C209.553 311.112 211.196 309.473 211.196 307.453C211.196 305.432 209.553 303.793 207.526 303.793C205.499 303.793 203.855 305.432 203.855 307.453C203.855 309.473 205.499 311.112 207.526 311.112Z" fill="#FF8F00"/>
<path d="M194.496 311.112C196.523 311.112 198.167 309.473 198.167 307.453C198.167 305.432 196.523 303.793 194.496 303.793C192.469 303.793 190.826 305.432 190.826 307.453C190.826 309.473 192.469 311.112 194.496 311.112Z" fill="#111E47"/>
<path d="M240.744 165.289V161.813C241.478 161.813 242.212 161.813 242.946 161.813C250.47 161.447 269.006 158.702 276.164 142.967C278.916 136.93 280.201 127.598 276.898 120.463C270.291 106.558 248.268 113.51 244.047 114.974L242.946 111.863C256.894 106.923 273.961 106.375 280.018 119.182C283.321 126.318 283.137 136.381 279.283 144.614C273.594 156.873 260.564 164.374 243.129 165.472C242.395 165.289 241.661 165.289 240.744 165.289Z" fill="#28D799"/>
<path d="M241.845 226.399L241.111 223.106C245.332 222.191 249.186 220.361 252.673 217.983C258.729 213.775 263.5 207.737 266.07 200.967C268.456 194.563 269.19 185.781 263.868 180.109C261.298 177.182 257.628 175.901 254.875 175.352C248.819 174.071 241.478 174.071 233.586 175.352L233.036 172.059C241.478 170.595 249.002 170.595 255.609 172.059C260.014 172.974 263.684 174.986 266.253 177.731C272.493 184.5 271.943 194.746 269.19 202.065C266.437 209.566 261.115 216.153 254.508 220.727C250.654 223.289 246.433 225.301 241.845 226.399Z" fill="#3041A5"/>
<path d="M231.201 286.778L231.017 283.301C238.725 282.752 246.8 281.472 251.939 275.434C254.692 272.323 256.527 268.115 257.444 262.992C258.546 257.137 259.463 248.538 255.976 242.866C253.223 238.475 248.085 235.913 242.212 236.096L242.028 232.62C249.186 232.254 255.609 235.365 258.913 241.036C262.95 247.806 261.849 257.137 260.748 263.541C259.83 269.396 257.628 274.153 254.508 277.629C248.452 284.765 239.276 286.229 231.201 286.778Z" fill="#3041A5"/>
<path d="M243.68 115.889H241.478V110.4H243.68C244.23 110.4 244.781 110.949 244.781 111.498V114.791C244.781 115.34 244.23 115.889 243.68 115.889Z" fill="#111E47"/>
<path d="M243.68 166.387H241.478V160.898H243.68C244.23 160.898 244.781 161.447 244.781 161.995V165.289C244.597 165.838 244.23 166.387 243.68 166.387Z" fill="#111E47"/>
<path d="M242.395 161.63H239.643V165.472H242.395V161.63Z" fill="#111E47"/>
<path d="M233.953 176.45H231.751V170.961H233.953C234.504 170.961 235.054 171.51 235.054 172.059V175.352C235.054 176.084 234.504 176.45 233.953 176.45Z" fill="#111E47"/>
<path d="M232.852 171.876H230.099V175.718H232.852V171.876Z" fill="#111E47"/>
<path d="M243.13 226.948H240.927V221.459H243.13C243.68 221.459 244.231 222.008 244.231 222.557V225.85C244.231 226.399 243.68 226.948 243.13 226.948Z" fill="#111E47"/>
<path d="M242.028 222.374H239.275V226.216H242.028V222.374Z" fill="#111E47"/>
<path d="M243.13 237.194H240.927V231.705H243.13C243.68 231.705 244.231 232.254 244.231 232.803V236.096C244.231 236.828 243.68 237.194 243.13 237.194Z" fill="#111E47"/>
<path d="M233.77 287.692H231.567V282.203H233.77C234.32 282.203 234.871 282.752 234.871 283.301V286.595C234.687 287.143 234.32 287.692 233.77 287.692Z" fill="#111E47"/>
<path d="M242.028 232.62H239.275V236.462H242.028V232.62Z" fill="#111E47"/>
<path d="M232.485 283.118H230.466V287.143H232.485V283.118Z" fill="#111E47"/>
<path d="M314.887 101.983H166.05V321.541H314.887V101.983Z" fill="#203072"/>
<path d="M311.4 127.233H195.964C189.725 127.233 184.586 122.11 184.586 115.889V88.4441C184.586 82.2233 189.725 77.1003 195.964 77.1003H311.4C317.64 77.1003 322.779 82.2233 322.779 88.4441V116.072C322.779 122.293 317.64 127.233 311.4 127.233Z" fill="#3041A5"/>
<path d="M312.502 129.062H197.066C189.725 129.062 183.852 123.207 183.852 115.889V88.4439C183.852 81.1254 189.725 75.2705 197.066 75.2705H312.502C319.843 75.2705 325.715 81.1254 325.715 88.4439V116.072C325.715 123.207 319.843 129.062 312.502 129.062ZM197.066 78.9298C191.744 78.9298 187.523 83.138 187.523 88.4439V116.072C187.523 121.378 191.744 125.586 197.066 125.586H312.502C317.824 125.586 322.045 121.378 322.045 116.072V88.4439C322.045 83.138 317.824 78.9298 312.502 78.9298H197.066Z" fill="#203072"/>
<path d="M304.426 89.908C306.251 89.908 307.73 88.4335 307.73 86.6146C307.73 84.7958 306.251 83.3213 304.426 83.3213C302.602 83.3213 301.123 84.7958 301.123 86.6146C301.123 88.4335 302.602 89.908 304.426 89.908Z" fill="#111E47"/>
<path d="M314.704 89.9075C316.528 89.9075 318.007 88.433 318.007 86.6142C318.007 84.7953 316.528 83.3208 314.704 83.3208C312.879 83.3208 311.4 84.7953 311.4 86.6142C311.4 88.433 312.879 89.9075 314.704 89.9075Z" fill="#111E47"/>
<path d="M304.426 100.703C306.251 100.703 307.73 99.2282 307.73 97.4093C307.73 95.5905 306.251 94.116 304.426 94.116C302.602 94.116 301.123 95.5905 301.123 97.4093C301.123 99.2282 302.602 100.703 304.426 100.703Z" fill="#111E47"/>
<path d="M314.704 100.703C316.528 100.703 318.007 99.2282 318.007 97.4093C318.007 95.5905 316.528 94.116 314.704 94.116C312.879 94.116 311.4 95.5905 311.4 97.4093C311.4 99.2282 312.879 100.703 314.704 100.703Z" fill="#111E47"/>
<path d="M315.438 115.706H303.142C302.041 115.706 301.123 114.791 301.123 113.693C301.123 112.595 302.041 111.68 303.142 111.68H315.438C316.539 111.68 317.457 112.595 317.457 113.693C317.64 114.791 316.723 115.706 315.438 115.706Z" fill="#111E47"/>
<path d="M315.438 109.119H303.142C302.041 109.119 301.123 108.204 301.123 107.106C301.123 106.009 302.041 105.094 303.142 105.094H315.438C316.539 105.094 317.457 106.009 317.457 107.106C317.64 108.204 316.723 109.119 315.438 109.119Z" fill="#111E47"/>
<path d="M302.775 121.378C303.687 121.378 304.426 120.641 304.426 119.731C304.426 118.822 303.687 118.084 302.775 118.084C301.863 118.084 301.123 118.822 301.123 119.731C301.123 120.641 301.863 121.378 302.775 121.378Z" fill="#28D799"/>
<path d="M308.097 121.378C309.009 121.378 309.749 120.641 309.749 119.731C309.749 118.822 309.009 118.085 308.097 118.085C307.185 118.085 306.445 118.822 306.445 119.731C306.445 120.641 307.185 121.378 308.097 121.378Z" fill="#E52866"/>
<path d="M317.64 100.337H315.254V94.4819H317.64C318.191 94.4819 318.741 95.0308 318.741 95.5797V99.056C318.925 99.7879 318.374 100.337 317.64 100.337Z" fill="#111E47"/>
<path d="M284.056 127.233H168.62C162.38 127.233 157.241 122.11 157.241 115.889V88.4441C157.241 82.2233 162.38 77.1003 168.62 77.1003H284.056C290.295 77.1003 295.434 82.2233 295.434 88.4441V116.072C295.434 122.293 290.295 127.233 284.056 127.233Z" fill="#5A66CC"/>
<path d="M284.055 129.062H168.619C161.278 129.062 155.406 123.207 155.406 115.889V88.4439C155.406 81.1254 161.278 75.2705 168.619 75.2705H284.055C291.396 75.2705 297.269 81.1254 297.269 88.4439V116.072C297.269 123.207 291.396 129.062 284.055 129.062ZM168.619 78.9298C163.297 78.9298 159.076 83.138 159.076 88.4439V116.072C159.076 121.378 163.297 125.586 168.619 125.586H284.055C289.378 125.586 293.599 121.378 293.599 116.072V88.4439C293.599 83.138 289.378 78.9298 284.055 78.9298H168.619Z" fill="#203072"/>
<path d="M248.085 91.1884H173.758C171.556 91.1884 169.904 89.5417 169.904 87.3462C169.904 85.1506 171.556 83.5039 173.758 83.5039H248.085C250.287 83.5039 251.939 85.1506 251.939 87.3462C251.939 89.3588 250.103 91.1884 248.085 91.1884Z" fill="#28D799"/>
<path d="M278.917 91.1884H264.969C262.767 91.1884 261.115 89.5417 261.115 87.3462C261.115 85.1506 262.767 83.5039 264.969 83.5039H278.917C281.119 83.5039 282.771 85.1506 282.771 87.3462C282.954 89.3588 281.119 91.1884 278.917 91.1884Z" fill="#111E47"/>
<path d="M278.917 102.898H264.969C262.767 102.898 261.115 101.251 261.115 99.0559C261.115 96.8603 262.767 95.2136 264.969 95.2136H278.917C281.119 95.2136 282.771 96.8603 282.771 99.0559C282.954 101.068 281.119 102.898 278.917 102.898Z" fill="#111E47"/>
<path d="M248.085 102.898H173.758C171.556 102.898 169.904 101.251 169.904 99.0559C169.904 96.8603 171.556 95.2136 173.758 95.2136H248.085C250.287 95.2136 251.939 96.8603 251.939 99.0559C251.939 101.068 250.103 102.898 248.085 102.898Z" fill="#28D799"/>
<path d="M248.085 114.425H173.758C171.556 114.425 169.904 112.778 169.904 110.582C169.904 108.387 171.556 106.74 173.758 106.74H248.085C250.287 106.74 251.939 108.387 251.939 110.582C251.939 112.778 250.103 114.425 248.085 114.425Z" fill="#28D799"/>
<path d="M248.085 114.425H224.777C222.575 114.425 220.923 112.778 220.923 110.582C220.923 108.387 222.575 106.74 224.777 106.74H248.085C250.287 106.74 251.939 108.387 251.939 110.582C251.939 112.778 250.104 114.425 248.085 114.425Z" fill="#FF8F00"/>
<path d="M257.628 126.135H195.047C195.047 122.658 197.8 119.914 201.287 119.914H251.205C254.875 119.914 257.628 122.658 257.628 126.135Z" fill="#203072"/>
<path d="M278.916 114.425C281.045 114.425 282.77 112.705 282.77 110.582C282.77 108.46 281.045 106.74 278.916 106.74C276.788 106.74 275.062 108.46 275.062 110.582C275.062 112.705 276.788 114.425 278.916 114.425Z" fill="#28D799"/>
<path d="M264.969 114.425C267.098 114.425 268.823 112.705 268.823 110.582C268.823 108.46 267.098 106.74 264.969 106.74C262.841 106.74 261.115 108.46 261.115 110.582C261.115 112.705 262.841 114.425 264.969 114.425Z" fill="#111E47"/>
<path d="M311.4 192.551H195.964C189.725 192.551 184.586 187.428 184.586 181.207V153.579C184.586 147.359 189.725 142.236 195.964 142.236H311.4C317.64 142.236 322.779 147.359 322.779 153.579V181.207C322.779 187.428 317.64 192.551 311.4 192.551Z" fill="#3041A5"/>
<path d="M312.502 194.38H197.066C189.725 194.38 183.852 188.526 183.852 181.207V153.579C183.852 146.261 189.725 140.406 197.066 140.406H312.502C319.843 140.406 325.715 146.261 325.715 153.579V181.207C325.715 188.343 319.843 194.38 312.502 194.38ZM197.066 144.065C191.744 144.065 187.523 148.273 187.523 153.579V181.207C187.523 186.513 191.744 190.721 197.066 190.721H312.502C317.824 190.721 322.045 186.513 322.045 181.207V153.579C322.045 148.273 317.824 144.065 312.502 144.065H197.066Z" fill="#203072"/>
<path d="M304.426 155.043C306.251 155.043 307.73 153.569 307.73 151.75C307.73 149.931 306.251 148.456 304.426 148.456C302.602 148.456 301.123 149.931 301.123 151.75C301.123 153.569 302.602 155.043 304.426 155.043Z" fill="#111E47"/>
<path d="M314.704 155.043C316.528 155.043 318.007 153.569 318.007 151.75C318.007 149.931 316.528 148.456 314.704 148.456C312.879 148.456 311.4 149.931 311.4 151.75C311.4 153.569 312.879 155.043 314.704 155.043Z" fill="#111E47"/>
<path d="M304.426 165.838C306.251 165.838 307.73 164.363 307.73 162.545C307.73 160.726 306.251 159.251 304.426 159.251C302.602 159.251 301.123 160.726 301.123 162.545C301.123 164.363 302.602 165.838 304.426 165.838Z" fill="#111E47"/>
<path d="M314.704 165.838C316.528 165.838 318.007 164.363 318.007 162.545C318.007 160.726 316.528 159.251 314.704 159.251C312.879 159.251 311.4 160.726 311.4 162.545C311.4 164.363 312.879 165.838 314.704 165.838Z" fill="#111E47"/>
<path d="M315.438 181.024H303.142C302.041 181.024 301.123 180.109 301.123 179.012C301.123 177.914 302.041 176.999 303.142 176.999H315.438C316.539 176.999 317.457 177.914 317.457 179.012C317.64 180.109 316.723 181.024 315.438 181.024Z" fill="#111E47"/>
<path d="M315.438 174.255H303.142C302.041 174.255 301.123 173.34 301.123 172.242C301.123 171.144 302.041 170.229 303.142 170.229H315.438C316.539 170.229 317.457 171.144 317.457 172.242C317.64 173.34 316.723 174.255 315.438 174.255Z" fill="#111E47"/>
<path d="M302.775 186.513C303.687 186.513 304.426 185.776 304.426 184.866C304.426 183.957 303.687 183.219 302.775 183.219C301.863 183.219 301.123 183.957 301.123 184.866C301.123 185.776 301.863 186.513 302.775 186.513Z" fill="#28D799"/>
<path d="M308.097 186.513C309.009 186.513 309.749 185.776 309.749 184.866C309.749 183.957 309.009 183.219 308.097 183.219C307.185 183.219 306.445 183.957 306.445 184.866C306.445 185.776 307.185 186.513 308.097 186.513Z" fill="#111E47"/>
<path d="M307.363 165.472H304.977V159.617H307.363C307.913 159.617 308.464 160.166 308.464 160.715V164.192C308.464 165.106 307.913 165.472 307.363 165.472Z" fill="#111E47"/>
<path d="M317.64 154.494H315.254V148.639H317.64C318.191 148.639 318.741 149.188 318.741 149.737V153.214C318.741 154.128 318.191 154.494 317.64 154.494Z" fill="#111E47"/>
<path d="M284.056 192.551H168.62C162.38 192.551 157.241 187.428 157.241 181.207V153.579C157.241 147.359 162.38 142.236 168.62 142.236H284.056C290.295 142.236 295.434 147.359 295.434 153.579V181.207C295.434 187.428 290.295 192.551 284.056 192.551Z" fill="#5A66CC"/>
<path d="M284.055 194.38H168.619C161.278 194.38 155.406 188.526 155.406 181.207V153.579C155.406 146.261 161.278 140.406 168.619 140.406H284.055C291.396 140.406 297.269 146.261 297.269 153.579V181.207C297.269 188.343 291.396 194.38 284.055 194.38ZM168.619 144.065C163.297 144.065 159.076 148.273 159.076 153.579V181.207C159.076 186.513 163.297 190.721 168.619 190.721H284.055C289.378 190.721 293.599 186.513 293.599 181.207V153.579C293.599 148.273 289.378 144.065 284.055 144.065H168.619Z" fill="#203072"/>
<path d="M248.085 156.324H173.758C171.556 156.324 169.904 154.677 169.904 152.482C169.904 150.286 171.556 148.639 173.758 148.639H248.085C250.287 148.639 251.939 150.286 251.939 152.482C251.939 154.677 250.103 156.324 248.085 156.324Z" fill="#28D799"/>
<path d="M278.917 156.324H264.969C262.767 156.324 261.115 154.677 261.115 152.482C261.115 150.286 262.767 148.639 264.969 148.639H278.917C281.119 148.639 282.771 150.286 282.771 152.482C282.954 154.677 281.119 156.324 278.917 156.324Z" fill="#28D799"/>
<path d="M278.917 168.034H264.969C262.767 168.034 261.115 166.387 261.115 164.191C261.115 161.996 262.767 160.349 264.969 160.349H278.917C281.119 160.349 282.771 161.996 282.771 164.191C282.954 166.204 281.119 168.034 278.917 168.034Z" fill="#111E47"/>
<path d="M248.085 168.034H173.758C171.556 168.034 169.904 166.387 169.904 164.191C169.904 161.996 171.556 160.349 173.758 160.349H248.085C250.287 160.349 251.939 161.996 251.939 164.191C251.939 166.204 250.103 168.034 248.085 168.034Z" fill="#28D799"/>
<path d="M248.085 179.743H173.758C171.556 179.743 169.904 178.097 169.904 175.901C169.904 173.706 171.556 172.059 173.758 172.059H248.085C250.287 172.059 251.939 173.706 251.939 175.901C251.939 177.914 250.103 179.743 248.085 179.743Z" fill="#28D799"/>
<path d="M257.628 191.27H195.047C195.047 187.794 197.8 185.049 201.287 185.049H251.205C254.875 185.049 257.628 187.794 257.628 191.27Z" fill="#203072"/>
<path d="M278.916 179.743C281.045 179.743 282.77 178.023 282.77 175.901C282.77 173.779 281.045 172.059 278.916 172.059C276.788 172.059 275.062 173.779 275.062 175.901C275.062 178.023 276.788 179.743 278.916 179.743Z" fill="#28D799"/>
<path d="M264.969 179.743C267.098 179.743 268.823 178.023 268.823 175.901C268.823 173.779 267.098 172.059 264.969 172.059C262.841 172.059 261.115 173.779 261.115 175.901C261.115 178.023 262.841 179.743 264.969 179.743Z" fill="#FF8F00"/>
<path d="M311.4 257.686H195.964C189.725 257.686 184.586 252.563 184.586 246.342V218.715C184.586 212.494 189.725 207.371 195.964 207.371H311.4C317.64 207.371 322.779 212.494 322.779 218.715V246.342C322.779 252.563 317.64 257.686 311.4 257.686Z" fill="#3041A5"/>
<path d="M312.502 259.516H197.066C189.725 259.516 183.852 253.661 183.852 246.342V218.715C183.852 211.396 189.725 205.541 197.066 205.541H312.502C319.843 205.541 325.715 211.396 325.715 218.715V246.342C325.715 253.661 319.843 259.516 312.502 259.516ZM197.066 209.384C191.744 209.384 187.523 213.592 187.523 218.898V246.525C187.523 251.831 191.744 256.039 197.066 256.039H312.502C317.824 256.039 322.045 251.831 322.045 246.525V218.715C322.045 213.409 317.824 209.201 312.502 209.201H197.066V209.384Z" fill="#203072"/>
<path d="M304.426 220.178C306.251 220.178 307.73 218.704 307.73 216.885C307.73 215.066 306.251 213.592 304.426 213.592C302.602 213.592 301.123 215.066 301.123 216.885C301.123 218.704 302.602 220.178 304.426 220.178Z" fill="#111E47"/>
<path d="M314.704 220.179C316.528 220.179 318.007 218.704 318.007 216.885C318.007 215.066 316.528 213.592 314.704 213.592C312.879 213.592 311.4 215.066 311.4 216.885C311.4 218.704 312.879 220.179 314.704 220.179Z" fill="#111E47"/>
<path d="M304.426 231.157C306.251 231.157 307.73 229.682 307.73 227.863C307.73 226.044 306.251 224.57 304.426 224.57C302.602 224.57 301.123 226.044 301.123 227.863C301.123 229.682 302.602 231.157 304.426 231.157Z" fill="#111E47"/>
<path d="M314.704 231.157C316.528 231.157 318.007 229.682 318.007 227.863C318.007 226.044 316.528 224.57 314.704 224.57C312.879 224.57 311.4 226.044 311.4 227.863C311.4 229.682 312.879 231.157 314.704 231.157Z" fill="#111E47"/>
<path d="M315.438 246.159H303.142C302.041 246.159 301.123 245.244 301.123 244.147C301.123 243.049 302.041 242.134 303.142 242.134H315.438C316.539 242.134 317.457 243.049 317.457 244.147C317.64 245.244 316.723 246.159 315.438 246.159Z" fill="#111E47"/>
<path d="M315.438 239.572H303.142C302.041 239.572 301.123 238.658 301.123 237.56C301.123 236.462 302.041 235.547 303.142 235.547H315.438C316.539 235.547 317.457 236.462 317.457 237.56C317.64 238.658 316.723 239.572 315.438 239.572Z" fill="#111E47"/>
<path d="M302.775 251.831C303.687 251.831 304.426 251.094 304.426 250.185C304.426 249.275 303.687 248.538 302.775 248.538C301.863 248.538 301.123 249.275 301.123 250.185C301.123 251.094 301.863 251.831 302.775 251.831Z" fill="#28D799"/>
<path d="M308.097 251.831C309.009 251.831 309.749 251.094 309.749 250.185C309.749 249.275 309.009 248.538 308.097 248.538C307.185 248.538 306.445 249.275 306.445 250.185C306.445 251.094 307.185 251.831 308.097 251.831Z" fill="#E52866"/>
<path d="M317.273 219.812H314.887V213.958H317.273C317.824 213.958 318.374 214.506 318.374 215.055V218.532C318.374 219.263 317.824 219.812 317.273 219.812Z" fill="#111E47"/>
<path d="M317.273 230.79H314.887V224.935H317.273C317.824 224.935 318.374 225.484 318.374 226.033V229.509C318.374 230.241 317.824 230.79 317.273 230.79Z" fill="#111E47"/>
<path d="M284.056 257.686H168.62C162.38 257.686 157.241 252.563 157.241 246.342V218.715C157.241 212.494 162.38 207.371 168.62 207.371H284.056C290.295 207.371 295.434 212.494 295.434 218.715V246.342C295.434 252.563 290.295 257.686 284.056 257.686Z" fill="#5A66CC"/>
<path d="M284.055 259.516H168.619C161.278 259.516 155.406 253.661 155.406 246.342V218.715C155.406 211.396 161.278 205.541 168.619 205.541H284.055C291.396 205.541 297.269 211.396 297.269 218.715V246.342C297.269 253.661 291.396 259.516 284.055 259.516ZM168.619 209.384C163.297 209.384 159.076 213.592 159.076 218.898V246.525C159.076 251.831 163.297 256.039 168.619 256.039H284.055C289.378 256.039 293.599 251.831 293.599 246.525V218.715C293.599 213.409 289.378 209.201 284.055 209.201H168.619V209.384Z" fill="#203072"/>
<path d="M248.085 221.459H173.758C171.556 221.459 169.904 219.813 169.904 217.617C169.904 215.421 171.556 213.775 173.758 213.775H248.085C250.287 213.775 251.939 215.421 251.939 217.617C251.939 219.813 250.103 221.459 248.085 221.459Z" fill="#28D799"/>
<path d="M278.917 221.459H264.969C262.767 221.459 261.115 219.813 261.115 217.617C261.115 215.421 262.767 213.775 264.969 213.775H278.917C281.119 213.775 282.771 215.421 282.771 217.617C282.954 219.813 281.119 221.459 278.917 221.459Z" fill="#111E47"/>
<path d="M278.917 233.169H264.969C262.767 233.169 261.115 231.522 261.115 229.327C261.115 227.131 262.767 225.484 264.969 225.484H278.917C281.119 225.484 282.771 227.131 282.771 229.327C282.954 231.522 281.119 233.169 278.917 233.169Z" fill="#111E47"/>
<path d="M248.085 233.169H173.758C171.556 233.169 169.904 231.522 169.904 229.327C169.904 227.131 171.556 225.484 173.758 225.484H248.085C250.287 225.484 251.939 227.131 251.939 229.327C251.939 231.522 250.103 233.169 248.085 233.169Z" fill="#28D799"/>
<path d="M248.085 244.879H173.758C171.556 244.879 169.904 243.232 169.904 241.036C169.904 238.841 171.556 237.194 173.758 237.194H248.085C250.287 237.194 251.939 238.841 251.939 241.036C251.939 243.049 250.103 244.879 248.085 244.879Z" fill="#28D799"/>
<path d="M257.628 256.588H195.047C195.047 253.112 197.8 250.368 201.287 250.368H251.205C254.875 250.185 257.628 253.112 257.628 256.588Z" fill="#203072"/>
<path d="M278.916 244.879C281.045 244.879 282.77 243.158 282.77 241.036C282.77 238.914 281.045 237.194 278.916 237.194C276.788 237.194 275.062 238.914 275.062 241.036C275.062 243.158 276.788 244.879 278.916 244.879Z" fill="#111E47"/>
<path d="M264.969 244.879C267.098 244.879 268.823 243.158 268.823 241.036C268.823 238.914 267.098 237.194 264.969 237.194C262.841 237.194 261.115 238.914 261.115 241.036C261.115 243.158 262.841 244.879 264.969 244.879Z" fill="#28D799"/>
<path d="M311.4 322.821H195.964C189.725 322.821 184.586 317.698 184.586 311.477V283.85C184.586 277.629 189.725 272.506 195.964 272.506H311.4C317.64 272.506 322.779 277.629 322.779 283.85V311.477C322.779 317.881 317.64 322.821 311.4 322.821Z" fill="#3041A5"/>
<path d="M312.502 324.651H197.066C189.725 324.651 183.852 318.796 183.852 311.477V283.85C183.852 276.531 189.725 270.676 197.066 270.676H312.502C319.843 270.676 325.715 276.531 325.715 283.85V311.477C325.715 318.796 319.843 324.651 312.502 324.651ZM197.066 274.519C191.744 274.519 187.523 278.727 187.523 284.033V311.66C187.523 316.966 191.744 321.174 197.066 321.174H312.502C317.824 321.174 322.045 316.966 322.045 311.66V284.033C322.045 278.727 317.824 274.519 312.502 274.519H197.066Z" fill="#203072"/>
<path d="M304.426 285.497C306.251 285.497 307.73 284.022 307.73 282.204C307.73 280.385 306.251 278.91 304.426 278.91C302.602 278.91 301.123 280.385 301.123 282.204C301.123 284.022 302.602 285.497 304.426 285.497Z" fill="#111E47"/>
<path d="M314.704 285.496C316.528 285.496 318.007 284.022 318.007 282.203C318.007 280.384 316.528 278.909 314.704 278.909C312.879 278.909 311.4 280.384 311.4 282.203C311.4 284.022 312.879 285.496 314.704 285.496Z" fill="#111E47"/>
<path d="M304.426 296.291C306.251 296.291 307.73 294.817 307.73 292.998C307.73 291.179 306.251 289.704 304.426 289.704C302.602 289.704 301.123 291.179 301.123 292.998C301.123 294.817 302.602 296.291 304.426 296.291Z" fill="#111E47"/>
<path d="M314.704 296.291C316.528 296.291 318.007 294.817 318.007 292.998C318.007 291.179 316.528 289.704 314.704 289.704C312.879 289.704 311.4 291.179 311.4 292.998C311.4 294.817 312.879 296.291 314.704 296.291Z" fill="#111E47"/>
<path d="M315.438 311.294H303.142C302.041 311.294 301.123 310.38 301.123 309.282C301.123 308.184 302.041 307.269 303.142 307.269H315.438C316.539 307.269 317.457 308.184 317.457 309.282C317.64 310.38 316.723 311.294 315.438 311.294Z" fill="#111E47"/>
<path d="M315.438 304.708H303.142C302.041 304.708 301.123 303.793 301.123 302.695C301.123 301.597 302.041 300.682 303.142 300.682H315.438C316.539 300.682 317.457 301.597 317.457 302.695C317.64 303.793 316.723 304.708 315.438 304.708Z" fill="#111E47"/>
<path d="M302.775 316.966C303.687 316.966 304.426 316.229 304.426 315.32C304.426 314.41 303.687 313.673 302.775 313.673C301.863 313.673 301.123 314.41 301.123 315.32C301.123 316.229 301.863 316.966 302.775 316.966Z" fill="#28D799"/>
<path d="M308.097 316.966C309.009 316.966 309.749 316.229 309.749 315.32C309.749 314.41 309.009 313.673 308.097 313.673C307.185 313.673 306.445 314.41 306.445 315.32C306.445 316.229 307.185 316.966 308.097 316.966Z" fill="#FF8F00"/>
<path d="M306.996 284.948H304.61V279.093H306.996C307.546 279.093 308.097 279.642 308.097 280.191V283.667C308.097 284.399 307.546 284.948 306.996 284.948Z" fill="#111E47"/>
<path d="M284.056 322.821H168.62C162.38 322.821 157.241 317.698 157.241 311.477V283.85C157.241 277.629 162.38 272.506 168.62 272.506H284.056C290.295 272.506 295.434 277.629 295.434 283.85V311.477C295.434 317.881 290.295 322.821 284.056 322.821Z" fill="#5A66CC"/>
<path d="M284.055 324.651H168.619C161.278 324.651 155.406 318.796 155.406 311.478V283.85C155.406 276.531 161.278 270.677 168.619 270.677H284.055C291.396 270.677 297.269 276.531 297.269 283.85V311.478C297.269 318.796 291.396 324.651 284.055 324.651ZM168.619 274.519C163.297 274.519 159.076 278.727 159.076 284.033V311.661C159.076 316.967 163.297 321.175 168.619 321.175H284.055C289.378 321.175 293.599 316.967 293.599 311.661V284.033C293.599 278.727 289.378 274.519 284.055 274.519H168.619Z" fill="#203072"/>
<path d="M248.085 286.777H173.758C171.556 286.777 169.904 285.131 169.904 282.935C169.904 280.739 171.556 279.093 173.758 279.093H248.085C250.287 279.093 251.939 280.739 251.939 282.935C251.939 284.948 250.103 286.777 248.085 286.777Z" fill="#28D799"/>
<path d="M278.917 286.777H264.969C262.767 286.777 261.115 285.131 261.115 282.935C261.115 280.739 262.767 279.093 264.969 279.093H278.917C281.119 279.093 282.771 280.739 282.771 282.935C282.954 284.948 281.119 286.777 278.917 286.777Z" fill="#111E47"/>
<path d="M278.917 298.304H264.969C262.767 298.304 261.115 296.657 261.115 294.462C261.115 292.266 262.767 290.619 264.969 290.619H278.917C281.119 290.619 282.771 292.266 282.771 294.462C282.954 296.657 281.119 298.304 278.917 298.304Z" fill="#28D799"/>
<path d="M248.085 298.304H173.758C171.556 298.304 169.904 296.657 169.904 294.462C169.904 292.266 171.556 290.619 173.758 290.619H248.085C250.287 290.619 251.939 292.266 251.939 294.462C251.939 296.657 250.103 298.304 248.085 298.304Z" fill="#28D799"/>
<path d="M248.085 310.014H173.758C171.556 310.014 169.904 308.367 169.904 306.171C169.904 303.976 171.556 302.329 173.758 302.329H248.085C250.287 302.329 251.939 303.976 251.939 306.171C251.939 308.367 250.103 310.014 248.085 310.014Z" fill="#28D799"/>
<path d="M257.628 321.723H195.047C195.047 318.247 197.8 315.503 201.287 315.503H251.205C254.875 315.32 257.628 318.247 257.628 321.723Z" fill="#203072"/>
<path d="M278.916 310.014C281.045 310.014 282.77 308.293 282.77 306.171C282.77 304.049 281.045 302.329 278.916 302.329C276.788 302.329 275.062 304.049 275.062 306.171C275.062 308.293 276.788 310.014 278.916 310.014Z" fill="#FF8F00"/>
<path d="M264.969 310.014C267.098 310.014 268.823 308.293 268.823 306.171C268.823 304.049 267.098 302.329 264.969 302.329C262.841 302.329 261.115 304.049 261.115 306.171C261.115 308.293 262.841 310.014 264.969 310.014Z" fill="#111E47"/>
<path d="M314.704 153.579V149.92C315.438 149.92 316.355 149.92 317.089 149.92C325.348 149.371 345.168 146.444 352.876 129.611C355.813 123.024 357.281 113.144 353.61 105.46C346.637 90.6396 322.962 97.9581 318.374 99.6048L317.089 96.1285C332.138 90.8225 350.491 90.0907 356.914 103.996C360.584 111.68 360.217 122.292 356.18 131.258C350.124 144.431 335.992 152.482 317.273 153.579C316.355 153.579 315.438 153.579 314.704 153.579Z" fill="#3041A5"/>
<path d="M315.805 219.081L314.887 215.604C319.475 214.506 323.696 212.677 327.367 210.115C333.974 205.724 338.929 199.137 341.682 191.819C344.251 184.866 344.985 175.535 339.296 169.497C336.543 166.57 332.506 165.106 329.753 164.557C323.329 163.093 315.438 163.093 306.996 164.557L306.262 160.898C315.254 159.251 323.513 159.251 330.487 160.898C335.258 161.996 339.112 164.008 341.865 166.936C348.656 174.254 347.921 185.232 344.985 193.1C342.049 201.15 336.359 208.286 329.202 213.226C325.348 215.97 320.76 217.983 315.805 219.081Z" fill="#3041A5"/>
<path d="M304.427 284.033L304.243 280.374C312.685 279.825 321.127 278.361 326.816 271.957C329.753 268.664 331.772 264.09 332.689 258.601C333.79 252.197 334.891 243.049 331.038 237.011C328.101 232.254 322.595 229.51 316.356 229.876L316.172 226.216C323.697 225.85 330.67 229.144 334.341 235.182C338.562 242.317 337.644 252.38 336.36 259.333C335.259 265.554 333.056 270.677 329.569 274.519C322.962 281.837 313.052 283.301 304.427 284.033Z" fill="#3041A5"/>
<path d="M317.824 100.52H315.438V94.665H317.824C318.374 94.665 318.925 95.2139 318.925 95.7628V99.2391C318.925 99.971 318.374 100.52 317.824 100.52Z" fill="#111E47"/>
<path d="M317.64 154.677H315.254V148.822H317.64C318.191 148.822 318.741 149.371 318.741 149.92V153.396C318.741 154.128 318.374 154.677 317.64 154.677Z" fill="#111E47"/>
<path d="M316.356 149.737H313.419V153.763H316.356V149.737Z" fill="#111E47"/>
<path d="M307.363 165.655H304.977V159.8H307.363C307.913 159.8 308.464 160.349 308.464 160.898V164.374C308.464 165.106 307.913 165.655 307.363 165.655Z" fill="#111E47"/>
<path d="M306.078 160.532H303.142V164.557H306.078V160.532Z" fill="#111E47"/>
<path d="M317.273 219.813H314.887V213.958H317.273C317.824 213.958 318.374 214.507 318.374 215.056V218.532C318.374 219.264 317.824 219.813 317.273 219.813Z" fill="#111E47"/>
<path d="M315.989 214.689H313.052V218.715H315.989V214.689Z" fill="#111E47"/>
<path d="M317.273 230.79H314.887V224.935H317.273C317.824 224.935 318.374 225.484 318.374 226.033V229.509C318.374 230.241 317.824 230.79 317.273 230.79Z" fill="#111E47"/>
<path d="M306.996 284.948H304.61V279.093H306.996C307.546 279.093 308.097 279.642 308.097 280.191V283.667C308.097 284.399 307.73 284.948 306.996 284.948Z" fill="#111E47"/>
<path d="M315.989 225.85H313.052V229.875H315.989V225.85Z" fill="#111E47"/>
<path d="M305.711 280.008H303.692V284.216H305.711V280.008Z" fill="#111E47"/>
<g filter="url(#filter0_d)">
<g filter="url(#filter1_d)">
<path d="M452.758 110.888H376.063C368.514 110.888 362.337 104.914 362.337 97.6116V23.4299C362.337 16.1279 368.514 10.1536 376.063 10.1536H452.758C460.308 10.1536 466.484 16.1279 466.484 23.4299V97.6116C466.484 104.914 460.308 110.888 452.758 110.888Z" fill="#5058C8"/>
</g>
<path d="M431.85 38.5872H396.972C394.074 38.5872 391.734 40.8506 391.734 43.6529V51.4131H436.976V43.6529C437.088 40.8506 434.748 38.5872 431.85 38.5872ZM419.147 47.7486C417.587 47.7486 416.361 46.563 416.361 45.054C416.361 43.5451 417.587 42.3595 419.147 42.3595C420.707 42.3595 421.933 43.5451 421.933 45.054C421.933 46.563 420.707 47.7486 419.147 47.7486ZM428.507 47.7486C426.947 47.7486 425.721 46.563 425.721 45.054C425.721 43.5451 426.947 42.3595 428.507 42.3595C430.067 42.3595 431.293 43.5451 431.293 45.054C431.293 46.563 430.067 47.7486 428.507 47.7486Z" fill="white"/>
<path d="M391.733 54.9702V65.9639H436.975V54.9702H391.733ZM419.146 63.2694C417.586 63.2694 416.36 62.0838 416.36 60.5748C416.36 59.0659 417.586 57.8803 419.146 57.8803C420.706 57.8803 421.932 59.0659 421.932 60.5748C421.932 61.976 420.706 63.2694 419.146 63.2694ZM428.506 63.2694C426.946 63.2694 425.72 62.0838 425.72 60.5748C425.72 59.0659 426.946 57.8803 428.506 57.8803C430.066 57.8803 431.292 59.0659 431.292 60.5748C431.404 61.976 430.066 63.2694 428.506 63.2694Z" fill="white"/>
<path d="M391.733 69.6287V77.3889C391.733 80.1912 394.073 82.4546 396.971 82.4546H431.849C434.747 82.4546 437.087 80.1912 437.087 77.3889V69.6287H391.733ZM419.146 78.7901C417.586 78.7901 416.36 77.6045 416.36 76.0955C416.36 74.5866 417.586 73.401 419.146 73.401C420.706 73.401 421.932 74.5866 421.932 76.0955C421.932 77.6045 420.706 78.7901 419.146 78.7901ZM428.506 78.7901C426.946 78.7901 425.72 77.6045 425.72 76.0955C425.72 74.5866 426.946 73.401 428.506 73.401C430.066 73.401 431.292 74.5866 431.292 76.0955C431.292 77.6045 430.066 78.7901 428.506 78.7901Z" fill="white"/>
<g filter="url(#filter2_d)">
<path d="M473.021 200.216H421.908C418.62 200.216 415.93 197.526 415.93 194.238V143.124C415.93 139.836 418.62 137.146 421.908 137.146H473.021C476.309 137.146 479 139.836 479 143.124V194.238C479 197.526 476.309 200.216 473.021 200.216Z" fill="#5058C8"/>
</g>
<path d="M447.456 154.181C439.448 154.186 432.96 160.681 432.964 168.69C432.969 176.698 439.464 183.186 447.473 183.181C455.478 183.177 461.964 176.686 461.964 168.681C461.959 160.673 455.464 154.182 447.456 154.181ZM446.005 170.619C444.937 169.818 444.719 168.303 445.519 167.236C445.52 167.235 445.52 167.235 445.521 167.234C446.322 166.167 450.358 164.818 450.358 164.818C450.358 164.818 450.191 169.067 449.39 170.135C448.589 171.202 447.073 171.419 446.005 170.619ZM447.531 179.637V177.219C452.203 177.216 455.987 173.428 455.985 168.756C455.982 164.084 452.193 160.299 447.521 160.302C442.852 160.305 439.068 164.091 439.068 168.76H436.649C436.646 162.75 441.516 157.876 447.526 157.873C453.536 157.87 458.41 162.74 458.413 168.75C458.416 174.76 453.546 179.634 447.536 179.637C447.535 179.637 447.533 179.637 447.531 179.637Z" fill="white"/>
<g filter="url(#filter3_d)">
<path d="M310.033 129.658H234.82C229.982 129.658 226.023 125.699 226.023 120.861V45.6479C226.023 40.8097 229.982 36.8511 234.82 36.8511H310.033C314.872 36.8511 318.83 40.8097 318.83 45.6479V120.861C318.83 125.699 314.872 129.658 310.033 129.658Z" fill="#5058C8"/>
</g>
<path d="M292.901 66.2222C284.408 66.2222 277.97 63.8082 272.427 58.4438C266.973 63.8082 260.447 66.2222 251.953 66.2222C251.953 80.0802 249.092 100.018 272.427 108.064C295.762 100.018 292.901 80.0802 292.901 66.2222ZM270.818 90.6301L264.023 83.8352L267.063 80.7954L270.818 84.5505L277.97 77.398L281.01 80.4378L270.818 90.6301Z" fill="white"/>
<g filter="url(#filter4_d)">
<path d="M441.95 304.577H388.406C384.961 304.577 382.143 301.759 382.143 298.314V244.77C382.143 241.325 384.961 238.507 388.406 238.507H441.95C445.395 238.507 448.213 241.325 448.213 244.77V298.314C448.213 301.759 445.395 304.577 441.95 304.577Z" fill="#5058C8"/>
</g>
<path d="M429.365 276.483C428.702 276.377 428.149 276.005 427.818 275.473C427.486 274.942 427.431 274.251 427.652 273.667C427.818 273.295 427.707 272.817 427.376 272.604C426.657 272.02 425.829 271.595 425 271.276C424.613 271.117 424.116 271.276 423.84 271.595C423.453 272.073 422.79 272.392 422.182 272.392C421.519 272.392 420.912 272.126 420.525 271.595C420.249 271.276 419.807 271.17 419.365 271.276C418.536 271.542 417.818 271.967 417.099 272.498C416.768 272.764 416.602 273.242 416.768 273.614C417.044 274.198 416.989 274.889 416.602 275.473C416.271 276.005 415.663 276.377 415 276.43C414.558 276.483 414.226 276.802 414.116 277.227C414.005 277.705 413.95 278.183 413.95 278.714C413.95 279.139 414.005 279.564 414.061 279.936C414.116 280.361 414.503 280.68 414.945 280.733C415.608 280.787 416.271 281.158 416.602 281.743C416.934 282.327 416.989 283.018 416.713 283.602C416.547 283.974 416.657 284.453 416.989 284.771C417.707 285.356 418.481 285.781 419.365 286.1C419.475 286.153 419.586 286.153 419.696 286.153C420.028 286.153 420.304 285.993 420.525 285.728C420.912 285.196 421.575 284.825 422.293 284.825C422.956 284.825 423.619 285.143 424.005 285.675C424.282 286.047 424.779 286.153 425.166 285.993C425.939 285.675 426.713 285.25 427.376 284.718C427.707 284.453 427.818 284.028 427.652 283.602C427.376 283.018 427.431 282.327 427.762 281.796C428.094 281.265 428.702 280.893 429.365 280.787C429.807 280.733 430.138 280.415 430.249 279.99C430.359 279.564 430.359 279.086 430.414 278.661C430.414 278.183 430.359 277.705 430.304 277.28C430.138 276.855 429.807 276.536 429.365 276.483ZM424.889 278.661C424.889 279.724 424.226 280.68 423.177 281.105C422.182 281.53 420.967 281.265 420.193 280.521C419.42 279.777 419.199 278.661 419.586 277.652C420.028 276.695 421.022 276.005 422.127 276.005C423.674 276.058 424.889 277.227 424.889 278.661Z" fill="white"/>
<path d="M413.066 277.014C413.232 276.164 414.005 275.473 414.889 275.367C415.221 275.314 415.497 275.155 415.663 274.889C415.829 274.623 415.884 274.304 415.718 273.986C415.387 273.136 415.663 272.179 416.381 271.648C417.155 271.063 417.983 270.585 418.923 270.266C419.751 269.948 420.746 270.213 421.298 270.904C421.409 271.063 421.574 271.117 421.74 271.17C422.072 271.01 422.458 270.904 422.845 270.851C423.508 270.745 424.061 270.266 424.171 269.576C424.282 268.885 424.392 268.194 424.392 267.504C424.392 266.76 424.337 266.016 424.171 265.325C424.061 264.688 423.508 264.209 422.845 264.103C421.851 263.944 420.967 263.359 420.414 262.509C419.917 261.659 419.807 260.65 420.193 259.693C420.414 259.109 420.249 258.418 419.696 257.993C418.591 257.09 417.32 256.399 415.939 255.868C415.276 255.655 414.558 255.815 414.171 256.346C413.563 257.143 412.569 257.568 411.519 257.568C410.469 257.568 409.53 257.09 408.867 256.346C408.425 255.815 407.707 255.655 407.099 255.868C405.829 256.293 404.668 256.93 403.563 257.78C403.177 258.259 402.956 259.002 403.232 259.587C403.619 260.543 403.563 261.606 403.011 262.456C402.458 263.306 401.519 263.891 400.469 263.997C399.751 264.05 399.199 264.581 399.088 265.219C398.867 266.016 398.812 266.76 398.812 267.557C398.812 268.194 398.867 268.832 398.978 269.469C399.088 270.16 399.641 270.691 400.359 270.745C401.409 270.851 402.403 271.435 402.956 272.339C403.508 273.242 403.563 274.358 403.121 275.261C402.845 275.898 403.011 276.642 403.563 277.067C404.668 277.971 405.939 278.661 407.32 279.139C407.486 279.193 407.652 279.246 407.873 279.246C408.37 279.246 408.867 278.98 409.144 278.608C409.751 277.758 410.801 277.227 411.906 277.227C412.293 277.227 412.679 277.28 413.066 277.439C413.011 277.28 413.011 277.12 413.066 277.014ZM408.646 270.479C407.431 269.31 407.044 267.557 407.707 266.016C408.37 264.475 409.917 263.466 411.685 263.466C414.061 263.466 415.939 265.325 415.939 267.557C415.939 269.204 414.889 270.745 413.287 271.382C411.685 271.967 409.862 271.648 408.646 270.479Z" fill="white"/>
</g>
<defs>
<filter id="filter0_d" x="204.023" y="6.15356" width="296.976" height="338.423" filterUnits="userSpaceOnUse" color-interpolation-filters="sRGB">
<feFlood flood-opacity="0" result="BackgroundImageFix"/>
<feColorMatrix in="SourceAlpha" type="matrix" values="0 0 0 0 0 0 0 0 0 0 0 0 0 0 0 0 0 0 20 0" result="hardAlpha"/>
<feOffset dy="18"/>
<feGaussianBlur stdDeviation="11"/>
<feColorMatrix type="matrix" values="0 0 0 0 0 0 0 0 0 0 0 0 0 0 0 0 0 0 0.15 0"/>
<feBlend mode="normal" in2="BackgroundImageFix" result="effect1_dropShadow"/>
<feBlend mode="normal" in="SourceGraphic" in2="effect1_dropShadow" result="shape"/>
</filter>
<filter id="filter1_d" x="347.337" y="0.153564" width="134.147" height="130.734" filterUnits="userSpaceOnUse" color-interpolation-filters="sRGB">
<feFlood flood-opacity="0" result="BackgroundImageFix"/>
<feColorMatrix in="SourceAlpha" type="matrix" values="0 0 0 0 0 0 0 0 0 0 0 0 0 0 0 0 0 0 0 0" result="hardAlpha"/>
<feOffset dy="5"/>
<feGaussianBlur stdDeviation="7.5"/>
<feColorMatrix type="matrix" values="0 0 0 0 0 0 0 0 0 0 0 0 0 0 0 0 0 0 0.1 0"/>
<feBlend mode="normal" in2="BackgroundImageFix" result="effect1_dropShadow"/>
<feBlend mode="normal" in="SourceGraphic" in2="effect1_dropShadow" result="shape"/>
</filter>
<filter id="filter2_d" x="400.93" y="127.146" width="93.0699" height="93.0699" filterUnits="userSpaceOnUse" color-interpolation-filters="sRGB">
<feFlood flood-opacity="0" result="BackgroundImageFix"/>
<feColorMatrix in="SourceAlpha" type="matrix" values="0 0 0 0 0 0 0 0 0 0 0 0 0 0 0 0 0 0 0 0" result="hardAlpha"/>
<feOffset dy="5"/>
<feGaussianBlur stdDeviation="7.5"/>
<feColorMatrix type="matrix" values="0 0 0 0 0 0 0 0 0 0 0 0 0 0 0 0 0 0 0.1 0"/>
<feBlend mode="normal" in2="BackgroundImageFix" result="effect1_dropShadow"/>
<feBlend mode="normal" in="SourceGraphic" in2="effect1_dropShadow" result="shape"/>
</filter>
<filter id="filter3_d" x="211.023" y="26.8511" width="122.807" height="122.807" filterUnits="userSpaceOnUse" color-interpolation-filters="sRGB">
<feFlood flood-opacity="0" result="BackgroundImageFix"/>
<feColorMatrix in="SourceAlpha" type="matrix" values="0 0 0 0 0 0 0 0 0 0 0 0 0 0 0 0 0 0 0 0" result="hardAlpha"/>
<feOffset dy="5"/>
<feGaussianBlur stdDeviation="7.5"/>
<feColorMatrix type="matrix" values="0 0 0 0 0 0 0 0 0 0 0 0 0 0 0 0 0 0 0.1 0"/>
<feBlend mode="normal" in2="BackgroundImageFix" result="effect1_dropShadow"/>
<feBlend mode="normal" in="SourceGraphic" in2="effect1_dropShadow" result="shape"/>
</filter>
<filter id="filter4_d" x="367.143" y="228.507" width="96.0697" height="96.0697" filterUnits="userSpaceOnUse" color-interpolation-filters="sRGB">
<feFlood flood-opacity="0" result="BackgroundImageFix"/>
<feColorMatrix in="SourceAlpha" type="matrix" values="0 0 0 0 0 0 0 0 0 0 0 0 0 0 0 0 0 0 0 0" result="hardAlpha"/>
<feOffset dy="5"/>
<feGaussianBlur stdDeviation="7.5"/>
<feColorMatrix type="matrix" values="0 0 0 0 0 0 0 0 0 0 0 0 0 0 0 0 0 0 0.1 0"/>
<feBlend mode="normal" in2="BackgroundImageFix" result="effect1_dropShadow"/>
<feBlend mode="normal" in="SourceGraphic" in2="effect1_dropShadow" result="shape"/>
</filter>
<clipPath id="clip0">
<rect width="250.617" height="250.617" fill="white" transform="translate(0 1.99805)"/>
</clipPath>
</defs>
</svg>
