<svg width="683" height="499" viewBox="0 0 683 499" fill="none" xmlns="http://www.w3.org/2000/svg">
<path d="M15.5 196.5V171.5H27M15.5 425V441H341.5M654 425V441H341.5M341.5 441V477M151.5 477H522" stroke="#E0E9FF" stroke-width="2" stroke-linecap="round" stroke-linejoin="round" stroke-dasharray="5 10"/>
<path d="M56.3051 499H19.3179V453L47.6114 453.083L56.3051 462.525V499Z" fill="url(#paint0_linear)"/>
<path d="M30.3802 479.243C30.3342 479.29 29.7205 478.734 28.7661 477.801C27.8117 476.868 26.5137 475.555 25.1021 474.082L24.9456 473.916L25.1021 473.75V473.735C26.5075 472.253 27.7995 470.927 28.7538 469.985C29.7082 469.043 30.3189 468.481 30.3649 468.528C30.4109 468.574 29.8893 469.215 28.9993 470.218C28.1094 471.222 26.8512 472.581 25.4488 474.067H25.4335V473.75C26.8451 475.223 28.1002 476.574 28.9932 477.568C29.8862 478.562 30.4293 479.197 30.3802 479.243Z" fill="#263238"/>
<path d="M45.2234 468.528C45.2725 468.482 45.8862 469.037 46.8406 469.97C47.7949 470.903 49.093 472.216 50.5015 473.689L50.6611 473.855L50.5046 474.021H50.4893C49.0807 475.506 47.7888 476.828 46.8375 477.771C45.8862 478.713 45.2725 479.274 45.2234 479.228C45.1743 479.182 45.7021 478.541 46.592 477.537C47.4819 476.534 48.7401 475.174 50.1394 473.692V473.674V474.005C48.7309 472.532 47.4727 471.182 46.5797 470.191C45.6867 469.2 45.1773 468.574 45.2234 468.528Z" fill="#263238"/>
<path d="M33.3017 480.934C33.1912 480.867 35.1091 477.522 37.5979 473.465C40.0866 469.408 42.1794 466.177 42.293 466.247C42.4065 466.318 40.4886 469.66 37.9968 473.717C35.505 477.774 33.4152 481.005 33.3017 480.934Z" fill="#263238"/>
<path d="M47.6082 453.086L47.5745 460.791C47.5735 461.057 47.6261 461.32 47.729 461.565C47.8318 461.811 47.983 462.032 48.1734 462.218C48.3637 462.404 48.5895 462.549 48.8372 462.645C49.0849 462.742 49.3495 462.788 49.6152 462.78L56.305 462.531L47.6082 453.086Z" fill="#E2AA42"/>
<path d="M47.126 484.208H15V494.305H47.126V484.208Z" fill="url(#paint1_linear)"/>
<path d="M26.4384 493C25.6631 493 25.062 492.743 24.6353 492.229C24.2118 491.711 24 490.981 24 490.037C24 489.069 24.215 488.32 24.645 487.792C25.0783 487.264 25.694 487 26.4921 487C26.7495 487 27.0069 487.03 27.2642 487.09C27.5216 487.15 27.7236 487.22 27.8702 487.301L27.6209 488.046C27.4418 487.968 27.2463 487.905 27.0346 487.856C26.8228 487.803 26.6355 487.776 26.4726 487.776C25.3845 487.776 24.8405 488.526 24.8405 490.026C24.8405 490.738 24.9724 491.283 25.2363 491.664C25.5034 492.044 25.8976 492.234 26.4188 492.234C26.8652 492.234 27.3229 492.13 27.792 491.923V492.699C27.4336 492.9 26.9824 493 26.4384 493Z" fill="white"/>
<path d="M32.5222 491.315C32.5222 491.854 32.3365 492.269 31.9651 492.562C31.5937 492.854 31.0725 493 30.4014 493C29.6912 493 29.1374 492.879 28.74 492.636V491.822C28.9973 491.963 29.2726 492.074 29.5658 492.155C29.8622 492.236 30.1473 492.276 30.4209 492.276C30.8444 492.276 31.1702 492.204 31.3983 492.06C31.6263 491.912 31.7403 491.688 31.7403 491.389C31.7403 491.164 31.6491 490.972 31.4667 490.813C31.2875 490.651 30.9357 490.461 30.4112 490.243C29.9127 490.042 29.5576 489.868 29.3459 489.72C29.1374 489.569 28.981 489.398 28.8768 489.208C28.7758 489.018 28.7253 488.79 28.7253 488.526C28.7253 488.055 28.9029 487.683 29.2579 487.412C29.613 487.137 30.1001 487 30.719 487C31.2956 487 31.8592 487.127 32.4098 487.38L32.1215 488.093C31.5839 487.854 31.0969 487.734 30.6604 487.734C30.276 487.734 29.986 487.799 29.7906 487.93C29.5951 488.06 29.4974 488.239 29.4974 488.468C29.4974 488.623 29.5332 488.755 29.6049 488.864C29.6798 488.974 29.7987 489.077 29.9616 489.176C30.1245 489.275 30.4372 489.417 30.8998 489.604C31.5351 489.854 31.9635 490.106 32.185 490.359C32.4098 490.613 32.5222 490.931 32.5222 491.315Z" fill="white"/>
<path d="M35.0192 492.894L32.9864 487.106H33.8562L35.0094 490.539C35.27 491.342 35.4232 491.863 35.4688 492.102H35.5079C35.5437 491.915 35.6561 491.53 35.845 490.945C36.0372 490.357 36.4656 489.077 37.1302 487.106H38L35.9672 492.894H35.0192Z" fill="white"/>
<path d="M122.305 499H85.3179V453L113.611 453.083L122.305 462.525V499Z" fill="url(#paint2_linear)"/>
<path d="M96.3802 479.243C96.3342 479.29 95.7205 478.734 94.7661 477.801C93.8117 476.868 92.5137 475.555 91.1021 474.082L90.9456 473.916L91.1021 473.75V473.735C92.5075 472.253 93.7995 470.927 94.7538 469.985C95.7082 469.043 96.3189 468.481 96.3649 468.528C96.4109 468.574 95.8893 469.215 94.9993 470.218C94.1094 471.222 92.8512 472.581 91.4488 474.067H91.4335V473.75C92.8451 475.223 94.1002 476.574 94.9932 477.568C95.8862 478.562 96.4293 479.197 96.3802 479.243Z" fill="#263238"/>
<path d="M111.223 468.528C111.272 468.482 111.886 469.037 112.841 469.97C113.795 470.903 115.093 472.216 116.502 473.689L116.661 473.855L116.505 474.021H116.489C115.081 475.506 113.789 476.828 112.838 477.771C111.886 478.713 111.272 479.274 111.223 479.228C111.174 479.182 111.702 478.541 112.592 477.537C113.482 476.534 114.74 475.174 116.139 473.692V473.674V474.005C114.731 472.532 113.473 471.182 112.58 470.191C111.687 469.2 111.177 468.574 111.223 468.528Z" fill="#263238"/>
<path d="M99.3017 480.934C99.1912 480.867 101.109 477.522 103.598 473.465C106.087 469.408 108.179 466.177 108.293 466.247C108.407 466.318 106.489 469.66 103.997 473.717C101.505 477.774 99.4152 481.005 99.3017 480.934Z" fill="#263238"/>
<path d="M113.608 453.086L113.574 460.791C113.574 461.057 113.626 461.32 113.729 461.565C113.832 461.811 113.983 462.032 114.173 462.218C114.364 462.404 114.589 462.549 114.837 462.645C115.085 462.742 115.349 462.788 115.615 462.78L122.305 462.531L113.608 453.086Z" fill="#E2AA42"/>
<path d="M113.126 484.208H81V494.305H113.126V484.208Z" fill="url(#paint3_linear)"/>
<path d="M90.8322 490.476L89.0914 488.069H89.9549L91.2754 489.959L92.5912 488.069H93.4456L91.7048 490.476L93.537 493H92.678L91.2754 491.003L89.859 493H89L90.8322 490.476Z" fill="white"/>
<path d="M100.916 493V489.792C100.916 489.4 100.831 489.106 100.66 488.911C100.489 488.713 100.224 488.614 99.8651 488.614C99.3929 488.614 99.0442 488.747 98.8188 489.014C98.5934 489.281 98.4807 489.692 98.4807 490.247V493H97.7222V489.792C97.7222 489.4 97.6369 489.106 97.4663 488.911C97.2958 488.713 97.0292 488.614 96.6668 488.614C96.1916 488.614 95.8428 488.755 95.6205 489.037C95.4012 489.316 95.2915 489.774 95.2915 490.413V493H94.533V488.069H95.1499L95.2732 488.744H95.3098C95.4529 488.504 95.654 488.317 95.9129 488.182C96.1748 488.047 96.4673 487.979 96.7901 487.979C97.573 487.979 98.0847 488.258 98.3253 488.816H98.3619C98.5111 488.558 98.7274 488.354 99.0107 488.204C99.2939 488.054 99.6168 487.979 99.9793 487.979C100.546 487.979 100.969 488.123 101.249 488.411C101.533 488.696 101.674 489.154 101.674 489.783V493H100.916Z" fill="white"/>
<path d="M104 493H103.242V486H104V493Z" fill="white"/>
<path d="M593.305 499H556.318V453L584.611 453.083L593.305 462.525V499Z" fill="url(#paint4_linear)"/>
<path d="M567.38 479.243C567.334 479.29 566.72 478.734 565.766 477.801C564.812 476.868 563.514 475.555 562.102 474.082L561.946 473.916L562.102 473.75V473.735C563.508 472.253 564.799 470.927 565.754 469.985C566.708 469.043 567.319 468.481 567.365 468.528C567.411 468.574 566.889 469.215 565.999 470.218C565.109 471.222 563.851 472.581 562.449 474.067H562.433V473.75C563.845 475.223 565.1 476.574 565.993 477.568C566.886 478.562 567.429 479.197 567.38 479.243Z" fill="#263238"/>
<path d="M582.223 468.528C582.272 468.482 582.886 469.037 583.841 469.97C584.795 470.903 586.093 472.216 587.502 473.689L587.661 473.855L587.505 474.021H587.489C586.081 475.506 584.789 476.828 583.838 477.771C582.886 478.713 582.272 479.274 582.223 479.228C582.174 479.182 582.702 478.541 583.592 477.537C584.482 476.534 585.74 475.174 587.139 473.692V473.674V474.005C585.731 472.532 584.473 471.182 583.58 470.191C582.687 469.2 582.177 468.574 582.223 468.528Z" fill="#263238"/>
<path d="M570.302 480.934C570.191 480.867 572.109 477.522 574.598 473.465C577.087 469.408 579.179 466.177 579.293 466.247C579.407 466.318 577.489 469.66 574.997 473.717C572.505 477.774 570.415 481.005 570.302 480.934Z" fill="#263238"/>
<path d="M584.608 453.086L584.575 460.791C584.574 461.057 584.626 461.32 584.729 461.565C584.832 461.811 584.983 462.032 585.173 462.218C585.364 462.404 585.59 462.549 585.837 462.645C586.085 462.742 586.35 462.788 586.615 462.78L593.305 462.531L584.608 453.086Z" fill="#E2AA42"/>
<path d="M584.126 484.208H552V494.305H584.126V484.208Z" fill="url(#paint5_linear)"/>
<path d="M565.146 489.91C565.146 490.309 564.992 490.616 564.684 490.832C564.377 491.048 563.945 491.156 563.389 491.156C562.8 491.156 562.341 491.066 562.012 490.887V490.285C562.225 490.389 562.453 490.471 562.696 490.531C562.942 490.591 563.178 490.621 563.405 490.621C563.756 490.621 564.026 490.568 564.215 490.461C564.404 490.352 564.498 490.186 564.498 489.965C564.498 489.798 564.422 489.656 564.271 489.539C564.123 489.419 563.831 489.279 563.397 489.117C562.984 488.969 562.69 488.84 562.514 488.73C562.341 488.618 562.212 488.492 562.126 488.352C562.042 488.211 562 488.043 562 487.848C562 487.499 562.147 487.224 562.441 487.023C562.735 486.82 563.139 486.719 563.652 486.719C564.13 486.719 564.596 486.812 565.053 487L564.814 487.527C564.368 487.35 563.965 487.262 563.603 487.262C563.285 487.262 563.045 487.31 562.883 487.406C562.721 487.503 562.64 487.635 562.64 487.805C562.64 487.919 562.669 488.017 562.729 488.098C562.791 488.178 562.889 488.255 563.024 488.328C563.159 488.401 563.418 488.507 563.802 488.645C564.328 488.829 564.683 489.016 564.866 489.203C565.053 489.391 565.146 489.626 565.146 489.91Z" fill="white"/>
<path d="M567.919 490.613C568.367 490.613 568.694 490.497 568.899 490.266C569.104 490.034 569.213 489.643 569.227 489.094V488.949C569.227 488.35 569.121 487.919 568.911 487.656C568.7 487.393 568.367 487.262 567.911 487.262C567.517 487.262 567.215 487.41 567.004 487.707C566.796 488.001 566.692 488.418 566.692 488.957C566.692 489.496 566.795 489.908 567 490.191C567.208 490.473 567.514 490.613 567.919 490.613ZM567.818 491.156C567.246 491.156 566.799 490.962 566.478 490.574C566.157 490.186 565.996 489.645 565.996 488.949C565.996 488.249 566.158 487.702 566.482 487.309C566.806 486.915 567.256 486.719 567.834 486.719C568.441 486.719 568.908 486.94 569.235 487.383H569.271L569.368 486.797H569.899V493H569.227V491.168C569.227 490.908 569.242 490.686 569.271 490.504H569.219C568.908 490.939 568.441 491.156 567.818 491.156Z" fill="white"/>
<path d="M572 491.078H571.328V485H572V491.078Z" fill="white"/>
<path d="M654.305 499H617.318V453L645.611 453.083L654.305 462.525V499Z" fill="url(#paint6_linear)"/>
<path d="M628.38 479.243C628.334 479.29 627.72 478.734 626.766 477.801C625.812 476.868 624.514 475.555 623.102 474.082L622.946 473.916L623.102 473.75V473.735C624.508 472.253 625.799 470.927 626.754 469.985C627.708 469.043 628.319 468.481 628.365 468.528C628.411 468.574 627.889 469.215 626.999 470.218C626.109 471.222 624.851 472.581 623.449 474.067H623.433V473.75C624.845 475.223 626.1 476.574 626.993 477.568C627.886 478.562 628.429 479.197 628.38 479.243Z" fill="#263238"/>
<path d="M643.223 468.528C643.272 468.482 643.886 469.037 644.841 469.97C645.795 470.903 647.093 472.216 648.502 473.689L648.661 473.855L648.505 474.021H648.489C647.081 475.506 645.789 476.828 644.838 477.771C643.886 478.713 643.272 479.274 643.223 479.228C643.174 479.182 643.702 478.541 644.592 477.537C645.482 476.534 646.74 475.174 648.139 473.692V473.674V474.005C646.731 472.532 645.473 471.182 644.58 470.191C643.687 469.2 643.177 468.574 643.223 468.528Z" fill="#263238"/>
<path d="M631.302 480.934C631.191 480.867 633.109 477.522 635.598 473.465C638.087 469.408 640.179 466.177 640.293 466.247C640.407 466.318 638.489 469.66 635.997 473.717C633.505 477.774 631.415 481.005 631.302 480.934Z" fill="#263238"/>
<path d="M645.608 453.086L645.575 460.791C645.574 461.057 645.626 461.32 645.729 461.565C645.832 461.811 645.983 462.032 646.173 462.218C646.364 462.404 646.59 462.549 646.837 462.645C647.085 462.742 647.35 462.788 647.615 462.78L654.305 462.531L645.608 453.086Z" fill="#E2AA42"/>
<path d="M645.126 484.208H613V494.305H645.126V484.208Z" fill="url(#paint7_linear)"/>
<path d="M623.305 490.051L621.115 487.335H622.201L623.862 489.467L625.517 487.335H626.592L624.402 490.051L626.707 492.898H625.626L623.862 490.645L622.08 492.898H621L623.305 490.051Z" fill="white"/>
<path d="M628.914 492.898H627.96V485H628.914V492.898Z" fill="white"/>
<path d="M635 491.381C635 491.898 634.782 492.298 634.345 492.579C633.908 492.86 633.295 493 632.506 493C631.67 493 631.019 492.883 630.552 492.65V491.868C630.854 492.003 631.178 492.11 631.523 492.188C631.872 492.266 632.207 492.305 632.529 492.305C633.027 492.305 633.41 492.235 633.678 492.096C633.946 491.954 634.08 491.739 634.08 491.452C634.08 491.235 633.973 491.051 633.759 490.898C633.548 490.743 633.134 490.56 632.517 490.35C631.931 490.157 631.513 489.99 631.264 489.848C631.019 489.702 630.835 489.538 630.713 489.355C630.594 489.173 630.534 488.954 630.534 488.701C630.534 488.247 630.743 487.89 631.161 487.629C631.579 487.365 632.151 487.234 632.879 487.234C633.557 487.234 634.22 487.355 634.868 487.599L634.529 488.284C633.897 488.054 633.324 487.939 632.81 487.939C632.358 487.939 632.017 488.002 631.787 488.127C631.557 488.252 631.443 488.425 631.443 488.645C631.443 488.794 631.485 488.92 631.569 489.025C631.657 489.13 631.797 489.23 631.989 489.325C632.18 489.42 632.548 489.557 633.092 489.736C633.839 489.976 634.343 490.218 634.603 490.462C634.868 490.706 635 491.012 635 491.381Z" fill="white"/>
<path d="M648.762 0H32.6731V418.935H648.762V0Z" fill="url(#paint8_linear)"/>
<path d="M648.762 357.136H32.6726V418.935H648.762V357.136Z" fill="#355EB7"/>
<path d="M350.752 383.88C350.752 385.899 350.153 387.874 349.031 389.553C347.908 391.233 346.314 392.542 344.447 393.314C342.581 394.087 340.528 394.29 338.547 393.896C336.566 393.502 334.746 392.529 333.318 391.101C331.89 389.673 330.917 387.853 330.523 385.872C330.129 383.891 330.332 381.838 331.104 379.971C331.877 378.105 333.186 376.51 334.866 375.388C336.545 374.266 338.52 373.667 340.539 373.667C341.881 373.665 343.21 373.928 344.45 374.44C345.69 374.953 346.816 375.705 347.765 376.654C348.714 377.603 349.466 378.729 349.978 379.969C350.491 381.209 350.754 382.538 350.752 383.88Z" fill="white"/>
<path d="M620.334 27.2378H61.1001V328.075H620.334V27.2378Z" fill="white"/>
<path d="M620.334 27.2378H61.1001V328.075H620.334V27.2378Z" fill="white"/>
<path d="M620.334 27.2378H61.1001V35.9978H620.334V27.2378Z" fill="#FCCC6D"/>
<path d="M68.068 31.61C68.071 32.0415 67.9459 32.4642 67.7084 32.8244C67.4709 33.1847 67.1317 33.4663 66.7339 33.6336C66.3362 33.8008 65.8977 33.8462 65.4741 33.7639C65.0505 33.6816 64.6609 33.4753 64.3547 33.1713C64.0485 32.8672 63.8395 32.4791 63.7542 32.0561C63.6689 31.6331 63.7111 31.1943 63.8755 30.7954C64.0399 30.3964 64.3191 30.0553 64.6777 29.8153C65.0363 29.5752 65.458 29.447 65.8896 29.447C66.4646 29.447 67.0164 29.6744 67.4245 30.0796C67.8326 30.4848 68.0639 31.0349 68.068 31.61Z" fill="#C7C7C7"/>
<path d="M76.9207 31.61C76.9238 32.0422 76.7982 32.4655 76.5601 32.8261C76.3219 33.1867 75.9818 33.4683 75.5831 33.6351C75.1845 33.8019 74.7452 33.8463 74.3212 33.7627C73.8972 33.6792 73.5076 33.4714 73.202 33.1658C72.8964 32.8602 72.6886 32.4707 72.6051 32.0467C72.5215 31.6226 72.566 31.1834 72.7328 30.7847C72.8995 30.386 73.1811 30.046 73.5417 29.8078C73.9023 29.5696 74.3256 29.444 74.7578 29.4471C75.3314 29.4471 75.8816 29.675 76.2872 30.0806C76.6929 30.4862 76.9207 31.0364 76.9207 31.61Z" fill="white"/>
<path d="M85.7271 31.61C85.7302 32.0422 85.6046 32.4655 85.3664 32.8261C85.1283 33.1867 84.7882 33.4683 84.3895 33.6351C83.9908 33.8019 83.5516 33.8463 83.1276 33.7627C82.7035 33.6792 82.314 33.4714 82.0084 33.1658C81.7028 32.8602 81.495 32.4707 81.4115 32.0467C81.3279 31.6226 81.3723 31.1834 81.5391 30.7847C81.7059 30.386 81.9875 30.046 82.3481 29.8078C82.7087 29.5696 83.132 29.444 83.5642 29.4471C84.1366 29.4511 84.6844 29.6803 85.0891 30.0851C85.4939 30.4898 85.7231 31.0376 85.7271 31.61Z" fill="#FFC727"/>
<mask id="mask0" mask-type="alpha" maskUnits="userSpaceOnUse" x="61" y="38" width="560" height="301">
<path d="M620.334 38.0786H61.1001V338.916H620.334V38.0786Z" fill="white"/>
</mask>
<g mask="url(#mask0)">
<path d="M358.461 83.0725C358.966 82.9603 359.19 83.1286 359.497 83.4653C361.236 85.3989 366.795 92.1881 368.306 94.0397C368.586 94.3764 368.392 94.7432 368.168 94.9374C356.946 103.69 344.46 116.091 337.502 124.956C337.364 125.154 337.476 125.154 337.588 125.124C349.708 119.906 378.181 111.572 391.004 109.245V93.0038L340.817 53.3044L290.543 92.9736V110.73C306.111 101.476 342.133 87.1383 358.461 83.0725Z" fill="#558BFF"/>
<path d="M317.613 151.301C317.194 151.526 316.853 151.47 316.516 151.133L307.146 139.967C306.896 139.657 306.866 139.488 307.202 139.014C314.445 128.409 329.227 111.883 338.654 104.899C338.822 104.787 338.766 104.645 338.567 104.731C328.748 107.929 300.836 119.936 290.512 125.772V163.697H390.978V127.175C377.287 129.501 336.271 141.707 317.613 151.301Z" fill="#558BFF"/>
<path d="M606.17 255.813H376.794V328.194H606.17V255.813Z" fill="white"/>
<path d="M606.17 328.616H376.794C376.683 328.616 376.576 328.571 376.497 328.492C376.418 328.413 376.373 328.306 376.373 328.195V255.797C376.373 255.685 376.418 255.578 376.497 255.499C376.576 255.42 376.683 255.376 376.794 255.376H606.17C606.282 255.376 606.389 255.42 606.468 255.499C606.547 255.578 606.591 255.685 606.591 255.797V328.195C606.591 328.306 606.547 328.413 606.468 328.492C606.389 328.571 606.282 328.616 606.17 328.616ZM377.19 327.774H605.749V256.217H377.215L377.19 327.774Z" fill="#263238"/>
<path d="M491.791 189.771L377.402 255.813H606.172L491.791 189.771Z" fill="url(#paint9_linear)"/>
<path d="M537.965 249.929H481.2V328.194H537.965V249.929Z" fill="#ECECEC"/>
<path d="M537.965 249.929H481.2V253.254H537.965V249.929Z" fill="#263238" fill-opacity="0.15"/>
<path d="M523.754 328.195H495.418V279.276C495.417 277.415 495.782 275.572 496.494 273.852C497.205 272.132 498.249 270.569 499.565 269.252C500.88 267.936 502.443 266.891 504.162 266.179C505.882 265.466 507.725 265.099 509.586 265.099C513.346 265.099 516.952 266.593 519.61 269.252C522.269 271.91 523.763 275.516 523.763 279.276L523.754 328.195Z" fill="url(#paint10_linear)"/>
<path d="M491.807 268.491H360.329V328.195H491.807V268.491Z" fill="white"/>
<path d="M491.807 268.491H360.329V271.151H491.807V268.491Z" fill="#263238" fill-opacity="0.15"/>
<path d="M477.336 273.417H374.792V328.195H477.336V273.417Z" fill="url(#paint11_linear)"/>
<path d="M426.068 224.809L356.288 265.099H495.848L426.068 224.809Z" fill="url(#paint12_linear)"/>
<path d="M495.84 265.099H356.288V268.492H495.84V265.099Z" fill="#3159AF"/>
<path d="M509.578 227.216L473.446 248.077H545.718L509.578 227.216Z" fill="url(#paint13_linear)"/>
<path d="M545.718 248.077H473.446V251.428H545.718V248.077Z" fill="#3159AF"/>
<path d="M386.829 277.82H378.528V286.12H386.829V277.82Z" fill="white"/>
<path d="M399.289 277.82H390.989V286.12H399.289V277.82Z" fill="white"/>
<path d="M411.739 277.82H403.439V286.12H411.739V277.82Z" fill="white"/>
<path d="M411.739 290.01H403.439V298.31H411.739V290.01Z" fill="white"/>
<path d="M424.198 277.82H415.898V286.12H424.198V277.82Z" fill="white"/>
<path d="M436.658 277.82H428.358V286.12H436.658V277.82Z" fill="white"/>
<path d="M449.108 277.82H440.807V286.12H449.108V277.82Z" fill="white"/>
<path d="M461.567 277.82H453.266V286.12H461.567V277.82Z" fill="white"/>
<path d="M474.027 277.82H465.726V286.12H474.027V277.82Z" fill="white"/>
<path d="M386.829 290.044H378.528V298.344H386.829V290.044Z" fill="white"/>
<path d="M399.289 290.044H390.989V298.344H399.289V290.044Z" fill="white"/>
<path d="M424.198 290.044H415.898V298.344H424.198V290.044Z" fill="white"/>
<path d="M436.658 290.044H428.358V298.344H436.658V290.044Z" fill="white"/>
<path d="M449.108 290.044H440.807V298.344H449.108V290.044Z" fill="white"/>
<path d="M461.567 290.044H453.266V298.344H461.567V290.044Z" fill="white"/>
<path d="M474.027 290.044H465.726V298.344H474.027V290.044Z" fill="white"/>
<path d="M386.829 302.258H378.528V310.558H386.829V302.258Z" fill="white"/>
<path d="M399.289 302.258H390.989V310.558H399.289V302.258Z" fill="white"/>
<path d="M411.739 302.258H403.439V310.558H411.739V302.258Z" fill="white"/>
<path d="M424.198 302.258H415.898V310.558H424.198V302.258Z" fill="white"/>
<path d="M436.658 302.258H428.358V310.558H436.658V302.258Z" fill="white"/>
<path d="M449.108 302.258H440.807V310.558H449.108V302.258Z" fill="white"/>
<path d="M461.567 302.258H453.266V310.558H461.567V302.258Z" fill="white"/>
<path d="M474.027 302.258H465.726V310.558H474.027V302.258Z" fill="white"/>
<path d="M386.829 314.482H378.528V322.783H386.829V314.482Z" fill="white"/>
<path d="M399.289 314.482H390.989V322.783H399.289V314.482Z" fill="white"/>
<path d="M411.739 314.482H403.439V322.783H411.739V314.482Z" fill="white"/>
<path d="M424.198 314.482H415.898V322.783H424.198V314.482Z" fill="white"/>
<path d="M436.658 314.482H428.358V322.783H436.658V314.482Z" fill="white"/>
<path d="M449.108 314.482H440.807V322.783H449.108V314.482Z" fill="white"/>
<path d="M461.567 314.482H453.266V322.783H461.567V314.482Z" fill="white"/>
<path d="M474.027 314.482H465.726V322.783H474.027V314.482Z" fill="white"/>
<path d="M501.126 328.616C501.015 328.616 500.908 328.571 500.829 328.493C500.75 328.414 500.705 328.307 500.705 328.195V319.507C500.705 319.395 500.75 319.288 500.829 319.209C500.908 319.131 501.015 319.086 501.126 319.086C501.238 319.086 501.345 319.131 501.424 319.209C501.503 319.288 501.547 319.395 501.547 319.507V328.195C501.547 328.307 501.503 328.414 501.424 328.493C501.345 328.571 501.238 328.616 501.126 328.616Z" fill="white"/>
<path d="M516.389 328.194V281.968H501.126V315.676" fill="#C79435"/>
<path d="M516.389 328.616C516.277 328.616 516.17 328.572 516.091 328.493C516.012 328.414 515.968 328.307 515.968 328.195V282.399H501.547V315.686C501.547 315.797 501.503 315.904 501.424 315.983C501.345 316.062 501.238 316.107 501.126 316.107C501.015 316.107 500.908 316.062 500.829 315.983C500.75 315.904 500.705 315.797 500.705 315.686V282.012C500.708 281.901 500.753 281.795 500.831 281.717C500.91 281.638 501.015 281.593 501.126 281.591H516.389C516.5 281.593 516.606 281.638 516.684 281.717C516.763 281.795 516.808 281.901 516.81 282.012V328.195C516.81 328.307 516.765 328.414 516.687 328.493C516.608 328.572 516.501 328.616 516.389 328.616Z" fill="white"/>
<path d="M612.679 328.195H528.815V249.929L570.747 227.216L612.679 249.929V328.195Z" fill="white"/>
<path d="M619.085 253.261L570.746 227.072L522.408 253.261L520.901 250.483L570.746 223.477L620.592 250.483L619.085 253.261Z" fill="#3159AF"/>
<path d="M528.815 249.929V251.832L570.747 229.119L612.679 251.832V249.929L570.747 227.216L528.815 249.929Z" fill="#263238" fill-opacity="0.15"/>
<path d="M552.403 268.938V260.688H588.585V301.812" fill="white"/>
<path d="M588.585 302.233C588.473 302.233 588.366 302.189 588.287 302.11C588.208 302.031 588.164 301.924 588.164 301.812V261.109H552.807V268.93C552.807 269.042 552.762 269.149 552.683 269.227C552.604 269.306 552.497 269.351 552.386 269.351C552.274 269.351 552.167 269.306 552.088 269.227C552.009 269.149 551.965 269.042 551.965 268.93V260.68C551.965 260.568 552.009 260.461 552.088 260.382C552.167 260.303 552.274 260.259 552.386 260.259H588.585C588.697 260.259 588.804 260.303 588.883 260.382C588.961 260.461 589.006 260.568 589.006 260.68V301.804C589.007 301.86 588.997 301.915 588.976 301.967C588.956 302.019 588.925 302.067 588.886 302.107C588.846 302.147 588.8 302.179 588.748 302.2C588.696 302.222 588.641 302.233 588.585 302.233Z" fill="#D2DCFF"/>
<path d="M588.585 306.063V314.161H552.403V272.078" fill="white"/>
<path d="M588.585 314.584H552.386C552.274 314.584 552.167 314.539 552.088 314.46C552.009 314.382 551.965 314.274 551.965 314.163V272.071C551.965 271.959 552.009 271.852 552.088 271.773C552.167 271.694 552.274 271.65 552.386 271.65C552.497 271.65 552.604 271.694 552.683 271.773C552.762 271.852 552.807 271.959 552.807 272.071V313.733H588.164V306.056C588.164 305.944 588.208 305.837 588.287 305.758C588.366 305.679 588.473 305.635 588.585 305.635C588.697 305.635 588.804 305.679 588.883 305.758C588.961 305.837 589.006 305.944 589.006 306.056V314.154C589.006 314.267 588.962 314.375 588.883 314.455C588.804 314.535 588.697 314.582 588.585 314.584Z" fill="#D2DCFF"/>
<path d="M586.178 276.759H572.103V286.541H586.178V276.759Z" fill="#ECB853"/>
<path d="M586.178 289.757H572.103V299.539H586.178V289.757Z" fill="#ECB853"/>
<path d="M586.178 263.094H572.103V273.533H586.178V263.094Z" fill="#ECB853"/>
<path d="M568.886 263.094H554.81V273.533H568.886V263.094Z" fill="#ECB853"/>
<path d="M568.886 289.757H554.81V299.539H568.886V289.757Z" fill="#ECB853"/>
<path d="M568.886 276.759H554.81V286.541H568.886V276.759Z" fill="#ECB853"/>
<path d="M586.178 302.746H572.103V311.745H586.178V302.746Z" fill="#ECB853"/>
<path d="M568.886 302.746H554.81V311.745H568.886V302.746Z" fill="#ECB853"/>
<path d="M361.945 255.813H132.569V328.195H361.945V255.813Z" fill="white"/>
<path d="M361.946 328.616H132.569C132.458 328.616 132.351 328.572 132.272 328.493C132.193 328.414 132.148 328.307 132.148 328.195V255.797C132.148 255.685 132.193 255.578 132.272 255.499C132.351 255.42 132.458 255.376 132.569 255.376H361.946C362.057 255.376 362.164 255.42 362.243 255.499C362.322 255.578 362.366 255.685 362.366 255.797V328.195C362.366 328.307 362.322 328.414 362.243 328.493C362.164 328.572 362.057 328.616 361.946 328.616ZM132.965 327.774H361.525V256.218H132.99L132.965 327.774Z" fill="#263238"/>
<path d="M247.565 189.771L133.176 255.813H361.946L247.565 189.771Z" fill="url(#paint14_linear)"/>
<path d="M293.74 249.929H236.975V328.195H293.74V249.929Z" fill="#ECECEC"/>
<path d="M293.74 249.929H236.975V253.254H293.74V249.929Z" fill="#263238" fill-opacity="0.15"/>
<path d="M279.529 328.196H251.193V279.276C251.192 277.415 251.558 275.572 252.269 273.852C252.981 272.132 254.024 270.569 255.34 269.252C256.656 267.936 258.218 266.891 259.937 266.179C261.657 265.466 263.5 265.1 265.361 265.1C269.121 265.1 272.727 266.593 275.386 269.252C278.044 271.91 279.538 275.516 279.538 279.276L279.529 328.196Z" fill="url(#paint15_linear)"/>
<path d="M247.582 268.491H116.104V328.195H247.582V268.491Z" fill="white"/>
<path d="M247.582 268.491H116.104V271.152H247.582V268.491Z" fill="#263238" fill-opacity="0.15"/>
<path d="M233.111 273.417H130.567V328.195H233.111V273.417Z" fill="url(#paint16_linear)"/>
<path d="M181.843 224.809L112.063 265.099H251.623L181.843 224.809Z" fill="url(#paint17_linear)"/>
<path d="M251.615 265.1H112.063V268.492H251.615V265.1Z" fill="#3159AF"/>
<path d="M265.352 227.216L229.221 248.077H301.493L265.352 227.216Z" fill="url(#paint18_linear)"/>
<path d="M301.493 248.077H229.221V251.428H301.493V248.077Z" fill="#3159AF"/>
<path d="M142.604 277.82H134.303V286.12H142.604V277.82Z" fill="white"/>
<path d="M155.064 277.82H146.764V286.12H155.064V277.82Z" fill="white"/>
<path d="M167.514 277.82H159.214V286.12H167.514V277.82Z" fill="white"/>
<path d="M167.514 290.01H159.214V298.311H167.514V290.01Z" fill="white"/>
<path d="M179.973 277.82H171.673V286.12H179.973V277.82Z" fill="white"/>
<path d="M192.433 277.82H184.132V286.12H192.433V277.82Z" fill="white"/>
<path d="M204.883 277.82H196.582V286.12H204.883V277.82Z" fill="white"/>
<path d="M217.342 277.82H209.041V286.12H217.342V277.82Z" fill="white"/>
<path d="M229.802 277.82H221.501V286.12H229.802V277.82Z" fill="white"/>
<path d="M142.604 290.044H134.303V298.344H142.604V290.044Z" fill="white"/>
<path d="M155.064 290.044H146.764V298.344H155.064V290.044Z" fill="white"/>
<path d="M179.973 290.044H171.673V298.344H179.973V290.044Z" fill="white"/>
<path d="M192.433 290.044H184.132V298.344H192.433V290.044Z" fill="white"/>
<path d="M204.883 290.044H196.582V298.344H204.883V290.044Z" fill="white"/>
<path d="M217.342 290.044H209.041V298.344H217.342V290.044Z" fill="white"/>
<path d="M229.802 290.044H221.501V298.344H229.802V290.044Z" fill="white"/>
<path d="M142.604 302.258H134.303V310.559H142.604V302.258Z" fill="white"/>
<path d="M155.064 302.258H146.764V310.559H155.064V302.258Z" fill="white"/>
<path d="M167.514 302.258H159.214V310.559H167.514V302.258Z" fill="white"/>
<path d="M179.973 302.258H171.673V310.559H179.973V302.258Z" fill="white"/>
<path d="M192.433 302.258H184.132V310.559H192.433V302.258Z" fill="white"/>
<path d="M204.883 302.258H196.582V310.559H204.883V302.258Z" fill="white"/>
<path d="M217.342 302.258H209.041V310.559H217.342V302.258Z" fill="white"/>
<path d="M229.802 302.258H221.501V310.559H229.802V302.258Z" fill="white"/>
<path d="M142.604 314.482H134.303V322.783H142.604V314.482Z" fill="white"/>
<path d="M155.064 314.482H146.764V322.783H155.064V314.482Z" fill="white"/>
<path d="M167.514 314.482H159.214V322.783H167.514V314.482Z" fill="white"/>
<path d="M179.973 314.482H171.673V322.783H179.973V314.482Z" fill="white"/>
<path d="M192.433 314.482H184.132V322.783H192.433V314.482Z" fill="white"/>
<path d="M204.883 314.482H196.582V322.783H204.883V314.482Z" fill="white"/>
<path d="M217.342 314.482H209.041V322.783H217.342V314.482Z" fill="white"/>
<path d="M229.802 314.482H221.501V322.783H229.802V314.482Z" fill="white"/>
<path d="M256.901 328.616C256.79 328.616 256.683 328.572 256.604 328.493C256.525 328.414 256.48 328.307 256.48 328.195V319.507C256.48 319.396 256.525 319.289 256.604 319.21C256.683 319.131 256.79 319.086 256.901 319.086C257.013 319.086 257.12 319.131 257.199 319.21C257.278 319.289 257.322 319.396 257.322 319.507V328.195C257.322 328.307 257.278 328.414 257.199 328.493C257.12 328.572 257.013 328.616 256.901 328.616Z" fill="white"/>
<path d="M272.164 328.194V281.969H256.901V315.676" fill="#C79435"/>
<path d="M272.164 328.616C272.052 328.616 271.945 328.572 271.866 328.493C271.787 328.414 271.743 328.307 271.743 328.195V282.399H257.322V315.686C257.322 315.797 257.278 315.904 257.199 315.983C257.12 316.062 257.013 316.107 256.901 316.107C256.79 316.107 256.683 316.062 256.604 315.983C256.525 315.904 256.48 315.797 256.48 315.686V282.012C256.483 281.901 256.528 281.795 256.606 281.717C256.685 281.638 256.79 281.593 256.901 281.591H272.164C272.275 281.593 272.381 281.638 272.459 281.717C272.538 281.795 272.583 281.901 272.585 282.012V328.195C272.585 328.307 272.541 328.414 272.462 328.493C272.383 328.572 272.276 328.616 272.164 328.616Z" fill="white"/>
<path d="M368.454 328.195H284.59V249.929L326.522 227.216L368.454 249.929V328.195Z" fill="white"/>
<path d="M374.86 253.261L326.521 227.072L278.183 253.261L276.676 250.483L326.521 223.477L376.367 250.483L374.86 253.261Z" fill="#3159AF"/>
<path d="M284.59 249.929V251.832L326.522 229.119L368.454 251.832V249.929L326.522 227.216L284.59 249.929Z" fill="#263238" fill-opacity="0.15"/>
<path d="M308.178 268.938V260.688H344.36V301.812" fill="white"/>
<path d="M344.36 302.233C344.248 302.233 344.141 302.189 344.062 302.11C343.983 302.031 343.939 301.924 343.939 301.812V261.109H308.582V268.93C308.582 269.042 308.537 269.149 308.458 269.228C308.379 269.307 308.272 269.351 308.161 269.351C308.049 269.351 307.942 269.307 307.863 269.228C307.784 269.149 307.74 269.042 307.74 268.93V260.68C307.74 260.568 307.784 260.461 307.863 260.382C307.942 260.303 308.049 260.259 308.161 260.259H344.36C344.471 260.259 344.578 260.303 344.657 260.382C344.736 260.461 344.781 260.568 344.781 260.68V301.804C344.782 301.86 344.772 301.915 344.751 301.968C344.73 302.02 344.7 302.067 344.66 302.107C344.621 302.147 344.574 302.179 344.523 302.2C344.471 302.222 344.416 302.233 344.36 302.233Z" fill="#D2DCFF"/>
<path d="M344.36 306.063V314.161H308.178V272.078" fill="white"/>
<path d="M344.36 314.584H308.161C308.049 314.584 307.942 314.54 307.863 314.461C307.784 314.382 307.74 314.275 307.74 314.163V272.071C307.74 271.959 307.784 271.852 307.863 271.773C307.942 271.694 308.049 271.65 308.161 271.65C308.272 271.65 308.379 271.694 308.458 271.773C308.537 271.852 308.582 271.959 308.582 272.071V313.734H343.939V306.056C343.939 305.944 343.983 305.837 344.062 305.758C344.141 305.679 344.248 305.635 344.36 305.635C344.471 305.635 344.578 305.679 344.657 305.758C344.736 305.837 344.781 305.944 344.781 306.056V314.155C344.781 314.267 344.737 314.375 344.658 314.455C344.579 314.535 344.472 314.582 344.36 314.584Z" fill="#D2DCFF"/>
<path d="M341.953 276.759H327.878V286.541H341.953V276.759Z" fill="#ECB853"/>
<path d="M341.953 289.757H327.878V299.539H341.953V289.757Z" fill="#ECB853"/>
<path d="M341.953 263.095H327.878V273.533H341.953V263.095Z" fill="#ECB853"/>
<path d="M324.661 263.095H310.585V273.533H324.661V263.095Z" fill="#ECB853"/>
<path d="M324.661 289.757H310.585V299.539H324.661V289.757Z" fill="#ECB853"/>
<path d="M324.661 276.759H310.585V286.541H324.661V276.759Z" fill="#ECB853"/>
<path d="M341.953 302.746H327.878V311.746H341.953V302.746Z" fill="#ECB853"/>
<path d="M324.661 302.746H310.585V311.746H324.661V302.746Z" fill="#ECB853"/>
<path d="M123.811 255.813H-105.565V328.194H123.811V255.813Z" fill="white"/>
<path d="M123.811 328.616H-105.565C-105.677 328.616 -105.784 328.571 -105.863 328.493C-105.941 328.414 -105.986 328.307 -105.986 328.195V255.797C-105.986 255.685 -105.941 255.578 -105.863 255.499C-105.784 255.42 -105.677 255.376 -105.565 255.376H123.811C123.923 255.376 124.03 255.42 124.109 255.499C124.188 255.578 124.232 255.685 124.232 255.797V328.195C124.232 328.307 124.188 328.414 124.109 328.493C124.03 328.571 123.923 328.616 123.811 328.616ZM-105.169 327.774H123.39V256.218H-105.144L-105.169 327.774Z" fill="#263238"/>
<path d="M9.43147 189.771L-104.958 255.813H123.812L9.43147 189.771Z" fill="url(#paint19_linear)"/>
<path d="M27.2182 227.216L-8.91357 248.077H63.3584L27.2182 227.216Z" fill="url(#paint20_linear)"/>
<path d="M63.3584 248.077H-8.91357V251.428H63.3584V248.077Z" fill="#3159AF"/>
<path d="M130.319 328.195H46.4553V249.929L88.3874 227.216L130.319 249.929V328.195Z" fill="white"/>
<path d="M136.726 253.261L88.3871 227.072L40.0486 253.261L38.5417 250.483L88.3871 223.477L138.232 250.483L136.726 253.261Z" fill="#3159AF"/>
<path d="M46.4553 249.929V251.832L88.3874 229.119L130.319 251.832V249.929L88.3874 227.216L46.4553 249.929Z" fill="#263238" fill-opacity="0.15"/>
<path d="M70.0435 268.938V260.688H106.226V301.812" fill="white"/>
<path d="M106.226 302.233C106.114 302.233 106.007 302.189 105.928 302.11C105.849 302.031 105.805 301.924 105.805 301.812V261.109H70.4476V268.93C70.4476 269.042 70.4032 269.149 70.3243 269.227C70.2453 269.306 70.1383 269.351 70.0266 269.351C69.915 269.351 69.8079 269.306 69.729 269.227C69.65 269.149 69.6057 269.042 69.6057 268.93V260.68C69.6057 260.568 69.65 260.461 69.729 260.382C69.8079 260.303 69.915 260.259 70.0266 260.259H106.226C106.337 260.259 106.444 260.303 106.523 260.382C106.602 260.461 106.647 260.568 106.647 260.68V301.804C106.648 301.86 106.638 301.915 106.617 301.967C106.596 302.019 106.566 302.067 106.526 302.107C106.487 302.147 106.44 302.179 106.389 302.2C106.337 302.222 106.282 302.233 106.226 302.233Z" fill="#D2DCFF"/>
<path d="M106.226 306.063V314.161H70.0435V272.078" fill="white"/>
<path d="M106.226 314.584H70.0266C69.915 314.584 69.8079 314.539 69.729 314.46C69.65 314.382 69.6057 314.274 69.6057 314.163V272.071C69.6057 271.959 69.65 271.852 69.729 271.773C69.8079 271.694 69.915 271.65 70.0266 271.65C70.1383 271.65 70.2453 271.694 70.3243 271.773C70.4032 271.852 70.4476 271.959 70.4476 272.071V313.733H105.805V306.056C105.805 305.944 105.849 305.837 105.928 305.758C106.007 305.679 106.114 305.635 106.226 305.635C106.337 305.635 106.444 305.679 106.523 305.758C106.602 305.837 106.647 305.944 106.647 306.056V314.154C106.647 314.267 106.603 314.375 106.524 314.455C106.445 314.535 106.338 314.582 106.226 314.584Z" fill="#D2DCFF"/>
<path d="M103.819 276.759H89.7434V286.541H103.819V276.759Z" fill="#ECB853"/>
<path d="M103.819 289.757H89.7434V299.539H103.819V289.757Z" fill="#ECB853"/>
<path d="M103.819 263.095H89.7434V273.533H103.819V263.095Z" fill="#ECB853"/>
<path d="M86.5263 263.095H72.4507V273.533H86.5263V263.095Z" fill="#ECB853"/>
<path d="M86.5263 289.757H72.4507V299.539H86.5263V289.757Z" fill="#ECB853"/>
<path d="M86.5263 276.759H72.4507V286.541H86.5263V276.759Z" fill="#ECB853"/>
<path d="M103.819 302.746H89.7434V311.745H103.819V302.746Z" fill="#ECB853"/>
<path d="M86.5263 302.746H72.4507V311.745H86.5263V302.746Z" fill="#ECB853"/>
</g>
<path d="M670.165 420.382H514.988C513.328 420.367 511.687 420.026 510.16 419.378C508.632 418.73 507.246 417.787 506.083 416.604C504.919 415.42 504 414.019 503.378 412.48C502.756 410.941 502.444 409.295 502.458 407.636V163.731C502.433 160.381 503.739 157.159 506.088 154.772C508.438 152.385 511.639 151.029 514.988 151H670.165C673.51 151.033 676.705 152.392 679.049 154.779C681.392 157.166 682.693 160.386 682.664 163.731V407.636C682.68 409.293 682.37 410.938 681.75 412.475C681.131 414.013 680.215 415.414 679.054 416.597C677.894 417.781 676.511 418.724 674.986 419.374C673.461 420.023 671.822 420.365 670.165 420.382Z" fill="url(#paint21_linear)"/>
<path d="M675.109 170.019H510.276V401.888H675.109V170.019Z" fill="white"/>
<path d="M675.109 170.019H510.276V401.888H675.109V170.019Z" fill="white"/>
<path d="M522.95 224.096H518.386C517.662 224.096 517.074 224.683 517.074 225.408C517.074 226.132 517.662 226.72 518.386 226.72H522.95C523.674 226.72 524.262 226.132 524.262 225.408C524.262 224.683 523.674 224.096 522.95 224.096Z" fill="#DFE6FF"/>
<path d="M610.631 224.096H530.81C530.085 224.096 529.498 224.683 529.498 225.408C529.498 226.132 530.085 226.72 530.81 226.72H610.631C611.356 226.72 611.943 226.132 611.943 225.408C611.943 224.683 611.356 224.096 610.631 224.096Z" fill="#DFE6FF"/>
<path d="M628.695 224.096H617.673C616.948 224.096 616.361 224.683 616.361 225.408C616.361 226.132 616.948 226.72 617.673 226.72H628.695C629.419 226.72 630.007 226.132 630.007 225.408C630.007 224.683 629.419 224.096 628.695 224.096Z" fill="#FFC727"/>
<path d="M659.922 259.225H648.889C648.164 259.225 647.577 259.812 647.577 260.537C647.577 261.261 648.164 261.849 648.889 261.849H659.922C660.646 261.849 661.234 261.261 661.234 260.537C661.234 259.812 660.646 259.225 659.922 259.225Z" fill="#DFE6FF"/>
<path d="M655.269 224.096H634.29C633.566 224.096 632.979 224.683 632.979 225.408C632.979 226.132 633.566 226.72 634.29 226.72H655.269C655.993 226.72 656.581 226.132 656.581 225.408C656.581 224.683 655.993 224.096 655.269 224.096Z" fill="#A6A6A6"/>
<path d="M530.137 231.126H525.573C524.849 231.126 524.261 231.714 524.261 232.438C524.261 233.163 524.849 233.75 525.573 233.75H530.137C530.861 233.75 531.449 233.163 531.449 232.438C531.449 231.714 530.861 231.126 530.137 231.126Z" fill="#DFE6FF"/>
<path d="M589.294 231.126H537.817C537.093 231.126 536.505 231.714 536.505 232.438C536.505 233.163 537.093 233.75 537.817 233.75H589.294C590.018 233.75 590.606 233.163 590.606 232.438C590.606 231.714 590.018 231.126 589.294 231.126Z" fill="#A6A6A6"/>
<path d="M643.024 259.225H613.973C613.248 259.225 612.661 259.812 612.661 260.537C612.661 261.261 613.248 261.849 613.973 261.849H643.024C643.749 261.849 644.336 261.261 644.336 260.537C644.336 259.812 643.749 259.225 643.024 259.225Z" fill="#A6A6A6"/>
<path d="M579.864 252.206H530.81C530.085 252.206 529.498 252.793 529.498 253.518C529.498 254.242 530.085 254.829 530.81 254.829H579.864C580.589 254.829 581.176 254.242 581.176 253.518C581.176 252.793 580.589 252.206 579.864 252.206Z" fill="#A6A6A6"/>
<path d="M571.444 238.146H537.817C537.093 238.146 536.505 238.733 536.505 239.457C536.505 240.182 537.093 240.769 537.817 240.769H571.444C572.168 240.769 572.756 240.182 572.756 239.457C572.756 238.733 572.168 238.146 571.444 238.146Z" fill="#FFC727"/>
<path d="M638.001 245.175H626.8C626.075 245.175 625.488 245.763 625.488 246.487C625.488 247.212 626.075 247.799 626.8 247.799H638.001C638.725 247.799 639.313 247.212 639.313 246.487C639.313 245.763 638.725 245.175 638.001 245.175Z" fill="#A6A6A6"/>
<path d="M633.359 238.146H578.093C577.368 238.146 576.781 238.733 576.781 239.457C576.781 240.182 577.368 240.769 578.093 240.769H633.359C634.084 240.769 634.671 240.182 634.671 239.457C634.671 238.733 634.084 238.146 633.359 238.146Z" fill="#A6A6A6"/>
<path d="M597.289 259.225H530.81C530.085 259.225 529.498 259.812 529.498 260.537C529.498 261.261 530.085 261.849 530.81 261.849H597.289C598.013 261.849 598.6 261.261 598.6 260.537C598.6 259.812 598.013 259.225 597.289 259.225Z" fill="#FFC727"/>
<path d="M667.591 231.126H632.765C632.041 231.126 631.453 231.714 631.453 232.438C631.453 233.163 632.041 233.75 632.765 233.75H667.591C668.316 233.75 668.903 233.163 668.903 232.438C668.903 231.714 668.316 231.126 667.591 231.126Z" fill="#FFC727"/>
<path d="M627.17 231.126H595.315C594.591 231.126 594.004 231.714 594.004 232.438C594.004 233.163 594.591 233.75 595.315 233.75H627.17C627.895 233.75 628.482 233.163 628.482 232.438C628.482 231.714 627.895 231.126 627.17 231.126Z" fill="#DFE6FF"/>
<path d="M659.35 238.146H638.708C637.983 238.146 637.396 238.733 637.396 239.457C637.396 240.182 637.983 240.769 638.708 240.769H659.35C660.075 240.769 660.662 240.182 660.662 239.457C660.662 238.733 660.075 238.146 659.35 238.146Z" fill="#DFE6FF"/>
<path d="M530.137 238.146H525.573C524.849 238.146 524.261 238.733 524.261 239.457C524.261 240.182 524.849 240.769 525.573 240.769H530.137C530.861 240.769 531.449 240.182 531.449 239.457C531.449 238.733 530.861 238.146 530.137 238.146Z" fill="#DFE6FF"/>
<path d="M522.95 245.175H518.386C517.662 245.175 517.074 245.763 517.074 246.487C517.074 247.212 517.662 247.799 518.386 247.799H522.95C523.674 247.799 524.262 247.212 524.262 246.487C524.262 245.763 523.674 245.175 522.95 245.175Z" fill="#A6A6A6"/>
<path d="M570.659 245.175H530.81C530.085 245.175 529.498 245.763 529.498 246.487C529.498 247.212 530.085 247.799 530.81 247.799H570.659C571.383 247.799 571.971 247.212 571.971 246.487C571.971 245.763 571.383 245.175 570.659 245.175Z" fill="#DFE6FF"/>
<path d="M577.667 266.255H537.817C537.093 266.255 536.505 266.842 536.505 267.567C536.505 268.291 537.093 268.879 537.817 268.879H577.667C578.391 268.879 578.978 268.291 578.978 267.567C578.978 266.842 578.391 266.255 577.667 266.255Z" fill="#DFE6FF"/>
<path d="M646.691 273.285H617.023C616.298 273.285 615.711 273.873 615.711 274.597C615.711 275.322 616.298 275.909 617.023 275.909H646.691C647.416 275.909 648.003 275.322 648.003 274.597C648.003 273.873 647.416 273.285 646.691 273.285Z" fill="#FFC727"/>
<path d="M623.717 266.255H583.744C583.02 266.255 582.432 266.842 582.432 267.567C582.432 268.291 583.02 268.879 583.744 268.879H623.717C624.441 268.879 625.029 268.291 625.029 267.567C625.029 266.842 624.441 266.255 623.717 266.255Z" fill="#FFC727"/>
<path d="M610.688 273.285H576.232C575.507 273.285 574.92 273.873 574.92 274.597C574.92 275.322 575.507 275.909 576.232 275.909H610.688C611.412 275.909 612 275.322 612 274.597C612 273.873 611.412 273.285 610.688 273.285Z" fill="#DFE6FF"/>
<path d="M547.494 273.285H537.817C537.093 273.285 536.505 273.873 536.505 274.597C536.505 275.322 537.093 275.909 537.817 275.909H547.494C548.218 275.909 548.806 275.322 548.806 274.597C548.806 273.873 548.218 273.285 547.494 273.285Z" fill="#A6A6A6"/>
<path d="M628.695 252.206H585.415C584.69 252.206 584.103 252.793 584.103 253.518C584.103 254.242 584.69 254.829 585.415 254.829H628.695C629.419 254.829 630.007 254.242 630.007 253.518C630.007 252.793 629.419 252.206 628.695 252.206Z" fill="#DFE6FF"/>
<path d="M660.875 252.206H634.29C633.566 252.206 632.979 252.793 632.979 253.518C632.979 254.242 633.566 254.829 634.29 254.829H660.875C661.6 254.829 662.187 254.242 662.187 253.518C662.187 252.793 661.6 252.206 660.875 252.206Z" fill="#FFC727"/>
<path d="M620.824 245.175H577.599C576.875 245.175 576.288 245.763 576.288 246.487C576.288 247.212 576.875 247.799 577.599 247.799H620.824C621.548 247.799 622.136 247.212 622.136 246.487C622.136 245.763 621.548 245.175 620.824 245.175Z" fill="#FFC727"/>
<path d="M522.95 252.206H518.386C517.662 252.206 517.074 252.793 517.074 253.518C517.074 254.242 517.662 254.829 518.386 254.829H522.95C523.674 254.829 524.262 254.242 524.262 253.518C524.262 252.793 523.674 252.206 522.95 252.206Z" fill="#DFE6FF"/>
<path d="M522.95 259.225H518.386C517.662 259.225 517.074 259.812 517.074 260.537C517.074 261.261 517.662 261.849 518.386 261.849H522.95C523.674 261.849 524.262 261.261 524.262 260.537C524.262 259.812 523.674 259.225 522.95 259.225Z" fill="#DFE6FF"/>
<path d="M530.137 266.255H525.573C524.849 266.255 524.261 266.842 524.261 267.567C524.261 268.291 524.849 268.879 525.573 268.879H530.137C530.861 268.879 531.449 268.291 531.449 267.567C531.449 266.842 530.861 266.255 530.137 266.255Z" fill="#A6A6A6"/>
<path d="M530.137 273.285H525.573C524.849 273.285 524.261 273.873 524.261 274.597C524.261 275.322 524.849 275.909 525.573 275.909H530.137C530.861 275.909 531.449 275.322 531.449 274.597C531.449 273.873 530.861 273.285 530.137 273.285Z" fill="#DFE6FF"/>
<path d="M522.95 279.161H518.386C517.662 279.161 517.074 279.748 517.074 280.473C517.074 281.197 517.662 281.785 518.386 281.785H522.95C523.674 281.785 524.262 281.197 524.262 280.473C524.262 279.748 523.674 279.161 522.95 279.161Z" fill="#DFE6FF"/>
<path d="M610.631 279.161H530.81C530.085 279.161 529.498 279.748 529.498 280.473C529.498 281.197 530.085 281.785 530.81 281.785H610.631C611.356 281.785 611.943 281.197 611.943 280.473C611.943 279.748 611.356 279.161 610.631 279.161Z" fill="#DFE6FF"/>
<path d="M530.137 286.191H525.573C524.849 286.191 524.261 286.778 524.261 287.503C524.261 288.227 524.849 288.815 525.573 288.815H530.137C530.861 288.815 531.449 288.227 531.449 287.503C531.449 286.778 530.861 286.191 530.137 286.191Z" fill="#DFE6FF"/>
<path d="M530.137 319.445H525.573C524.849 319.445 524.261 320.032 524.261 320.757C524.261 321.481 524.849 322.069 525.573 322.069H530.137C530.861 322.069 531.449 321.481 531.449 320.757C531.449 320.032 530.861 319.445 530.137 319.445Z" fill="#DFE6FF"/>
<path d="M589.294 286.191H537.817C537.093 286.191 536.505 286.778 536.505 287.503C536.505 288.227 537.093 288.815 537.817 288.815H589.294C590.018 288.815 590.606 288.227 590.606 287.503C590.606 286.778 590.018 286.191 589.294 286.191Z" fill="#A6A6A6"/>
<path d="M589.294 319.445H537.817C537.093 319.445 536.505 320.032 536.505 320.757C536.505 321.481 537.093 322.069 537.817 322.069H589.294C590.018 322.069 590.606 321.481 590.606 320.757C590.606 320.032 590.018 319.445 589.294 319.445Z" fill="#A6A6A6"/>
<path d="M579.864 307.27H530.81C530.085 307.27 529.498 307.857 529.498 308.582C529.498 309.306 530.085 309.894 530.81 309.894H579.864C580.589 309.894 581.176 309.306 581.176 308.582C581.176 307.857 580.589 307.27 579.864 307.27Z" fill="#A6A6A6"/>
<path d="M579.864 340.524H530.81C530.085 340.524 529.498 341.111 529.498 341.836C529.498 342.56 530.085 343.148 530.81 343.148H579.864C580.589 343.148 581.176 342.56 581.176 341.836C581.176 341.111 580.589 340.524 579.864 340.524Z" fill="#A6A6A6"/>
<path d="M571.444 293.221H537.817C537.093 293.221 536.505 293.808 536.505 294.533C536.505 295.257 537.093 295.845 537.817 295.845H571.444C572.168 295.845 572.756 295.257 572.756 294.533C572.756 293.808 572.168 293.221 571.444 293.221Z" fill="#FFC727"/>
<path d="M571.444 326.475H537.817C537.093 326.475 536.505 327.062 536.505 327.787C536.505 328.511 537.093 329.099 537.817 329.099H571.444C572.168 329.099 572.756 328.511 572.756 327.787C572.756 327.062 572.168 326.475 571.444 326.475Z" fill="#FFC727"/>
<path d="M633.359 293.221H578.093C577.368 293.221 576.781 293.808 576.781 294.533C576.781 295.257 577.368 295.845 578.093 295.845H633.359C634.084 295.845 634.671 295.257 634.671 294.533C634.671 293.808 634.084 293.221 633.359 293.221Z" fill="#A6A6A6"/>
<path d="M633.359 326.475H578.093C577.368 326.475 576.781 327.062 576.781 327.787C576.781 328.511 577.368 329.099 578.093 329.099H633.359C634.084 329.099 634.671 328.511 634.671 327.787C634.671 327.062 634.084 326.475 633.359 326.475Z" fill="#A6A6A6"/>
<path d="M597.289 314.29H530.81C530.085 314.29 529.498 314.877 529.498 315.601C529.498 316.326 530.085 316.913 530.81 316.913H597.289C598.013 316.913 598.6 316.326 598.6 315.601C598.6 314.877 598.013 314.29 597.289 314.29Z" fill="#FFC727"/>
<path d="M597.289 347.543H530.81C530.085 347.543 529.498 348.131 529.498 348.855C529.498 349.58 530.085 350.167 530.81 350.167H597.289C598.013 350.167 598.6 349.58 598.6 348.855C598.6 348.131 598.013 347.543 597.289 347.543Z" fill="#FFC727"/>
<path d="M667.591 286.191H632.765C632.041 286.191 631.453 286.778 631.453 287.503C631.453 288.227 632.041 288.815 632.765 288.815H667.591C668.316 288.815 668.903 288.227 668.903 287.503C668.903 286.778 668.316 286.191 667.591 286.191Z" fill="#FFC727"/>
<path d="M667.591 319.445H632.765C632.041 319.445 631.453 320.032 631.453 320.757C631.453 321.481 632.041 322.069 632.765 322.069H667.591C668.316 322.069 668.903 321.481 668.903 320.757C668.903 320.032 668.316 319.445 667.591 319.445Z" fill="#FFC727"/>
<path d="M627.17 286.191H595.315C594.591 286.191 594.004 286.778 594.004 287.503C594.004 288.227 594.591 288.815 595.315 288.815H627.17C627.895 288.815 628.482 288.227 628.482 287.503C628.482 286.778 627.895 286.191 627.17 286.191Z" fill="#DFE6FF"/>
<path d="M627.17 319.445H595.315C594.591 319.445 594.004 320.032 594.004 320.757C594.004 321.481 594.591 322.069 595.315 322.069H627.17C627.895 322.069 628.482 321.481 628.482 320.757C628.482 320.032 627.895 319.445 627.17 319.445Z" fill="#DFE6FF"/>
<path d="M659.35 293.221H638.708C637.983 293.221 637.396 293.808 637.396 294.533C637.396 295.257 637.983 295.845 638.708 295.845H659.35C660.075 295.845 660.662 295.257 660.662 294.533C660.662 293.808 660.075 293.221 659.35 293.221Z" fill="#DFE6FF"/>
<path d="M659.35 326.475H638.708C637.983 326.475 637.396 327.062 637.396 327.787C637.396 328.511 637.983 329.099 638.708 329.099H659.35C660.075 329.099 660.662 328.511 660.662 327.787C660.662 327.062 660.075 326.475 659.35 326.475Z" fill="#DFE6FF"/>
<path d="M530.137 293.221H525.573C524.849 293.221 524.261 293.808 524.261 294.533C524.261 295.257 524.849 295.845 525.573 295.845H530.137C530.861 295.845 531.449 295.257 531.449 294.533C531.449 293.808 530.861 293.221 530.137 293.221Z" fill="#DFE6FF"/>
<path d="M530.137 326.475H525.573C524.849 326.475 524.261 327.062 524.261 327.787C524.261 328.511 524.849 329.099 525.573 329.099H530.137C530.861 329.099 531.449 328.511 531.449 327.787C531.449 327.062 530.861 326.475 530.137 326.475Z" fill="#DFE6FF"/>
<path d="M522.95 300.24H518.386C517.662 300.24 517.074 300.827 517.074 301.552C517.074 302.277 517.662 302.864 518.386 302.864H522.95C523.674 302.864 524.262 302.277 524.262 301.552C524.262 300.827 523.674 300.24 522.95 300.24Z" fill="#A6A6A6"/>
<path d="M522.95 333.494H518.386C517.662 333.494 517.074 334.081 517.074 334.806C517.074 335.53 517.662 336.118 518.386 336.118H522.95C523.674 336.118 524.262 335.53 524.262 334.806C524.262 334.081 523.674 333.494 522.95 333.494Z" fill="#A6A6A6"/>
<path d="M570.659 300.24H530.81C530.085 300.24 529.498 300.827 529.498 301.552C529.498 302.277 530.085 302.864 530.81 302.864H570.659C571.383 302.864 571.971 302.277 571.971 301.552C571.971 300.827 571.383 300.24 570.659 300.24Z" fill="#DFE6FF"/>
<path d="M570.659 333.494H530.81C530.085 333.494 529.498 334.081 529.498 334.806C529.498 335.53 530.085 336.118 530.81 336.118H570.659C571.383 336.118 571.971 335.53 571.971 334.806C571.971 334.081 571.383 333.494 570.659 333.494Z" fill="#DFE6FF"/>
<path d="M628.695 307.27H585.415C584.69 307.27 584.103 307.857 584.103 308.582C584.103 309.306 584.69 309.894 585.415 309.894H628.695C629.419 309.894 630.007 309.306 630.007 308.582C630.007 307.857 629.419 307.27 628.695 307.27Z" fill="#DFE6FF"/>
<path d="M628.695 340.524H585.415C584.69 340.524 584.103 341.111 584.103 341.836C584.103 342.56 584.69 343.148 585.415 343.148H628.695C629.419 343.148 630.007 342.56 630.007 341.836C630.007 341.111 629.419 340.524 628.695 340.524Z" fill="#DFE6FF"/>
<path d="M620.824 300.24H577.599C576.875 300.24 576.288 300.827 576.288 301.552C576.288 302.277 576.875 302.864 577.599 302.864H620.824C621.548 302.864 622.136 302.277 622.136 301.552C622.136 300.827 621.548 300.24 620.824 300.24Z" fill="#FFC727"/>
<path d="M620.824 333.494H577.599C576.875 333.494 576.288 334.081 576.288 334.806C576.288 335.53 576.875 336.118 577.599 336.118H620.824C621.548 336.118 622.136 335.53 622.136 334.806C622.136 334.081 621.548 333.494 620.824 333.494Z" fill="#FFC727"/>
<path d="M522.95 307.27H518.386C517.662 307.27 517.074 307.857 517.074 308.582C517.074 309.306 517.662 309.894 518.386 309.894H522.95C523.674 309.894 524.262 309.306 524.262 308.582C524.262 307.857 523.674 307.27 522.95 307.27Z" fill="#DFE6FF"/>
<path d="M522.95 340.524H518.386C517.662 340.524 517.074 341.111 517.074 341.836C517.074 342.56 517.662 343.148 518.386 343.148H522.95C523.674 343.148 524.262 342.56 524.262 341.836C524.262 341.111 523.674 340.524 522.95 340.524Z" fill="#DFE6FF"/>
<path d="M675.109 170.019H510.276V214.035H675.109V170.019Z" fill="url(#paint22_linear)"/>
<path d="M665.345 184.989H656.878V186.349H665.345V184.989Z" fill="#EBEBEB"/>
<path d="M665.345 191.092H656.878V192.452H665.345V191.092Z" fill="#EBEBEB"/>
<path d="M665.345 188.079H656.878V189.439H665.345V188.079Z" fill="#EBEBEB"/>
<path d="M675.31 370H510.276V401.873H675.31V370Z" fill="#D4EAFC"/>
<path d="M572.971 162.108C572.971 161.735 573.119 161.378 573.382 161.114C573.646 160.851 574.004 160.702 574.377 160.702H610.807C610.991 160.702 611.173 160.739 611.343 160.81C611.513 160.881 611.666 160.984 611.796 161.115C611.925 161.246 612.027 161.401 612.096 161.571C612.165 161.742 612.2 161.924 612.197 162.108C612.197 162.291 612.162 162.472 612.092 162.64C612.022 162.809 611.919 162.962 611.79 163.092C611.661 163.221 611.508 163.323 611.339 163.393C611.171 163.463 610.99 163.499 610.807 163.499H574.377C574.193 163.501 574.01 163.466 573.84 163.397C573.669 163.328 573.514 163.226 573.383 163.097C573.253 162.968 573.149 162.814 573.078 162.644C573.007 162.474 572.971 162.292 572.971 162.108Z" fill="#263238"/>
<path d="M592.592 417.106C591.585 417.109 590.6 416.813 589.762 416.256C588.924 415.699 588.27 414.905 587.883 413.976C587.497 413.046 587.395 412.023 587.59 411.035C587.786 410.048 588.27 409.141 588.982 408.429C589.694 407.717 590.601 407.233 591.589 407.037C592.576 406.842 593.599 406.944 594.529 407.33C595.458 407.717 596.252 408.371 596.809 409.209C597.366 410.047 597.662 411.032 597.659 412.039C597.659 413.383 597.125 414.672 596.175 415.622C595.225 416.572 593.936 417.106 592.592 417.106Z" fill="#263238"/>
<path d="M103.869 206H9.54842C8.2831 206.01 7.03216 206.27 5.86723 206.764C4.70229 207.258 3.64618 207.977 2.75936 208.879C1.87255 209.782 1.17241 210.85 0.699007 212.024C0.225599 213.197 -0.0117773 214.453 0.000449393 215.718V409.906C-0.0201351 412.46 0.97377 414.918 2.76394 416.74C4.5541 418.562 6.99423 419.599 9.54842 419.623H103.869C106.423 419.599 108.863 418.562 110.653 416.74C112.444 414.918 113.438 412.46 113.417 409.906V215.718C113.429 214.453 113.192 213.197 112.718 212.024C112.245 210.85 111.545 209.782 110.658 208.879C109.771 207.977 108.715 207.258 107.55 206.764C106.385 206.27 105.134 206.01 103.869 206ZM107.453 403.896C107.55 406.258 106.703 408.561 105.101 410.3C103.499 412.038 101.272 413.069 98.9096 413.165H14.5232C13.3516 413.122 12.2002 412.847 11.1351 412.357C10.07 411.867 9.11225 411.171 8.31689 410.31C7.52153 409.448 6.90421 408.438 6.50044 407.337C6.09666 406.237 5.91436 405.067 5.96402 403.896V223.134C5.96402 212.721 9.78012 212.211 14.5232 212.211H31.4252C32.3985 212.211 33.202 213.323 33.202 214.714V215.301C33.202 218.545 34.9787 218.561 37.1571 218.561H76.2449C78.4542 218.561 80.2155 218.561 80.2155 215.301V214.621C80.2155 213.23 81.0034 212.118 81.9921 212.118H98.9868C103.622 212.118 107.531 213.493 107.531 223.041L107.453 403.896Z" fill="url(#paint23_linear)"/>
<path d="M62.0311 214.466H51.3707C51.2842 214.466 51.1986 214.449 51.1189 214.416C51.0391 214.382 50.9669 214.333 50.9064 214.271C50.8459 214.209 50.7984 214.136 50.7667 214.055C50.7351 213.975 50.7198 213.889 50.7219 213.802C50.7218 213.629 50.7897 213.462 50.9109 213.338C51.0322 213.214 51.1972 213.142 51.3707 213.138H62.0311C62.2073 213.138 62.3763 213.208 62.5009 213.332C62.6255 213.457 62.6954 213.626 62.6954 213.802C62.6954 213.978 62.6255 214.147 62.5009 214.272C62.3763 214.396 62.2073 214.466 62.0311 214.466Z" fill="white"/>
<path d="M107.454 223.087V403.849C107.55 406.211 106.704 408.515 105.101 410.254C103.499 411.992 101.272 413.023 98.9099 413.119H14.5235C13.3518 413.075 12.2004 412.801 11.1353 412.31C10.0703 411.82 9.11251 411.125 8.31716 410.263C7.5218 409.402 6.90448 408.392 6.5007 407.291C6.09692 406.19 5.91462 405.021 5.96429 403.849V223.087C5.96429 212.674 9.78038 212.164 14.5235 212.164H31.4255C32.3988 212.164 33.2022 213.277 33.2022 214.667V215.254C33.2022 218.499 34.9789 218.514 37.1573 218.514H76.2451C78.4545 218.514 80.2157 218.514 80.2157 215.254V214.621C80.2157 213.23 81.0036 212.118 81.9924 212.118H98.9871C103.622 212.164 107.454 213.539 107.454 223.087Z" fill="white"/>
<path d="M107.453 223.087V253.245H5.96411V223.118C5.96411 212.705 9.78021 212.195 14.5233 212.195H31.4253C32.3986 212.195 33.202 213.308 33.202 214.698V215.285C33.202 218.53 34.9788 218.545 37.1572 218.545H76.245C78.4543 218.545 80.2156 218.545 80.2156 215.285V214.621C80.2156 213.23 81.0035 212.118 82.0077 212.118H98.9097C103.622 212.164 107.453 213.539 107.453 223.087Z" fill="url(#paint24_linear)"/>
<path d="M28.5052 216.166L28.3353 216.32L28.2426 216.413C27.8338 216.001 27.2782 215.768 26.6976 215.764C26.1188 215.776 25.5661 216.008 25.1527 216.413L25.0754 216.32L24.9055 216.166L25.1063 215.98C25.2561 215.863 25.4165 215.759 25.5853 215.671C25.788 215.577 26.0004 215.504 26.2187 215.455H26.5432H27.0221C27.2214 215.485 27.4177 215.532 27.6092 215.594L27.9955 215.78C28.1301 215.858 28.2591 215.946 28.3817 216.042C28.4307 216.102 28.4879 216.154 28.5516 216.197L28.5052 216.166Z" fill="white"/>
<path d="M25.6161 216.985L25.3535 216.738C25.6333 216.447 26.0041 216.262 26.4041 216.212C26.6848 216.171 26.9713 216.198 27.2398 216.289C27.5084 216.38 27.7515 216.534 27.9491 216.738L27.6864 216.985C27.3999 216.715 27.0214 216.565 26.6281 216.565C26.2348 216.565 25.8564 216.715 25.5698 216.985H25.6161Z" fill="white"/>
<path d="M27.4703 217.247L27.2077 217.51C27.1399 217.434 27.0564 217.374 26.963 217.334C26.8695 217.294 26.7685 217.275 26.6669 217.278C26.5658 217.279 26.466 217.3 26.3731 217.339C26.2803 217.379 26.1963 217.437 26.1262 217.51L25.8789 217.247C25.9825 217.141 26.1064 217.057 26.243 217C26.3796 216.942 26.5263 216.912 26.6746 216.912C26.8228 216.912 26.9696 216.942 27.1063 217C27.2429 217.057 27.3667 217.141 27.4703 217.247Z" fill="white"/>
<path d="M26.8985 217.711C26.8985 217.772 26.8741 217.831 26.8306 217.875C26.7872 217.918 26.7282 217.943 26.6667 217.943C26.6053 217.943 26.5464 217.918 26.503 217.875C26.4595 217.831 26.4351 217.772 26.4351 217.711C26.4351 217.65 26.4595 217.591 26.503 217.547C26.5464 217.504 26.6053 217.479 26.6667 217.479C26.6978 217.477 26.729 217.481 26.7581 217.492C26.7873 217.503 26.8137 217.52 26.8357 217.542C26.8577 217.564 26.8748 217.59 26.8856 217.62C26.8964 217.649 26.9008 217.68 26.8985 217.711Z" fill="white"/>
<path d="M12.5767 216.722C12.5767 216.542 12.6483 216.369 12.7758 216.241C12.9033 216.114 13.0762 216.042 13.2565 216.042C13.4341 216.046 13.603 216.12 13.7272 216.247C13.8513 216.374 13.9208 216.544 13.9208 216.722C13.9208 216.898 13.8508 217.067 13.7262 217.192C13.6017 217.316 13.4326 217.386 13.2565 217.386C13.0788 217.387 12.9082 217.317 12.7812 217.193C12.6541 217.069 12.5807 216.9 12.5767 216.722Z" fill="white"/>
<path d="M14.6934 216.722C14.6934 216.542 14.765 216.369 14.8925 216.241C15.02 216.114 15.1929 216.042 15.3732 216.042C15.5508 216.046 15.7197 216.12 15.8439 216.247C15.968 216.374 16.0375 216.544 16.0375 216.722C16.0375 216.898 15.9675 217.067 15.8429 217.192C15.7184 217.316 15.5493 217.386 15.3732 217.386C15.1955 217.387 15.0249 217.317 14.8979 217.193C14.7708 217.069 14.6974 216.9 14.6934 216.722Z" fill="white"/>
<path d="M16.8096 216.722C16.8096 216.542 16.8812 216.369 17.0087 216.241C17.1362 216.114 17.3091 216.042 17.4894 216.042C17.667 216.046 17.8359 216.12 17.9601 216.247C18.0843 216.374 18.1537 216.544 18.1537 216.722C18.1537 216.898 18.0837 217.067 17.9592 217.192C17.8346 217.316 17.6656 217.386 17.4894 217.386C17.3117 217.387 17.1412 217.317 17.0141 217.193C16.8871 217.069 16.8136 216.9 16.8096 216.722Z" fill="white"/>
<path d="M18.9263 216.722C18.9263 216.633 18.9439 216.544 18.978 216.462C19.0122 216.38 19.0623 216.305 19.1254 216.241C19.1886 216.178 19.2635 216.128 19.346 216.094C19.4285 216.06 19.5168 216.042 19.6061 216.042C19.7837 216.046 19.9526 216.12 20.0768 216.247C20.201 216.374 20.2705 216.544 20.2705 216.722C20.2705 216.898 20.2004 217.067 20.0759 217.192C19.9513 217.316 19.7823 217.386 19.6061 217.386C19.4284 217.387 19.2579 217.317 19.1308 217.193C19.0038 217.069 18.9303 216.9 18.9263 216.722Z" fill="white"/>
<path d="M21.0586 216.722C21.0585 216.544 21.1281 216.374 21.2523 216.247C21.3764 216.12 21.5454 216.046 21.723 216.042C21.8123 216.042 21.9006 216.06 21.9831 216.094C22.0656 216.128 22.1405 216.178 22.2037 216.241C22.2668 216.305 22.3169 216.38 22.351 216.462C22.3852 216.544 22.4027 216.633 22.4027 216.722C22.3987 216.9 22.3253 217.069 22.1983 217.193C22.0712 217.317 21.9007 217.387 21.723 217.386C21.5468 217.386 21.3778 217.316 21.2532 217.192C21.1286 217.067 21.0586 216.898 21.0586 216.722Z" fill="white"/>
<path d="M99.8367 218.174H94.3674V215.656H99.8367V218.174ZM94.6301 217.912H99.574V215.919H94.6301V217.912Z" fill="white"/>
<path d="M98.3379 216.073H94.8154V217.742H98.3379V216.073Z" fill="white"/>
<path d="M100.331 216.243H99.8367V217.603H100.331V216.243Z" fill="white"/>
<path d="M101.567 232.326H96.3452V233.161H101.567V232.326Z" fill="white"/>
<path d="M101.567 236.096H96.3452V236.93H101.567V236.096Z" fill="white"/>
<path d="M101.567 234.227H96.3452V235.061H101.567V234.227Z" fill="white"/>
<path d="M16.139 262.641H13.5376C13.1246 262.641 12.7898 262.976 12.7898 263.389C12.7898 263.802 13.1246 264.137 13.5376 264.137H16.139C16.552 264.137 16.8869 263.802 16.8869 263.389C16.8869 262.976 16.552 262.641 16.139 262.641Z" fill="#DFE6FF"/>
<path d="M16.139 368.005H13.5376C13.1246 368.005 12.7898 368.339 12.7898 368.752C12.7898 369.165 13.1246 369.5 13.5376 369.5H16.139C16.552 369.5 16.8869 369.165 16.8869 368.752C16.8869 368.339 16.552 368.005 16.139 368.005Z" fill="#DFE6FF"/>
<path d="M66.1217 262.641H20.6194C20.2064 262.641 19.8716 262.975 19.8716 263.388C19.8716 263.801 20.2064 264.136 20.6194 264.136H66.1217C66.5347 264.136 66.8695 263.801 66.8695 263.388C66.8695 262.975 66.5347 262.641 66.1217 262.641Z" fill="#DFE6FF"/>
<path d="M66.1217 368.005H20.6194C20.2064 368.005 19.8716 368.339 19.8716 368.752C19.8716 369.165 20.2064 369.5 20.6194 369.5H66.1217C66.5347 369.5 66.8695 369.165 66.8695 368.752C66.8695 368.339 66.5347 368.005 66.1217 368.005Z" fill="#DFE6FF"/>
<path d="M76.4185 262.641H70.1355C69.7225 262.641 69.3877 262.975 69.3877 263.388C69.3877 263.801 69.7225 264.136 70.1355 264.136H76.4185C76.8316 264.136 77.1664 263.801 77.1664 263.388C77.1664 262.975 76.8316 262.641 76.4185 262.641Z" fill="#FFC727"/>
<path d="M76.4185 368.005H70.1355C69.7225 368.005 69.3877 368.339 69.3877 368.752C69.3877 369.165 69.7225 369.5 70.1355 369.5H76.4185C76.8316 369.5 77.1664 369.165 77.1664 368.752C77.1664 368.339 76.8316 368.005 76.4185 368.005Z" fill="#FFC727"/>
<path d="M94.2193 282.666H87.93C87.5169 282.666 87.1821 283.001 87.1821 283.414C87.1821 283.827 87.5169 284.162 87.93 284.162H94.2193C94.6324 284.162 94.9672 283.827 94.9672 283.414C94.9672 283.001 94.6324 282.666 94.2193 282.666Z" fill="#DFE6FF"/>
<path d="M91.5672 262.641H79.6084C79.1954 262.641 78.8606 262.975 78.8606 263.388C78.8606 263.801 79.1954 264.136 79.6084 264.136H91.5672C91.9802 264.136 92.3151 263.801 92.3151 263.388C92.3151 262.975 91.9802 262.641 91.5672 262.641Z" fill="#A6A6A6"/>
<path d="M91.5672 368.005H79.6084C79.1954 368.005 78.8606 368.339 78.8606 368.752C78.8606 369.165 79.1954 369.5 79.6084 369.5H91.5672C91.9802 369.5 92.3151 369.165 92.3151 368.752C92.3151 368.339 91.9802 368.005 91.5672 368.005Z" fill="#A6A6A6"/>
<path d="M20.2359 266.648H17.6345C17.2215 266.648 16.8867 266.983 16.8867 267.396C16.8867 267.809 17.2215 268.144 17.6345 268.144H20.236C20.649 268.144 20.9838 267.809 20.9838 267.396C20.9838 266.983 20.649 266.648 20.2359 266.648Z" fill="#DFE6FF"/>
<path d="M20.2359 372.012H17.6345C17.2215 372.012 16.8867 372.347 16.8867 372.76C16.8867 373.173 17.2215 373.508 17.6345 373.508H20.236C20.649 373.508 20.9838 373.173 20.9838 372.76C20.9838 372.347 20.649 372.012 20.2359 372.012Z" fill="#DFE6FF"/>
<path d="M20.2359 388.712H17.6345C17.2215 388.712 16.8867 389.047 16.8867 389.46C16.8867 389.873 17.2215 390.208 17.6345 390.208H20.236C20.649 390.208 20.9838 389.873 20.9838 389.46C20.9838 389.047 20.649 388.712 20.2359 388.712Z" fill="#DFE6FF"/>
<path d="M53.9584 266.648H24.6143C24.2013 266.648 23.8665 266.983 23.8665 267.396C23.8665 267.809 24.2013 268.144 24.6143 268.144H53.9584C54.3714 268.144 54.7062 267.809 54.7062 267.396C54.7062 266.983 54.3714 266.648 53.9584 266.648Z" fill="#A6A6A6"/>
<path d="M53.9584 372.012H24.6143C24.2013 372.012 23.8665 372.347 23.8665 372.76C23.8665 373.173 24.2013 373.508 24.6143 373.508H53.9584C54.3714 373.508 54.7062 373.173 54.7062 372.76C54.7062 372.347 54.3714 372.012 53.9584 372.012Z" fill="#A6A6A6"/>
<path d="M53.9584 388.712H24.6143C24.2013 388.712 23.8665 389.047 23.8665 389.46C23.8665 389.873 24.2013 390.208 24.6143 390.208H53.9584C54.3714 390.208 54.7062 389.873 54.7062 389.46C54.7062 389.047 54.3714 388.712 53.9584 388.712Z" fill="#A6A6A6"/>
<path d="M84.5872 282.666H68.0264C67.6134 282.666 67.2786 283.001 67.2786 283.414C67.2786 283.827 67.6134 284.162 68.0264 284.162H84.5872C85.0002 284.162 85.335 283.827 85.335 283.414C85.335 283.001 85.0002 282.666 84.5872 282.666Z" fill="#A6A6A6"/>
<path d="M48.583 278.665H20.6194C20.2064 278.665 19.8716 278.999 19.8716 279.412C19.8716 279.826 20.2064 280.16 20.6194 280.16H48.583C48.996 280.16 49.3308 279.826 49.3308 279.412C49.3308 278.999 48.996 278.665 48.583 278.665Z" fill="#A6A6A6"/>
<path d="M48.583 384.028H20.6194C20.2064 384.028 19.8716 384.363 19.8716 384.776C19.8716 385.189 20.2064 385.524 20.6194 385.524H48.583C48.996 385.524 49.3308 385.189 49.3308 384.776C49.3308 384.363 48.996 384.028 48.583 384.028Z" fill="#A6A6A6"/>
<path d="M48.583 400.728H20.6194C20.2064 400.728 19.8716 401.063 19.8716 401.476C19.8716 401.889 20.2064 402.224 20.6194 402.224H48.583C48.996 402.224 49.3308 401.889 49.3308 401.476C49.3308 401.063 48.996 400.728 48.583 400.728Z" fill="#A6A6A6"/>
<path d="M43.7829 270.65H24.6143C24.2013 270.65 23.8665 270.984 23.8665 271.397C23.8665 271.81 24.2013 272.145 24.6143 272.145H43.7829C44.1959 272.145 44.5307 271.81 44.5307 271.397C44.5307 270.984 44.1959 270.65 43.7829 270.65Z" fill="#FFC727"/>
<path d="M43.7829 376.013H24.6143C24.2013 376.013 23.8665 376.348 23.8665 376.761C23.8665 377.174 24.2013 377.509 24.6143 377.509H43.7829C44.1959 377.509 44.5307 377.174 44.5307 376.761C44.5307 376.348 44.1959 376.013 43.7829 376.013Z" fill="#FFC727"/>
<path d="M43.7829 392.713H24.6143C24.2013 392.713 23.8665 393.048 23.8665 393.461C23.8665 393.874 24.2013 394.209 24.6143 394.209H43.7829C44.1959 394.209 44.5307 393.874 44.5307 393.461C44.5307 393.048 44.1959 392.713 43.7829 392.713Z" fill="#FFC727"/>
<path d="M81.7234 274.657H75.3382C74.9251 274.657 74.5903 274.992 74.5903 275.405C74.5903 275.818 74.9251 276.153 75.3382 276.153H81.7234C82.1364 276.153 82.4713 275.818 82.4713 275.405C82.4713 274.992 82.1364 274.657 81.7234 274.657Z" fill="#A6A6A6"/>
<path d="M81.7234 380.021H75.3382C74.9251 380.021 74.5903 380.356 74.5903 380.769C74.5903 381.182 74.9251 381.517 75.3382 381.517H81.7234C82.1364 381.517 82.4713 381.182 82.4713 380.769C82.4713 380.356 82.1364 380.021 81.7234 380.021Z" fill="#A6A6A6"/>
<path d="M81.7234 396.721H75.3382C74.9251 396.721 74.5903 397.056 74.5903 397.469C74.5903 397.882 74.9251 398.216 75.3382 398.216H81.7234C82.1364 398.216 82.4713 397.882 82.4713 397.469C82.4713 397.056 82.1364 396.721 81.7234 396.721Z" fill="#A6A6A6"/>
<path d="M79.0778 270.65H47.5733C47.1603 270.65 46.8254 270.984 46.8254 271.397C46.8254 271.81 47.1602 272.145 47.5733 272.145H79.0778C79.4908 272.145 79.8256 271.81 79.8256 271.397C79.8256 270.984 79.4908 270.65 79.0778 270.65Z" fill="#A6A6A6"/>
<path d="M79.0778 376.013H47.5733C47.1603 376.013 46.8254 376.348 46.8254 376.761C46.8254 377.174 47.1602 377.509 47.5733 377.509H79.0778C79.4908 377.509 79.8256 377.174 79.8256 376.761C79.8256 376.348 79.4908 376.013 79.0778 376.013Z" fill="#A6A6A6"/>
<path d="M79.0778 392.713H47.5733C47.1603 392.713 46.8254 393.048 46.8254 393.461C46.8254 393.874 47.1602 394.209 47.5733 394.209H79.0778C79.4908 394.209 79.8256 393.874 79.8256 393.461C79.8256 393.048 79.4908 392.713 79.0778 392.713Z" fill="#A6A6A6"/>
<path d="M58.5156 282.666H20.6194C20.2064 282.666 19.8716 283.001 19.8716 283.414C19.8716 283.827 20.2064 284.162 20.6194 284.162H58.5156C58.9286 284.162 59.2634 283.827 59.2634 283.414C59.2634 283.001 58.9286 282.666 58.5156 282.666Z" fill="#FFC727"/>
<path d="M98.5915 266.648H78.739C78.326 266.648 77.9912 266.983 77.9912 267.396C77.9912 267.809 78.326 268.144 78.739 268.144H98.5915C99.0046 268.144 99.3394 267.809 99.3394 267.396C99.3394 266.983 99.0046 266.648 98.5915 266.648Z" fill="#FFC727"/>
<path d="M98.5915 372.012H78.739C78.326 372.012 77.9912 372.347 77.9912 372.76C77.9912 373.173 78.326 373.508 78.739 373.508H98.5915C99.0046 373.508 99.3394 373.173 99.3394 372.76C99.3394 372.347 99.0046 372.012 98.5915 372.012Z" fill="#FFC727"/>
<path d="M98.5915 388.712H78.739C78.326 388.712 77.9912 389.047 77.9912 389.46C77.9912 389.873 78.326 390.208 78.739 390.208H98.5915C99.0046 390.208 99.3394 389.873 99.3394 389.46C99.3394 389.047 99.0046 388.712 98.5915 388.712Z" fill="#FFC727"/>
<path d="M75.5494 266.648H57.3906C56.9776 266.648 56.6428 266.983 56.6428 267.396C56.6428 267.809 56.9776 268.144 57.3906 268.144H75.5494C75.9624 268.144 76.2972 267.809 76.2972 267.396C76.2972 266.983 75.9624 266.648 75.5494 266.648Z" fill="#DFE6FF"/>
<path d="M75.5494 372.012H57.3906C56.9776 372.012 56.6428 372.347 56.6428 372.76C56.6428 373.173 56.9776 373.508 57.3906 373.508H75.5494C75.9624 373.508 76.2972 373.173 76.2972 372.76C76.2972 372.347 75.9624 372.012 75.5494 372.012Z" fill="#DFE6FF"/>
<path d="M75.5494 388.712H57.3906C56.9776 388.712 56.6428 389.047 56.6428 389.46C56.6428 389.873 56.9776 390.208 57.3906 390.208H75.5494C75.9624 390.208 76.2972 389.873 76.2972 389.46C76.2972 389.047 75.9624 388.712 75.5494 388.712Z" fill="#DFE6FF"/>
<path d="M93.8938 270.65H82.1267C81.7137 270.65 81.3789 270.984 81.3789 271.397C81.3789 271.81 81.7137 272.145 82.1267 272.145H93.8938C94.3068 272.145 94.6416 271.81 94.6416 271.397C94.6416 270.984 94.3068 270.65 93.8938 270.65Z" fill="#DFE6FF"/>
<path d="M93.8938 376.013H82.1267C81.7137 376.013 81.3789 376.348 81.3789 376.761C81.3789 377.174 81.7137 377.509 82.1267 377.509H93.8938C94.3068 377.509 94.6416 377.174 94.6416 376.761C94.6416 376.348 94.3068 376.013 93.8938 376.013Z" fill="#DFE6FF"/>
<path d="M93.8938 392.713H82.1267C81.7137 392.713 81.3789 393.048 81.3789 393.461C81.3789 393.874 81.7137 394.209 82.1267 394.209H93.8938C94.3068 394.209 94.6416 393.874 94.6416 393.461C94.6416 393.048 94.3068 392.713 93.8938 392.713Z" fill="#DFE6FF"/>
<path d="M20.2359 270.65H17.6345C17.2215 270.65 16.8867 270.984 16.8867 271.397C16.8867 271.81 17.2215 272.145 17.6345 272.145H20.236C20.649 272.145 20.9838 271.81 20.9838 271.397C20.9838 270.984 20.649 270.65 20.2359 270.65Z" fill="#DFE6FF"/>
<path d="M20.2359 376.013H17.6345C17.2215 376.013 16.8867 376.348 16.8867 376.761C16.8867 377.174 17.2215 377.509 17.6345 377.509H20.236C20.649 377.509 20.9838 377.174 20.9838 376.761C20.9838 376.348 20.649 376.013 20.2359 376.013Z" fill="#DFE6FF"/>
<path d="M20.2359 392.713H17.6345C17.2215 392.713 16.8867 393.048 16.8867 393.461C16.8867 393.874 17.2215 394.209 17.6345 394.209H20.236C20.649 394.209 20.9838 393.874 20.9838 393.461C20.9838 393.048 20.649 392.713 20.2359 392.713Z" fill="#DFE6FF"/>
<path d="M16.139 274.657H13.5376C13.1246 274.657 12.7898 274.992 12.7898 275.405C12.7898 275.818 13.1246 276.153 13.5376 276.153H16.139C16.552 276.153 16.8869 275.818 16.8869 275.405C16.8869 274.992 16.552 274.657 16.139 274.657Z" fill="#A6A6A6"/>
<path d="M16.139 380.021H13.5376C13.1246 380.021 12.7898 380.356 12.7898 380.769C12.7898 381.182 13.1246 381.517 13.5376 381.517H16.139C16.552 381.517 16.8869 381.182 16.8869 380.769C16.8869 380.356 16.552 380.021 16.139 380.021Z" fill="#A6A6A6"/>
<path d="M16.139 396.721H13.5376C13.1246 396.721 12.7898 397.056 12.7898 397.469C12.7898 397.882 13.1246 398.216 13.5376 398.216H16.139C16.552 398.216 16.8869 397.882 16.8869 397.469C16.8869 397.056 16.552 396.721 16.139 396.721Z" fill="#A6A6A6"/>
<path d="M43.3354 274.657H20.6194C20.2064 274.657 19.8716 274.992 19.8716 275.405C19.8716 275.818 20.2064 276.153 20.6194 276.153H43.3354C43.7484 276.153 44.0832 275.818 44.0832 275.405C44.0832 274.992 43.7484 274.657 43.3354 274.657Z" fill="#DFE6FF"/>
<path d="M43.3354 380.021H20.6194C20.2064 380.021 19.8716 380.356 19.8716 380.769C19.8716 381.182 20.2064 381.517 20.6194 381.517H43.3354C43.7484 381.517 44.0832 381.182 44.0832 380.769C44.0832 380.356 43.7484 380.021 43.3354 380.021Z" fill="#DFE6FF"/>
<path d="M43.3354 396.721H20.6194C20.2064 396.721 19.8716 397.056 19.8716 397.469C19.8716 397.882 20.2064 398.216 20.6194 398.216H43.3354C43.7484 398.216 44.0832 397.882 44.0832 397.469C44.0832 397.056 43.7484 396.721 43.3354 396.721Z" fill="#DFE6FF"/>
<path d="M47.3303 286.673H24.6143C24.2013 286.673 23.8665 287.008 23.8665 287.421C23.8665 287.834 24.2013 288.169 24.6143 288.169H47.3303C47.7433 288.169 48.0781 287.834 48.0781 287.421C48.0781 287.008 47.7433 286.673 47.3303 286.673Z" fill="#DFE6FF"/>
<path d="M86.6775 290.681H69.7652C69.3521 290.681 69.0173 291.016 69.0173 291.429C69.0173 291.842 69.3521 292.177 69.7652 292.177H86.6775C87.0905 292.177 87.4253 291.842 87.4253 291.429C87.4253 291.016 87.0905 290.681 86.6775 290.681Z" fill="#FFC727"/>
<path d="M73.5808 286.673H50.7945C50.3814 286.673 50.0466 287.008 50.0466 287.421C50.0466 287.834 50.3814 288.169 50.7945 288.169H73.5808C73.9938 288.169 74.3286 287.834 74.3286 287.421C74.3286 287.008 73.9938 286.673 73.5808 286.673Z" fill="#FFC727"/>
<path d="M66.1538 290.681H46.5122C46.0992 290.681 45.7644 291.016 45.7644 291.429C45.7644 291.842 46.0992 292.177 46.5122 292.177H66.1538C66.5668 292.177 66.9016 291.842 66.9016 291.429C66.9016 291.016 66.5668 290.681 66.1538 290.681Z" fill="#DFE6FF"/>
<path d="M30.1303 290.681H24.6143C24.2013 290.681 23.8665 291.016 23.8665 291.429C23.8665 291.842 24.2013 292.177 24.6143 292.177H30.1303C30.5433 292.177 30.8781 291.842 30.8781 291.429C30.8781 291.016 30.5433 290.681 30.1303 290.681Z" fill="#A6A6A6"/>
<path d="M76.4189 278.665H51.7471C51.3341 278.665 50.9993 278.999 50.9993 279.412C50.9993 279.826 51.3341 280.16 51.7471 280.16H76.4189C76.8319 280.16 77.1668 279.826 77.1668 279.412C77.1668 278.999 76.8319 278.665 76.4189 278.665Z" fill="#DFE6FF"/>
<path d="M76.4189 384.028H51.7471C51.3341 384.028 50.9993 384.363 50.9993 384.776C50.9993 385.189 51.3341 385.524 51.7471 385.524H76.4189C76.8319 385.524 77.1668 385.189 77.1668 384.776C77.1668 384.363 76.8319 384.028 76.4189 384.028Z" fill="#DFE6FF"/>
<path d="M76.4189 400.728H51.7471C51.3341 400.728 50.9993 401.063 50.9993 401.476C50.9993 401.889 51.3341 402.224 51.7471 402.224H76.4189C76.8319 402.224 77.1668 401.889 77.1668 401.476C77.1668 401.063 76.8319 400.728 76.4189 400.728Z" fill="#DFE6FF"/>
<path d="M94.7631 278.665H79.6084C79.1954 278.665 78.8606 278.999 78.8606 279.412C78.8606 279.826 79.1954 280.16 79.6084 280.16H94.7631C95.1761 280.16 95.5109 279.826 95.5109 279.412C95.5109 278.999 95.1761 278.665 94.7631 278.665Z" fill="#FFC727"/>
<path d="M94.7631 384.028H79.6084C79.1954 384.028 78.8606 384.363 78.8606 384.776C78.8606 385.189 79.1954 385.524 79.6084 385.524H94.7631C95.1761 385.524 95.5109 385.189 95.5109 384.776C95.5109 384.363 95.1761 384.028 94.7631 384.028Z" fill="#FFC727"/>
<path d="M94.7631 400.728H79.6084C79.1954 400.728 78.8606 401.063 78.8606 401.476C78.8606 401.889 79.1954 402.224 79.6084 402.224H94.7631C95.1761 402.224 95.5109 401.889 95.5109 401.476C95.5109 401.063 95.1761 400.728 94.7631 400.728Z" fill="#FFC727"/>
<path d="M71.9319 274.657H47.292C46.879 274.657 46.5442 274.992 46.5442 275.405C46.5442 275.818 46.879 276.153 47.292 276.153H71.9319C72.3449 276.153 72.6797 275.818 72.6797 275.405C72.6797 274.992 72.3449 274.657 71.9319 274.657Z" fill="#FFC727"/>
<path d="M71.9319 380.021H47.292C46.879 380.021 46.5442 380.356 46.5442 380.769C46.5442 381.182 46.879 381.517 47.292 381.517H71.9319C72.3449 381.517 72.6797 381.182 72.6797 380.769C72.6797 380.356 72.3449 380.021 71.9319 380.021Z" fill="#FFC727"/>
<path d="M71.9319 396.721H47.292C46.879 396.721 46.5442 397.056 46.5442 397.469C46.5442 397.882 46.879 398.216 47.292 398.216H71.9319C72.3449 398.216 72.6797 397.882 72.6797 397.469C72.6797 397.056 72.3449 396.721 71.9319 396.721Z" fill="#FFC727"/>
<path d="M16.139 278.665H13.5376C13.1246 278.665 12.7898 278.999 12.7898 279.412C12.7898 279.826 13.1246 280.16 13.5376 280.16H16.139C16.552 280.16 16.8869 279.826 16.8869 279.412C16.8869 278.999 16.552 278.665 16.139 278.665Z" fill="#DFE6FF"/>
<path d="M16.139 384.028H13.5376C13.1246 384.028 12.7898 384.363 12.7898 384.776C12.7898 385.189 13.1246 385.524 13.5376 385.524H16.139C16.552 385.524 16.8869 385.189 16.8869 384.776C16.8869 384.363 16.552 384.028 16.139 384.028Z" fill="#DFE6FF"/>
<path d="M16.139 400.728H13.5376C13.1246 400.728 12.7898 401.063 12.7898 401.476C12.7898 401.889 13.1246 402.224 13.5376 402.224H16.139C16.552 402.224 16.8869 401.889 16.8869 401.476C16.8869 401.063 16.552 400.728 16.139 400.728Z" fill="#DFE6FF"/>
<path d="M16.139 282.666H13.5376C13.1246 282.666 12.7898 283.001 12.7898 283.414C12.7898 283.827 13.1246 284.162 13.5376 284.162H16.139C16.552 284.162 16.8869 283.827 16.8869 283.414C16.8869 283.001 16.552 282.666 16.139 282.666Z" fill="#DFE6FF"/>
<path d="M20.2359 286.673H17.6345C17.2215 286.673 16.8867 287.008 16.8867 287.421C16.8867 287.834 17.2215 288.169 17.6345 288.169H20.236C20.649 288.169 20.9838 287.834 20.9838 287.421C20.9838 287.008 20.649 286.673 20.2359 286.673Z" fill="#A6A6A6"/>
<path d="M20.2359 290.681H17.6345C17.2215 290.681 16.8867 291.016 16.8867 291.429C16.8867 291.842 17.2215 292.177 17.6345 292.177H20.236C20.649 292.177 20.9838 291.842 20.9838 291.429C20.9838 291.016 20.649 290.681 20.2359 290.681Z" fill="#DFE6FF"/>
<path d="M16.139 294.03H13.5376C13.1246 294.03 12.7898 294.365 12.7898 294.778C12.7898 295.191 13.1246 295.526 13.5376 295.526H16.139C16.552 295.526 16.8869 295.191 16.8869 294.778C16.8869 294.365 16.552 294.03 16.139 294.03Z" fill="#DFE6FF"/>
<path d="M66.1217 294.03H20.6194C20.2064 294.03 19.8716 294.365 19.8716 294.778C19.8716 295.191 20.2064 295.526 20.6194 295.526H66.1217C66.5347 295.526 66.8695 295.191 66.8695 294.778C66.8695 294.365 66.5347 294.03 66.1217 294.03Z" fill="#DFE6FF"/>
<path d="M20.2359 298.038H17.6345C17.2215 298.038 16.8867 298.373 16.8867 298.786C16.8867 299.199 17.2215 299.533 17.6345 299.533H20.236C20.649 299.533 20.9838 299.199 20.9838 298.786C20.9838 298.373 20.649 298.038 20.2359 298.038Z" fill="#DFE6FF"/>
<path d="M20.2359 316.994H17.6345C17.2215 316.994 16.8867 317.329 16.8867 317.742C16.8867 318.155 17.2215 318.49 17.6345 318.49H20.236C20.649 318.49 20.9838 318.155 20.9838 317.742C20.9838 317.329 20.649 316.994 20.2359 316.994Z" fill="#DFE6FF"/>
<path d="M20.2359 347.891H17.6345C17.2215 347.891 16.8867 348.226 16.8867 348.639C16.8867 349.052 17.2215 349.387 17.6345 349.387H20.236C20.649 349.387 20.9838 349.052 20.9838 348.639C20.9838 348.226 20.649 347.891 20.2359 347.891Z" fill="#DFE6FF"/>
<path d="M53.9584 298.038H24.6143C24.2013 298.038 23.8665 298.373 23.8665 298.786C23.8665 299.199 24.2013 299.533 24.6143 299.533H53.9584C54.3714 299.533 54.7062 299.199 54.7062 298.786C54.7062 298.373 54.3714 298.038 53.9584 298.038Z" fill="#A6A6A6"/>
<path d="M53.9584 316.994H24.6143C24.2013 316.994 23.8665 317.329 23.8665 317.742C23.8665 318.155 24.2013 318.49 24.6143 318.49H53.9584C54.3714 318.49 54.7062 318.155 54.7062 317.742C54.7062 317.329 54.3714 316.994 53.9584 316.994Z" fill="#A6A6A6"/>
<path d="M53.9584 347.891H24.6143C24.2013 347.891 23.8665 348.226 23.8665 348.639C23.8665 349.052 24.2013 349.387 24.6143 349.387H53.9584C54.3714 349.387 54.7062 349.052 54.7062 348.639C54.7062 348.226 54.3714 347.891 53.9584 347.891Z" fill="#A6A6A6"/>
<path d="M48.583 310.054H20.6194C20.2064 310.054 19.8716 310.389 19.8716 310.802C19.8716 311.215 20.2064 311.55 20.6194 311.55H48.583C48.996 311.55 49.3308 311.215 49.3308 310.802C49.3308 310.389 48.996 310.054 48.583 310.054Z" fill="#A6A6A6"/>
<path d="M48.583 340.951H20.6194C20.2064 340.951 19.8716 341.286 19.8716 341.699C19.8716 342.112 20.2064 342.447 20.6194 342.447H48.583C48.996 342.447 49.3308 342.112 49.3308 341.699C49.3308 341.286 48.996 340.951 48.583 340.951Z" fill="#A6A6A6"/>
<path d="M48.583 329.01H20.6194C20.2064 329.01 19.8716 329.345 19.8716 329.758C19.8716 330.171 20.2064 330.506 20.6194 330.506H48.583C48.996 330.506 49.3308 330.171 49.3308 329.758C49.3308 329.345 48.996 329.01 48.583 329.01Z" fill="#A6A6A6"/>
<path d="M48.583 359.907H20.6194C20.2064 359.907 19.8716 360.242 19.8716 360.655C19.8716 361.068 20.2064 361.403 20.6194 361.403H48.583C48.996 361.403 49.3308 361.068 49.3308 360.655C49.3308 360.242 48.996 359.907 48.583 359.907Z" fill="#A6A6A6"/>
<path d="M43.7829 302.045H24.6143C24.2013 302.045 23.8665 302.38 23.8665 302.793C23.8665 303.206 24.2013 303.541 24.6143 303.541H43.7829C44.1959 303.541 44.5307 303.206 44.5307 302.793C44.5307 302.38 44.1959 302.045 43.7829 302.045Z" fill="#FFC727"/>
<path d="M43.7829 321.002H24.6143C24.2013 321.002 23.8665 321.337 23.8665 321.75C23.8665 322.163 24.2013 322.497 24.6143 322.497H43.7829C44.1959 322.497 44.5307 322.163 44.5307 321.75C44.5307 321.337 44.1959 321.002 43.7829 321.002Z" fill="#FFC727"/>
<path d="M43.7829 351.899H24.6143C24.2013 351.899 23.8665 352.233 23.8665 352.646C23.8665 353.059 24.2013 353.394 24.6143 353.394H43.7829C44.1959 353.394 44.5307 353.059 44.5307 352.646C44.5307 352.233 44.1959 351.899 43.7829 351.899Z" fill="#FFC727"/>
<path d="M79.0778 302.045H47.5733C47.1603 302.045 46.8254 302.38 46.8254 302.793C46.8254 303.206 47.1602 303.541 47.5733 303.541H79.0778C79.4908 303.541 79.8256 303.206 79.8256 302.793C79.8256 302.38 79.4908 302.045 79.0778 302.045Z" fill="#A6A6A6"/>
<path d="M79.0778 321.002H47.5733C47.1603 321.002 46.8254 321.337 46.8254 321.75C46.8254 322.163 47.1602 322.497 47.5733 322.497H79.0778C79.4908 322.497 79.8256 322.163 79.8256 321.75C79.8256 321.337 79.4908 321.002 79.0778 321.002Z" fill="#A6A6A6"/>
<path d="M79.0778 351.899H47.5733C47.1603 351.899 46.8254 352.233 46.8254 352.646C46.8254 353.059 47.1602 353.394 47.5733 353.394H79.0778C79.4908 353.394 79.8256 353.059 79.8256 352.646C79.8256 352.233 79.4908 351.899 79.0778 351.899Z" fill="#A6A6A6"/>
<path d="M58.5156 314.055H20.6194C20.2064 314.055 19.8716 314.39 19.8716 314.803C19.8716 315.216 20.2064 315.551 20.6194 315.551H58.5156C58.9286 315.551 59.2634 315.216 59.2634 314.803C59.2634 314.39 58.9286 314.055 58.5156 314.055Z" fill="#FFC727"/>
<path d="M58.5156 344.952H20.6194C20.2064 344.952 19.8716 345.287 19.8716 345.7C19.8716 346.113 20.2064 346.448 20.6194 346.448H58.5156C58.9286 346.448 59.2634 346.113 59.2634 345.7C59.2634 345.287 58.9286 344.952 58.5156 344.952Z" fill="#FFC727"/>
<path d="M58.5156 333.012H20.6194C20.2064 333.012 19.8716 333.347 19.8716 333.76C19.8716 334.173 20.2064 334.507 20.6194 334.507H58.5156C58.9286 334.507 59.2634 334.173 59.2634 333.76C59.2634 333.347 58.9286 333.012 58.5156 333.012Z" fill="#FFC727"/>
<path d="M58.5156 363.909H20.6194C20.2064 363.909 19.8716 364.244 19.8716 364.657C19.8716 365.07 20.2064 365.404 20.6194 365.404H58.5156C58.9286 365.404 59.2634 365.07 59.2634 364.657C59.2634 364.244 58.9286 363.909 58.5156 363.909Z" fill="#FFC727"/>
<path d="M98.5915 298.038H78.739C78.326 298.038 77.9912 298.373 77.9912 298.786C77.9912 299.199 78.326 299.533 78.739 299.533H98.5915C99.0046 299.533 99.3394 299.199 99.3394 298.786C99.3394 298.373 99.0046 298.038 98.5915 298.038Z" fill="#FFC727"/>
<path d="M98.5915 316.994H78.739C78.326 316.994 77.9912 317.329 77.9912 317.742C77.9912 318.155 78.326 318.49 78.739 318.49H98.5915C99.0046 318.49 99.3394 318.155 99.3394 317.742C99.3394 317.329 99.0046 316.994 98.5915 316.994Z" fill="#FFC727"/>
<path d="M98.5915 347.891H78.739C78.326 347.891 77.9912 348.226 77.9912 348.639C77.9912 349.052 78.326 349.387 78.739 349.387H98.5915C99.0046 349.387 99.3394 349.052 99.3394 348.639C99.3394 348.226 99.0046 347.891 98.5915 347.891Z" fill="#FFC727"/>
<path d="M75.5494 298.038H57.3906C56.9776 298.038 56.6428 298.373 56.6428 298.786C56.6428 299.199 56.9776 299.533 57.3906 299.533H75.5494C75.9624 299.533 76.2972 299.199 76.2972 298.786C76.2972 298.373 75.9624 298.038 75.5494 298.038Z" fill="#DFE6FF"/>
<path d="M75.5494 316.994H57.3906C56.9776 316.994 56.6428 317.329 56.6428 317.742C56.6428 318.155 56.9776 318.49 57.3906 318.49H75.5494C75.9624 318.49 76.2972 318.155 76.2972 317.742C76.2972 317.329 75.9624 316.994 75.5494 316.994Z" fill="#DFE6FF"/>
<path d="M75.5494 347.891H57.3906C56.9776 347.891 56.6428 348.226 56.6428 348.639C56.6428 349.052 56.9776 349.387 57.3906 349.387H75.5494C75.9624 349.387 76.2972 349.052 76.2972 348.639C76.2972 348.226 75.9624 347.891 75.5494 347.891Z" fill="#DFE6FF"/>
<path d="M93.8938 302.045H82.1267C81.7137 302.045 81.3789 302.38 81.3789 302.793C81.3789 303.206 81.7137 303.541 82.1267 303.541H93.8938C94.3068 303.541 94.6416 303.206 94.6416 302.793C94.6416 302.38 94.3068 302.045 93.8938 302.045Z" fill="#DFE6FF"/>
<path d="M93.8938 321.002H82.1267C81.7137 321.002 81.3789 321.337 81.3789 321.75C81.3789 322.163 81.7137 322.497 82.1267 322.497H93.8938C94.3068 322.497 94.6416 322.163 94.6416 321.75C94.6416 321.337 94.3068 321.002 93.8938 321.002Z" fill="#DFE6FF"/>
<path d="M93.8938 351.899H82.1267C81.7137 351.899 81.3789 352.233 81.3789 352.646C81.3789 353.059 81.7137 353.394 82.1267 353.394H93.8938C94.3068 353.394 94.6416 353.059 94.6416 352.646C94.6416 352.233 94.3068 351.899 93.8938 351.899Z" fill="#DFE6FF"/>
<path d="M20.2359 302.045H17.6345C17.2215 302.045 16.8867 302.38 16.8867 302.793C16.8867 303.206 17.2215 303.541 17.6345 303.541H20.236C20.649 303.541 20.9838 303.206 20.9838 302.793C20.9838 302.38 20.649 302.045 20.2359 302.045Z" fill="#DFE6FF"/>
<path d="M20.2359 321.002H17.6345C17.2215 321.002 16.8867 321.337 16.8867 321.75C16.8867 322.163 17.2215 322.497 17.6345 322.497H20.236C20.649 322.497 20.9838 322.163 20.9838 321.75C20.9838 321.337 20.649 321.002 20.2359 321.002Z" fill="#DFE6FF"/>
<path d="M20.2359 351.899H17.6345C17.2215 351.899 16.8867 352.233 16.8867 352.646C16.8867 353.059 17.2215 353.394 17.6345 353.394H20.236C20.649 353.394 20.9838 353.059 20.9838 352.646C20.9838 352.233 20.649 351.899 20.2359 351.899Z" fill="#DFE6FF"/>
<path d="M16.139 306.047H13.5376C13.1246 306.047 12.7898 306.381 12.7898 306.794C12.7898 307.207 13.1246 307.542 13.5376 307.542H16.139C16.552 307.542 16.8869 307.207 16.8869 306.794C16.8869 306.381 16.552 306.047 16.139 306.047Z" fill="#A6A6A6"/>
<path d="M16.139 336.943H13.5376C13.1246 336.943 12.7898 337.278 12.7898 337.691C12.7898 338.104 13.1246 338.439 13.5376 338.439H16.139C16.552 338.439 16.8869 338.104 16.8869 337.691C16.8869 337.278 16.552 336.943 16.139 336.943Z" fill="#A6A6A6"/>
<path d="M16.139 325.003H13.5376C13.1246 325.003 12.7898 325.338 12.7898 325.751C12.7898 326.164 13.1246 326.499 13.5376 326.499H16.139C16.552 326.499 16.8869 326.164 16.8869 325.751C16.8869 325.338 16.552 325.003 16.139 325.003Z" fill="#A6A6A6"/>
<path d="M16.139 355.9H13.5376C13.1246 355.9 12.7898 356.235 12.7898 356.648C12.7898 357.061 13.1246 357.396 13.5376 357.396H16.139C16.552 357.396 16.8869 357.061 16.8869 356.648C16.8869 356.235 16.552 355.9 16.139 355.9Z" fill="#A6A6A6"/>
<path d="M43.3354 306.047H20.6194C20.2064 306.047 19.8716 306.381 19.8716 306.794C19.8716 307.207 20.2064 307.542 20.6194 307.542H43.3354C43.7484 307.542 44.0832 307.207 44.0832 306.794C44.0832 306.381 43.7484 306.047 43.3354 306.047Z" fill="#DFE6FF"/>
<path d="M43.3354 336.943H20.6194C20.2064 336.943 19.8716 337.278 19.8716 337.691C19.8716 338.104 20.2064 338.439 20.6194 338.439H43.3354C43.7484 338.439 44.0832 338.104 44.0832 337.691C44.0832 337.278 43.7484 336.943 43.3354 336.943Z" fill="#DFE6FF"/>
<path d="M43.3354 325.003H20.6194C20.2064 325.003 19.8716 325.338 19.8716 325.751C19.8716 326.164 20.2064 326.499 20.6194 326.499H43.3354C43.7484 326.499 44.0832 326.164 44.0832 325.751C44.0832 325.338 43.7484 325.003 43.3354 325.003Z" fill="#DFE6FF"/>
<path d="M43.3354 355.9H20.6194C20.2064 355.9 19.8716 356.235 19.8716 356.648C19.8716 357.061 20.2064 357.396 20.6194 357.396H43.3354C43.7484 357.396 44.0832 357.061 44.0832 356.648C44.0832 356.235 43.7484 355.9 43.3354 355.9Z" fill="#DFE6FF"/>
<path d="M76.4189 310.054H51.7471C51.3341 310.054 50.9993 310.389 50.9993 310.802C50.9993 311.215 51.3341 311.55 51.7471 311.55H76.4189C76.8319 311.55 77.1668 311.215 77.1668 310.802C77.1668 310.389 76.8319 310.054 76.4189 310.054Z" fill="#DFE6FF"/>
<path d="M76.4189 340.951H51.7471C51.3341 340.951 50.9993 341.286 50.9993 341.699C50.9993 342.112 51.3341 342.447 51.7471 342.447H76.4189C76.8319 342.447 77.1668 342.112 77.1668 341.699C77.1668 341.286 76.8319 340.951 76.4189 340.951Z" fill="#DFE6FF"/>
<path d="M76.4189 329.01H51.7471C51.3341 329.01 50.9993 329.345 50.9993 329.758C50.9993 330.171 51.3341 330.506 51.7471 330.506H76.4189C76.8319 330.506 77.1668 330.171 77.1668 329.758C77.1668 329.345 76.8319 329.01 76.4189 329.01Z" fill="#DFE6FF"/>
<path d="M76.4189 359.907H51.7471C51.3341 359.907 50.9993 360.242 50.9993 360.655C50.9993 361.068 51.3341 361.403 51.7471 361.403H76.4189C76.8319 361.403 77.1668 361.068 77.1668 360.655C77.1668 360.242 76.8319 359.907 76.4189 359.907Z" fill="#DFE6FF"/>
<path d="M71.9319 306.047H47.292C46.879 306.047 46.5442 306.381 46.5442 306.794C46.5442 307.207 46.879 307.542 47.292 307.542H71.9319C72.3449 307.542 72.6797 307.207 72.6797 306.794C72.6797 306.381 72.3449 306.047 71.9319 306.047Z" fill="#FFC727"/>
<path d="M71.9319 336.943H47.292C46.879 336.943 46.5442 337.278 46.5442 337.691C46.5442 338.104 46.879 338.439 47.292 338.439H71.9319C72.3449 338.439 72.6797 338.104 72.6797 337.691C72.6797 337.278 72.3449 336.943 71.9319 336.943Z" fill="#FFC727"/>
<path d="M71.9319 325.003H47.292C46.879 325.003 46.5442 325.338 46.5442 325.751C46.5442 326.164 46.879 326.499 47.292 326.499H71.9319C72.3449 326.499 72.6797 326.164 72.6797 325.751C72.6797 325.338 72.3449 325.003 71.9319 325.003Z" fill="#FFC727"/>
<path d="M71.9319 355.9H47.292C46.879 355.9 46.5442 356.235 46.5442 356.648C46.5442 357.061 46.879 357.396 47.292 357.396H71.9319C72.3449 357.396 72.6797 357.061 72.6797 356.648C72.6797 356.235 72.3449 355.9 71.9319 355.9Z" fill="#FFC727"/>
<path d="M16.139 310.054H13.5376C13.1246 310.054 12.7898 310.389 12.7898 310.802C12.7898 311.215 13.1246 311.55 13.5376 311.55H16.139C16.552 311.55 16.8869 311.215 16.8869 310.802C16.8869 310.389 16.552 310.054 16.139 310.054Z" fill="#DFE6FF"/>
<path d="M16.139 340.951H13.5376C13.1246 340.951 12.7898 341.286 12.7898 341.699C12.7898 342.112 13.1246 342.447 13.5376 342.447H16.139C16.552 342.447 16.8869 342.112 16.8869 341.699C16.8869 341.286 16.552 340.951 16.139 340.951Z" fill="#DFE6FF"/>
<path d="M16.139 329.01H13.5376C13.1246 329.01 12.7898 329.345 12.7898 329.758C12.7898 330.171 13.1246 330.506 13.5376 330.506H16.139C16.552 330.506 16.8869 330.171 16.8869 329.758C16.8869 329.345 16.552 329.01 16.139 329.01Z" fill="#DFE6FF"/>
<path d="M16.139 359.907H13.5376C13.1246 359.907 12.7898 360.242 12.7898 360.655C12.7898 361.068 13.1246 361.403 13.5376 361.403H16.139C16.552 361.403 16.8869 361.068 16.8869 360.655C16.8869 360.242 16.552 359.907 16.139 359.907Z" fill="#DFE6FF"/>
<defs>
<linearGradient id="paint0_linear" x1="37.8115" y1="453" x2="37.8115" y2="499" gradientUnits="userSpaceOnUse">
<stop stop-color="#FCCB6C"/>
<stop offset="1" stop-color="#E0A840"/>
</linearGradient>
<linearGradient id="paint1_linear" x1="47.126" y1="488.797" x2="15" y2="488.797" gradientUnits="userSpaceOnUse">
<stop stop-color="#345DB5"/>
<stop offset="1" stop-color="#234BA3"/>
</linearGradient>
<linearGradient id="paint2_linear" x1="103.811" y1="453" x2="103.811" y2="499" gradientUnits="userSpaceOnUse">
<stop stop-color="#FCCB6C"/>
<stop offset="1" stop-color="#E0A840"/>
</linearGradient>
<linearGradient id="paint3_linear" x1="113.126" y1="488.797" x2="81" y2="488.797" gradientUnits="userSpaceOnUse">
<stop stop-color="#345DB5"/>
<stop offset="1" stop-color="#234BA3"/>
</linearGradient>
<linearGradient id="paint4_linear" x1="574.811" y1="453" x2="574.811" y2="499" gradientUnits="userSpaceOnUse">
<stop stop-color="#FCCB6C"/>
<stop offset="1" stop-color="#E0A840"/>
</linearGradient>
<linearGradient id="paint5_linear" x1="584.126" y1="488.797" x2="552" y2="488.797" gradientUnits="userSpaceOnUse">
<stop stop-color="#345DB5"/>
<stop offset="1" stop-color="#234BA3"/>
</linearGradient>
<linearGradient id="paint6_linear" x1="635.811" y1="453" x2="635.811" y2="499" gradientUnits="userSpaceOnUse">
<stop stop-color="#FCCB6C"/>
<stop offset="1" stop-color="#E0A840"/>
</linearGradient>
<linearGradient id="paint7_linear" x1="645.126" y1="488.797" x2="613" y2="488.797" gradientUnits="userSpaceOnUse">
<stop stop-color="#345DB5"/>
<stop offset="1" stop-color="#234BA3"/>
</linearGradient>
<linearGradient id="paint8_linear" x1="340.718" y1="0" x2="340.718" y2="418.935" gradientUnits="userSpaceOnUse">
<stop stop-color="#355EB7"/>
<stop offset="1" stop-color="#20438F"/>
</linearGradient>
<linearGradient id="paint9_linear" x1="491.787" y1="189.771" x2="491.787" y2="255.813" gradientUnits="userSpaceOnUse">
<stop stop-color="#345DB4"/>
<stop offset="1" stop-color="#143479"/>
</linearGradient>
<linearGradient id="paint10_linear" x1="509.59" y1="265.099" x2="509.59" y2="328.195" gradientUnits="userSpaceOnUse">
<stop stop-color="#F7C665"/>
<stop offset="1" stop-color="#E5AE47"/>
</linearGradient>
<linearGradient id="paint11_linear" x1="426.064" y1="273.417" x2="426.064" y2="328.195" gradientUnits="userSpaceOnUse">
<stop stop-color="#345DB4"/>
<stop offset="1" stop-color="#143479"/>
</linearGradient>
<linearGradient id="paint12_linear" x1="426.068" y1="224.809" x2="426.068" y2="265.099" gradientUnits="userSpaceOnUse">
<stop stop-color="#345DB4"/>
<stop offset="1" stop-color="#143479"/>
</linearGradient>
<linearGradient id="paint13_linear" x1="509.582" y1="227.216" x2="509.582" y2="248.077" gradientUnits="userSpaceOnUse">
<stop stop-color="#345DB4"/>
<stop offset="1" stop-color="#143479"/>
</linearGradient>
<linearGradient id="paint14_linear" x1="247.561" y1="189.771" x2="247.561" y2="255.813" gradientUnits="userSpaceOnUse">
<stop stop-color="#345DB4"/>
<stop offset="1" stop-color="#143479"/>
</linearGradient>
<linearGradient id="paint15_linear" x1="265.365" y1="265.1" x2="265.365" y2="328.196" gradientUnits="userSpaceOnUse">
<stop stop-color="#F7C665"/>
<stop offset="1" stop-color="#E5AE47"/>
</linearGradient>
<linearGradient id="paint16_linear" x1="181.839" y1="273.417" x2="181.839" y2="328.195" gradientUnits="userSpaceOnUse">
<stop stop-color="#345DB4"/>
<stop offset="1" stop-color="#143479"/>
</linearGradient>
<linearGradient id="paint17_linear" x1="181.843" y1="224.809" x2="181.843" y2="265.099" gradientUnits="userSpaceOnUse">
<stop stop-color="#345DB4"/>
<stop offset="1" stop-color="#143479"/>
</linearGradient>
<linearGradient id="paint18_linear" x1="265.357" y1="227.216" x2="265.357" y2="248.077" gradientUnits="userSpaceOnUse">
<stop stop-color="#345DB4"/>
<stop offset="1" stop-color="#143479"/>
</linearGradient>
<linearGradient id="paint19_linear" x1="9.42725" y1="189.771" x2="9.42725" y2="255.813" gradientUnits="userSpaceOnUse">
<stop stop-color="#345DB4"/>
<stop offset="1" stop-color="#143479"/>
</linearGradient>
<linearGradient id="paint20_linear" x1="27.2224" y1="227.216" x2="27.2224" y2="248.077" gradientUnits="userSpaceOnUse">
<stop stop-color="#345DB4"/>
<stop offset="1" stop-color="#143479"/>
</linearGradient>
<linearGradient id="paint21_linear" x1="592.561" y1="151" x2="592.561" y2="420.382" gradientUnits="userSpaceOnUse">
<stop stop-color="#355EB7"/>
<stop offset="1" stop-color="#244896"/>
</linearGradient>
<linearGradient id="paint22_linear" x1="592.692" y1="170.019" x2="592.692" y2="214.035" gradientUnits="userSpaceOnUse">
<stop stop-color="#FBCB6C"/>
<stop offset="1" stop-color="#E0A841"/>
</linearGradient>
<linearGradient id="paint23_linear" x1="56.7087" y1="206" x2="56.7087" y2="419.623" gradientUnits="userSpaceOnUse">
<stop stop-color="#355EB7"/>
<stop offset="1" stop-color="#244896"/>
</linearGradient>
<linearGradient id="paint24_linear" x1="56.7088" y1="212.118" x2="56.7088" y2="253.245" gradientUnits="userSpaceOnUse">
<stop stop-color="#FBCB6C"/>
<stop offset="1" stop-color="#E0A841"/>
</linearGradient>
</defs>
</svg>
